<?xml version="1.0" encoding="utf-8"?>
<!-- Generator: Adobe Illustrator 15.0.0, SVG Export Plug-In . SVG Version: 6.00 Build 0)  -->
<!DOCTYPE svg PUBLIC "-//W3C//DTD SVG 1.1//EN" "http://www.w3.org/Graphics/SVG/1.1/DTD/svg11.dtd">
<svg version="1.1" id="Calque_1" xmlns="http://www.w3.org/2000/svg" xmlns:xlink="http://www.w3.org/1999/xlink" x="0px" y="0px"
	 width="300px" height="174.648px" viewBox="0 0 300 174.648" enable-background="new 0 0 300 174.648" xml:space="preserve">
<linearGradient id="SVGID_1_" gradientUnits="userSpaceOnUse" x1="34.2671" y1="-28.4087" x2="265.7334" y2="203.0576">
	<stop  offset="0" style="stop-color:#BCBEC0"/>
	<stop  offset="1" style="stop-color:#6D6E71"/>
</linearGradient>
<path fill="url(#SVGID_1_)" d="M300,164.648c0,5.522-4.477,10-10,10H10c-5.523,0-10-4.478-10-10V10C0,4.477,4.477,0,10,0h280
	c5.523,0,10,4.477,10,10V164.648z"/>
<rect x="0" y="17.042" width="300" height="30.986"/>
<rect x="32.218" y="111.789" opacity="0.5" fill="#FFFFFF" width="235.563" height="5.563"/>
<rect x="50" y="122.789" opacity="0.5" fill="#FFFFFF" width="199.999" height="5.563"/>
<rect x="89.26" y="133.789" opacity="0.5" fill="#FFFFFF" width="121.479" height="5.563"/>
<rect x="6.549" y="55.437" fill="#FFFFFF" width="191.549" height="34.859"/>
<g>
	<path fill="#FFFFFF" d="M205.328,61.379c0.324,0.208,0.789,0.365,1.287,0.365c0.738,0,1.17-0.39,1.17-0.955
		c0-0.515-0.299-0.822-1.054-1.104c-0.913-0.332-1.478-0.813-1.478-1.594c0-0.872,0.723-1.519,1.81-1.519
		c0.564,0,0.987,0.133,1.229,0.274l-0.199,0.589c-0.175-0.108-0.548-0.266-1.054-0.266c-0.764,0-1.055,0.457-1.055,0.838
		c0,0.523,0.34,0.78,1.112,1.079c0.946,0.365,1.419,0.822,1.419,1.644c0,0.863-0.631,1.619-1.95,1.619
		c-0.54,0-1.129-0.166-1.428-0.365L205.328,61.379z"/>
	<path fill="#FFFFFF" d="M210.236,56.665v5.595h-0.73v-5.595H210.236z"/>
	<path fill="#FFFFFF" d="M215.766,62.01c-0.324,0.125-0.971,0.307-1.727,0.307c-0.847,0-1.544-0.216-2.092-0.739
		c-0.481-0.465-0.78-1.212-0.78-2.083c0-1.668,1.153-2.889,3.03-2.889c0.646,0,1.162,0.141,1.402,0.257l-0.183,0.589
		c-0.299-0.141-0.673-0.241-1.237-0.241c-1.361,0-2.249,0.847-2.249,2.25c0,1.419,0.847,2.258,2.158,2.258
		c0.474,0,0.797-0.066,0.963-0.149v-1.668h-1.129v-0.581h1.843V62.01z"/>
	<path fill="#FFFFFF" d="M216.864,62.259v-5.595h0.797l1.784,2.831c0.407,0.656,0.739,1.245,0.996,1.818l0.025-0.008
		c-0.066-0.747-0.083-1.428-0.083-2.299v-2.341h0.681v5.595h-0.73l-1.776-2.839c-0.39-0.623-0.764-1.262-1.038-1.868l-0.024,0.008
		c0.042,0.706,0.05,1.378,0.05,2.308v2.391H216.864z"/>
	<path fill="#FFFFFF" d="M223.234,60.5l-0.582,1.76h-0.746l1.908-5.595h0.863l1.91,5.595h-0.772l-0.598-1.76H223.234z
		 M225.076,59.935l-0.556-1.61c-0.124-0.365-0.208-0.697-0.29-1.021h-0.018c-0.082,0.324-0.166,0.672-0.281,1.013l-0.549,1.619
		H225.076z"/>
	<path fill="#FFFFFF" d="M227.835,57.279h-1.702v-0.614h4.143v0.614h-1.71v4.98h-0.73V57.279z"/>
	<path fill="#FFFFFF" d="M231.623,56.665v3.32c0,1.245,0.556,1.776,1.303,1.776c0.822,0,1.361-0.548,1.361-1.776v-3.32h0.73v3.271
		c0,1.718-0.904,2.416-2.117,2.416c-1.145,0-2.008-0.647-2.008-2.391v-3.295H231.623z"/>
	<path fill="#FFFFFF" d="M236.273,56.739c0.365-0.066,0.896-0.116,1.387-0.116c0.771,0,1.277,0.149,1.618,0.457
		c0.274,0.249,0.44,0.631,0.44,1.071c0,0.73-0.465,1.22-1.047,1.419v0.025c0.424,0.149,0.682,0.548,0.814,1.129
		c0.182,0.78,0.314,1.32,0.432,1.536h-0.748c-0.091-0.166-0.215-0.639-0.365-1.336c-0.166-0.772-0.473-1.063-1.129-1.087h-0.68
		v2.424h-0.723V56.739z M236.996,59.288h0.738c0.771,0,1.262-0.423,1.262-1.063c0-0.722-0.523-1.038-1.287-1.038
		c-0.348,0-0.589,0.025-0.713,0.058V59.288z"/>
	<path fill="#FFFFFF" d="M243.631,59.636h-2.166v2.017h2.424v0.606h-3.154v-5.595h3.029v0.606h-2.299v1.768h2.166V59.636z"/>
	<path fill="#FFFFFF" d="M246.589,56.748c0.44-0.075,0.963-0.125,1.536-0.125c1.037,0,1.775,0.249,2.266,0.697
		c0.506,0.457,0.797,1.104,0.797,2.009c0,0.913-0.291,1.66-0.805,2.175c-0.531,0.523-1.395,0.805-2.482,0.805
		c-0.523,0-0.946-0.025-1.312-0.066V56.748z M247.311,61.695c0.184,0.025,0.449,0.033,0.73,0.033c1.553,0,2.383-0.863,2.383-2.374
		c0.008-1.32-0.738-2.158-2.266-2.158c-0.374,0-0.656,0.033-0.848,0.075V61.695z"/>
	<path fill="#FFFFFF" d="M252.842,56.665v3.32c0,1.245,0.557,1.776,1.304,1.776c0.821,0,1.361-0.548,1.361-1.776v-3.32h0.73v3.271
		c0,1.718-0.905,2.416-2.116,2.416c-1.146,0-2.01-0.647-2.01-2.391v-3.295H252.842z"/>
	<path fill="#FFFFFF" d="M259.977,57.279h-1.701v-0.614h4.142v0.614h-1.71v4.98h-0.73V57.279z"/>
	<path fill="#FFFFFF" d="M263.764,56.665v5.595h-0.73v-5.595H263.764z"/>
	<path fill="#FFFFFF" d="M266.089,57.279h-1.702v-0.614h4.143v0.614h-1.71v4.98h-0.73V57.279z"/>
	<path fill="#FFFFFF" d="M269.877,56.665v3.32c0,1.245,0.556,1.776,1.303,1.776c0.822,0,1.361-0.548,1.361-1.776v-3.32h0.73v3.271
		c0,1.718-0.904,2.416-2.117,2.416c-1.145,0-2.008-0.647-2.008-2.391v-3.295H269.877z"/>
	<path fill="#FFFFFF" d="M274.52,56.665h0.73v4.989h2.391v0.606h-3.121V56.665z"/>
	<path fill="#FFFFFF" d="M279.352,60.5l-0.58,1.76h-0.748l1.91-5.595h0.863l1.908,5.595h-0.771l-0.598-1.76H279.352z
		 M281.195,59.935l-0.557-1.61c-0.125-0.365-0.207-0.697-0.291-1.021h-0.016c-0.084,0.324-0.166,0.672-0.283,1.013l-0.547,1.619
		H281.195z"/>
	<path fill="#FFFFFF" d="M284.252,56.665v5.595h-0.73v-5.595H284.252z"/>
	<path fill="#FFFFFF" d="M285.516,56.739c0.365-0.066,0.896-0.116,1.387-0.116c0.771,0,1.277,0.149,1.618,0.457
		c0.274,0.249,0.44,0.631,0.44,1.071c0,0.73-0.465,1.22-1.047,1.419v0.025c0.424,0.149,0.682,0.548,0.814,1.129
		c0.182,0.78,0.314,1.32,0.432,1.536h-0.748c-0.091-0.166-0.215-0.639-0.365-1.336c-0.166-0.772-0.473-1.063-1.129-1.087h-0.68
		v2.424h-0.723V56.739z M286.238,59.288h0.738c0.771,0,1.262-0.423,1.262-1.063c0-0.722-0.523-1.038-1.287-1.038
		c-0.348,0-0.589,0.025-0.713,0.058V59.288z"/>
	<path fill="#FFFFFF" d="M292.872,59.636h-2.167v2.017h2.424v0.606h-3.154v-5.595h3.03v0.606h-2.3v1.768h2.167V59.636z"/>
	<path fill="#FFFFFF" d="M210.201,69.37c0,1.917-1.17,2.947-2.598,2.947c-1.486,0-2.516-1.154-2.516-2.847
		c0-1.776,1.096-2.938,2.59-2.938C209.213,66.531,210.201,67.702,210.201,69.37z M205.852,69.453c0,1.204,0.647,2.274,1.793,2.274
		s1.793-1.054,1.793-2.324c0-1.121-0.581-2.283-1.785-2.283C206.449,67.121,205.852,68.233,205.852,69.453z"/>
	<path fill="#FFFFFF" d="M211.143,66.714c0.315-0.075,0.822-0.125,1.32-0.125c0.722,0,1.187,0.125,1.527,0.407
		c0.29,0.216,0.473,0.548,0.473,0.988c0,0.548-0.365,1.021-0.946,1.229v0.025c0.531,0.125,1.153,0.564,1.153,1.395
		c0,0.481-0.19,0.855-0.48,1.121c-0.383,0.357-1.014,0.523-1.926,0.523c-0.498,0-0.881-0.033-1.121-0.066V66.714z M211.865,69.005
		h0.655c0.755,0,1.204-0.407,1.204-0.946c0-0.647-0.49-0.913-1.221-0.913c-0.332,0-0.523,0.025-0.639,0.05V69.005z M211.865,71.678
		c0.148,0.025,0.348,0.033,0.605,0.033c0.747,0,1.436-0.274,1.436-1.087c0-0.755-0.655-1.079-1.443-1.079h-0.598V71.678z"/>
	<path fill="#FFFFFF" d="M215.635,66.631h0.73v4.989h2.391v0.606h-3.121V66.631z"/>
	<path fill="#FFFFFF" d="M220.285,66.631v5.595h-0.73v-5.595H220.285z"/>
	<path fill="#FFFFFF" d="M225.815,71.977c-0.323,0.125-0.972,0.307-1.727,0.307c-0.847,0-1.544-0.216-2.092-0.739
		c-0.481-0.465-0.78-1.212-0.78-2.083c0-1.668,1.154-2.889,3.029-2.889c0.648,0,1.162,0.141,1.403,0.257l-0.183,0.589
		c-0.299-0.141-0.672-0.241-1.236-0.241c-1.361,0-2.25,0.847-2.25,2.25c0,1.419,0.847,2.258,2.158,2.258
		c0.473,0,0.797-0.066,0.963-0.149v-1.668h-1.129v-0.581h1.843V71.977z"/>
	<path fill="#FFFFFF" d="M227.818,70.466l-0.58,1.76h-0.748l1.91-5.595h0.863l1.908,5.595H230.4l-0.598-1.76H227.818z
		 M229.662,69.901l-0.557-1.61c-0.125-0.365-0.207-0.697-0.291-1.021h-0.016c-0.084,0.324-0.166,0.672-0.283,1.013l-0.547,1.619
		H229.662z"/>
	<path fill="#FFFFFF" d="M232.42,67.245h-1.701v-0.614h4.142v0.614h-1.71v4.98h-0.73V67.245z"/>
	<path fill="#FFFFFF" d="M240.042,69.37c0,1.917-1.171,2.947-2.599,2.947c-1.485,0-2.515-1.154-2.515-2.847
		c0-1.776,1.096-2.938,2.59-2.938C239.055,66.531,240.042,67.702,240.042,69.37z M235.692,69.453c0,1.204,0.647,2.274,1.793,2.274
		s1.793-1.054,1.793-2.324c0-1.121-0.581-2.283-1.784-2.283C236.29,67.121,235.692,68.233,235.692,69.453z"/>
	<path fill="#FFFFFF" d="M241.705,66.631v5.595h-0.73v-5.595H241.705z"/>
	<path fill="#FFFFFF" d="M242.968,66.706c0.365-0.066,0.896-0.116,1.386-0.116c0.772,0,1.279,0.149,1.619,0.457
		c0.273,0.249,0.439,0.631,0.439,1.071c0,0.73-0.465,1.22-1.045,1.419v0.025c0.423,0.149,0.68,0.548,0.813,1.129
		c0.184,0.78,0.316,1.32,0.432,1.536h-0.746c-0.092-0.166-0.217-0.639-0.365-1.336c-0.166-0.772-0.474-1.063-1.129-1.087h-0.682
		v2.424h-0.722V66.706z M243.689,69.254h0.739c0.772,0,1.262-0.423,1.262-1.063c0-0.722-0.522-1.038-1.286-1.038
		c-0.35,0-0.59,0.025-0.715,0.058V69.254z"/>
	<path fill="#FFFFFF" d="M250.325,69.603h-2.167v2.017h2.424v0.606h-3.154v-5.595h3.03v0.606h-2.3v1.768h2.167V69.603z"/>
</g>
<g>
	<path d="M16.491,69.081h-0.042l-2.331,1.176l-0.189-1.386l3.107-1.554h1.47l-2.583,13.647h-1.68L16.491,69.081z"/>
	<path d="M20.755,80.964l0.21-1.155l2.037-1.701c3.653-3.086,5.795-5.207,5.795-7.454c0-0.987-0.546-2.079-2.121-2.079
		c-1.218,0-2.184,0.546-2.813,0.987l-0.441-1.26c0.945-0.714,2.352-1.218,3.632-1.218c2.562,0,3.548,1.701,3.548,3.338
		c0,2.897-2.646,5.417-5.9,8.104l-1.155,0.903v0.042h5.732l-0.273,1.491H20.755z"/>
	<path d="M32.011,78.949c0.525,0.315,1.386,0.756,2.625,0.756c2.331,0,3.401-1.596,3.401-3.002c0-1.701-1.323-2.415-2.918-2.415
		h-0.693l0.273-1.365h0.693c1.281,0,3.38-0.84,3.38-2.646c0-1.05-0.63-1.701-1.932-1.701c-1.029,0-1.974,0.336-2.583,0.756
		l-0.378-1.323c0.861-0.525,2.058-0.924,3.254-0.924c2.289,0,3.485,1.365,3.485,2.939c0,1.785-1.449,3.086-3.023,3.527v0.042
		c1.491,0.357,2.268,1.638,2.268,3.086c0,2.583-2.331,4.514-5.291,4.514c-1.47,0-2.688-0.441-3.149-0.861L32.011,78.949z"/>
	<path d="M46.814,80.964l0.714-3.758h-5.879l0.231-1.176l7.265-8.713h1.911l-1.617,8.503h1.848l-0.252,1.386h-1.869l-0.714,3.758
		H46.814z M47.801,75.82l0.882-4.535c0.147-0.735,0.336-1.491,0.504-2.205h-0.063c-0.567,0.84-0.945,1.512-1.533,2.247l-3.8,4.451
		v0.042H47.801z"/>
	<path d="M61.64,69.081h-0.042l-2.331,1.176l-0.189-1.386l3.107-1.554h1.47l-2.583,13.647h-1.68L61.64,69.081z"/>
	<path d="M65.904,80.964l0.21-1.155l2.037-1.701c3.653-3.086,5.795-5.207,5.795-7.454c0-0.987-0.546-2.079-2.121-2.079
		c-1.218,0-2.184,0.546-2.813,0.987l-0.441-1.26c0.945-0.714,2.352-1.218,3.632-1.218c2.562,0,3.548,1.701,3.548,3.338
		c0,2.897-2.646,5.417-5.9,8.104l-1.155,0.903v0.042h5.732l-0.273,1.491H65.904z"/>
	<path d="M77.16,78.949c0.525,0.315,1.386,0.756,2.625,0.756c2.331,0,3.401-1.596,3.401-3.002c0-1.701-1.323-2.415-2.918-2.415
		h-0.693l0.273-1.365h0.693c1.281,0,3.38-0.84,3.38-2.646c0-1.05-0.63-1.701-1.932-1.701c-1.029,0-1.974,0.336-2.583,0.756
		l-0.378-1.323c0.861-0.525,2.058-0.924,3.254-0.924c2.289,0,3.485,1.365,3.485,2.939c0,1.785-1.449,3.086-3.023,3.527v0.042
		c1.491,0.357,2.268,1.638,2.268,3.086c0,2.583-2.331,4.514-5.291,4.514c-1.47,0-2.688-0.441-3.149-0.861L77.16,78.949z"/>
	<path d="M91.963,80.964l0.714-3.758h-5.879l0.231-1.176l7.265-8.713h1.911l-1.617,8.503h1.848l-0.252,1.386h-1.869l-0.714,3.758
		H91.963z M92.95,75.82l0.882-4.535c0.147-0.735,0.336-1.491,0.504-2.205h-0.063c-0.567,0.84-0.945,1.512-1.533,2.247l-3.8,4.451
		v0.042H92.95z"/>
	<path d="M106.789,69.081h-0.042l-2.331,1.176l-0.189-1.386l3.107-1.554h1.47l-2.583,13.647h-1.68L106.789,69.081z"/>
	<path d="M111.053,80.964l0.21-1.155l2.037-1.701c3.653-3.086,5.795-5.207,5.795-7.454c0-0.987-0.546-2.079-2.121-2.079
		c-1.218,0-2.184,0.546-2.813,0.987l-0.441-1.26c0.945-0.714,2.352-1.218,3.632-1.218c2.562,0,3.548,1.701,3.548,3.338
		c0,2.897-2.646,5.417-5.9,8.104l-1.155,0.903v0.042h5.732l-0.273,1.491H111.053z"/>
	<path d="M122.309,78.949c0.525,0.315,1.386,0.756,2.625,0.756c2.331,0,3.401-1.596,3.401-3.002c0-1.701-1.323-2.415-2.918-2.415
		h-0.693l0.273-1.365h0.693c1.281,0,3.38-0.84,3.38-2.646c0-1.05-0.63-1.701-1.932-1.701c-1.029,0-1.974,0.336-2.583,0.756
		l-0.378-1.323c0.861-0.525,2.058-0.924,3.254-0.924c2.289,0,3.485,1.365,3.485,2.939c0,1.785-1.449,3.086-3.023,3.527v0.042
		c1.491,0.357,2.268,1.638,2.268,3.086c0,2.583-2.331,4.514-5.291,4.514c-1.47,0-2.688-0.441-3.149-0.861L122.309,78.949z"/>
	<path d="M137.112,80.964l0.714-3.758h-5.879l0.231-1.176l7.265-8.713h1.911l-1.617,8.503h1.848l-0.252,1.386h-1.869l-0.714,3.758
		H137.112z M138.099,75.82l0.882-4.535c0.147-0.735,0.336-1.491,0.504-2.205h-0.063c-0.567,0.84-0.945,1.512-1.533,2.247l-3.8,4.451
		v0.042H138.099z"/>
	<path d="M145.87,80.964l0.21-1.155l2.037-1.701c3.653-3.086,5.794-5.207,5.794-7.454c0-0.987-0.546-2.079-2.121-2.079
		c-1.217,0-2.183,0.546-2.813,0.987l-0.441-1.26c0.945-0.714,2.352-1.218,3.632-1.218c2.561,0,3.548,1.701,3.548,3.338
		c0,2.897-2.646,5.417-5.899,8.104l-1.155,0.903v0.042h5.731l-0.272,1.491H145.87z"/>
	<path d="M157.125,78.949c0.524,0.315,1.386,0.756,2.624,0.756c2.331,0,3.402-1.596,3.402-3.002c0-1.701-1.323-2.415-2.919-2.415
		h-0.692l0.272-1.365h0.692c1.281,0,3.381-0.84,3.381-2.646c0-1.05-0.63-1.701-1.932-1.701c-1.029,0-1.974,0.336-2.582,0.756
		l-0.379-1.323c0.861-0.525,2.059-0.924,3.255-0.924c2.288,0,3.485,1.365,3.485,2.939c0,1.785-1.449,3.086-3.023,3.527v0.042
		c1.49,0.357,2.268,1.638,2.268,3.086c0,2.583-2.33,4.514-5.291,4.514c-1.47,0-2.688-0.441-3.149-0.861L157.125,78.949z"/>
	<path d="M171.929,80.964l0.715-3.758h-5.879l0.23-1.176l7.265-8.713h1.911l-1.617,8.503h1.848l-0.252,1.386h-1.869l-0.713,3.758
		H171.929z M172.916,75.82l0.882-4.535c0.146-0.735,0.336-1.491,0.504-2.205h-0.063c-0.567,0.84-0.945,1.512-1.533,2.247
		l-3.801,4.451v0.042H172.916z"/>
</g>
<rect x="186.127" y="6.211" opacity="0.5" fill="#FFFFFF" width="99.964" height="5.563"/>
<g>
	
		<ellipse opacity="0.35" fill="#ED1C24" stroke="#ED1C24" stroke-width="2" stroke-miterlimit="10" cx="163.359" cy="72.817" rx="23.768" ry="14.507"/>
	
		<ellipse fill="none" stroke="#ED1C24" stroke-width="2" stroke-miterlimit="10" cx="163.359" cy="72.817" rx="23.768" ry="14.507"/>
</g>
</svg>
