<?xml version="1.0" encoding="utf-8"?>
<!-- Generator: Adobe Illustrator 15.0.0, SVG Export Plug-In . SVG Version: 6.00 Build 0)  -->
<!DOCTYPE svg PUBLIC "-//W3C//DTD SVG 1.1//EN" "http://www.w3.org/Graphics/SVG/1.1/DTD/svg11.dtd">
<svg version="1.1" id="Calque_1" xmlns="http://www.w3.org/2000/svg" xmlns:xlink="http://www.w3.org/1999/xlink" x="0px" y="0px"
	 width="300px" height="174.648px" viewBox="0 0 300 174.648" enable-background="new 0 0 300 174.648" xml:space="preserve">
<linearGradient id="SVGID_1_" gradientUnits="userSpaceOnUse" x1="181.9277" y1="-66.9016" x2="413.3939" y2="-298.3678" gradientTransform="matrix(1 0 0 -1 -147.6602 -95.312)">
	<stop  offset="0" style="stop-color:#27AAE1"/>
	<stop  offset="1" style="stop-color:#1A5285"/>
</linearGradient>
<path fill="url(#SVGID_1_)" d="M300,164.648c0,5.521-4.477,10-10,10H10c-5.523,0-10-4.479-10-10V10C0,4.477,4.477,0,10,0h280
	c5.523,0,10,4.478,10,10V164.648z"/>
<rect y="17.042" width="300" height="30.986"/>
<rect x="32.218" y="111.789" opacity="0.5" fill="#FFFFFF" enable-background="new    " width="235.563" height="5.563"/>
<rect x="50" y="122.789" opacity="0.5" fill="#FFFFFF" enable-background="new    " width="199.999" height="5.563"/>
<rect x="89.26" y="133.789" opacity="0.5" fill="#FFFFFF" enable-background="new    " width="121.479" height="5.563"/>
<rect x="6.549" y="55.437" fill="#FFFFFF" width="191.549" height="34.858"/>
<g>
	<path fill="#FFFFFF" d="M205.328,61.379c0.324,0.208,0.789,0.365,1.287,0.365c0.738,0,1.17-0.39,1.17-0.955
		c0-0.515-0.299-0.822-1.055-1.104c-0.912-0.332-1.478-0.813-1.478-1.595c0-0.872,0.724-1.519,1.81-1.519
		c0.564,0,0.987,0.133,1.229,0.274l-0.199,0.589c-0.175-0.108-0.548-0.267-1.054-0.267c-0.764,0-1.055,0.457-1.055,0.838
		c0,0.523,0.34,0.78,1.111,1.079c0.946,0.365,1.42,0.822,1.42,1.645c0,0.862-0.632,1.619-1.951,1.619
		c-0.539,0-1.129-0.166-1.428-0.365L205.328,61.379z"/>
	<path fill="#FFFFFF" d="M210.236,56.665v5.595h-0.73v-5.595H210.236z"/>
	<path fill="#FFFFFF" d="M215.766,62.01c-0.324,0.125-0.971,0.308-1.727,0.308c-0.848,0-1.544-0.216-2.092-0.739
		c-0.481-0.465-0.78-1.212-0.78-2.083c0-1.668,1.153-2.889,3.03-2.889c0.646,0,1.162,0.141,1.402,0.257l-0.184,0.589
		c-0.299-0.141-0.673-0.241-1.236-0.241c-1.361,0-2.25,0.848-2.25,2.25c0,1.419,0.848,2.258,2.158,2.258
		c0.475,0,0.797-0.065,0.963-0.148v-1.668h-1.129v-0.581h1.844V62.01L215.766,62.01z"/>
	<path fill="#FFFFFF" d="M216.863,62.259v-5.595h0.798l1.784,2.831c0.406,0.656,0.738,1.245,0.996,1.818l0.024-0.008
		c-0.065-0.747-0.083-1.429-0.083-2.3v-2.341h0.682v5.595h-0.73l-1.775-2.839c-0.391-0.623-0.765-1.262-1.039-1.868l-0.023,0.009
		c0.042,0.706,0.05,1.378,0.05,2.308v2.391L216.863,62.259L216.863,62.259z"/>
	<path fill="#FFFFFF" d="M223.234,60.5l-0.582,1.76h-0.746l1.908-5.595h0.862l1.91,5.595h-0.772l-0.598-1.76H223.234z
		 M225.076,59.935l-0.557-1.61c-0.123-0.365-0.207-0.697-0.289-1.021h-0.019c-0.082,0.323-0.166,0.672-0.28,1.013l-0.55,1.619
		L225.076,59.935L225.076,59.935z"/>
	<path fill="#FFFFFF" d="M227.835,57.279h-1.702v-0.614h4.143v0.614h-1.709v4.979h-0.73L227.835,57.279L227.835,57.279z"/>
	<path fill="#FFFFFF" d="M231.623,56.665v3.32c0,1.245,0.557,1.775,1.303,1.775c0.822,0,1.361-0.548,1.361-1.775v-3.32h0.73v3.271
		c0,1.718-0.904,2.416-2.117,2.416c-1.146,0-2.008-0.647-2.008-2.392v-3.295L231.623,56.665L231.623,56.665z"/>
	<path fill="#FFFFFF" d="M236.273,56.739c0.365-0.066,0.896-0.116,1.387-0.116c0.771,0,1.277,0.149,1.617,0.457
		c0.274,0.249,0.44,0.631,0.44,1.071c0,0.729-0.465,1.22-1.047,1.419v0.025c0.425,0.148,0.683,0.548,0.813,1.129
		c0.183,0.779,0.314,1.319,0.433,1.535h-0.748c-0.091-0.166-0.215-0.639-0.364-1.336c-0.166-0.771-0.474-1.063-1.13-1.087h-0.68
		v2.424h-0.724v-5.521H236.273z M236.996,59.288h0.738c0.771,0,1.262-0.423,1.262-1.063c0-0.723-0.523-1.038-1.287-1.038
		c-0.348,0-0.589,0.024-0.713,0.058V59.288z"/>
	<path fill="#FFFFFF" d="M243.631,59.635h-2.166v2.018h2.424v0.605h-3.154v-5.595h3.029v0.606h-2.299v1.768h2.166V59.635z"/>
	<path fill="#FFFFFF" d="M246.589,56.748c0.44-0.075,0.963-0.125,1.536-0.125c1.037,0,1.775,0.249,2.266,0.697
		c0.506,0.457,0.797,1.104,0.797,2.009c0,0.913-0.291,1.66-0.805,2.175c-0.531,0.523-1.395,0.806-2.482,0.806
		c-0.522,0-0.945-0.025-1.312-0.066V56.748L246.589,56.748z M247.311,61.695c0.185,0.025,0.449,0.033,0.73,0.033
		c1.553,0,2.383-0.863,2.383-2.374c0.008-1.32-0.738-2.158-2.266-2.158c-0.374,0-0.656,0.033-0.848,0.075V61.695L247.311,61.695z"/>
	<path fill="#FFFFFF" d="M252.842,56.665v3.32c0,1.245,0.557,1.775,1.305,1.775c0.82,0,1.36-0.548,1.36-1.775v-3.32h0.729v3.271
		c0,1.718-0.904,2.416-2.115,2.416c-1.146,0-2.01-0.647-2.01-2.392v-3.295L252.842,56.665L252.842,56.665z"/>
	<path fill="#FFFFFF" d="M259.977,57.279h-1.701v-0.614h4.143v0.614h-1.71v4.979h-0.729v-4.979H259.977z"/>
	<path fill="#FFFFFF" d="M263.764,56.665v5.595h-0.729v-5.595H263.764z"/>
	<path fill="#FFFFFF" d="M266.089,57.279h-1.702v-0.614h4.143v0.614h-1.709v4.979h-0.73L266.089,57.279L266.089,57.279z"/>
	<path fill="#FFFFFF" d="M269.877,56.665v3.32c0,1.245,0.557,1.775,1.303,1.775c0.822,0,1.361-0.548,1.361-1.775v-3.32h0.73v3.271
		c0,1.718-0.904,2.416-2.117,2.416c-1.146,0-2.008-0.647-2.008-2.392v-3.295L269.877,56.665L269.877,56.665z"/>
	<path fill="#FFFFFF" d="M274.52,56.665h0.73v4.989h2.391v0.605h-3.121V56.665z"/>
	<path fill="#FFFFFF" d="M279.352,60.5l-0.58,1.76h-0.748l1.91-5.595h0.863l1.908,5.595h-0.771l-0.598-1.76H279.352z
		 M281.195,59.935l-0.557-1.61c-0.125-0.365-0.207-0.697-0.291-1.021h-0.017c-0.084,0.323-0.166,0.672-0.283,1.013l-0.547,1.619
		L281.195,59.935L281.195,59.935z"/>
	<path fill="#FFFFFF" d="M284.252,56.665v5.595h-0.73v-5.595H284.252z"/>
	<path fill="#FFFFFF" d="M285.516,56.739c0.365-0.066,0.896-0.116,1.387-0.116c0.771,0,1.277,0.149,1.619,0.457
		c0.273,0.249,0.439,0.631,0.439,1.071c0,0.729-0.465,1.22-1.047,1.419v0.025c0.424,0.148,0.682,0.548,0.814,1.129
		c0.182,0.779,0.313,1.319,0.432,1.535h-0.748c-0.092-0.166-0.215-0.639-0.365-1.336c-0.166-0.771-0.473-1.063-1.129-1.087h-0.68
		v2.424h-0.723V56.739L285.516,56.739z M286.238,59.288h0.738c0.771,0,1.262-0.423,1.262-1.063c0-0.723-0.523-1.038-1.287-1.038
		c-0.348,0-0.59,0.024-0.713,0.058V59.288z"/>
	<path fill="#FFFFFF" d="M292.872,59.635h-2.167v2.018h2.424v0.605h-3.154v-5.595h3.03v0.606h-2.3v1.768h2.167V59.635
		L292.872,59.635z"/>
	<path fill="#FFFFFF" d="M210.201,69.37c0,1.917-1.17,2.947-2.598,2.947c-1.486,0-2.517-1.154-2.517-2.847
		c0-1.776,1.097-2.938,2.59-2.938C209.213,66.531,210.201,67.702,210.201,69.37z M205.852,69.453c0,1.204,0.647,2.274,1.793,2.274
		c1.146,0,1.793-1.055,1.793-2.324c0-1.121-0.58-2.283-1.785-2.283C206.449,67.121,205.852,68.233,205.852,69.453z"/>
	<path fill="#FFFFFF" d="M211.143,66.714c0.315-0.074,0.822-0.125,1.32-0.125c0.723,0,1.188,0.125,1.527,0.407
		c0.289,0.216,0.473,0.548,0.473,0.988c0,0.548-0.365,1.021-0.945,1.229v0.025c0.53,0.125,1.152,0.563,1.152,1.395
		c0,0.481-0.189,0.855-0.48,1.121c-0.383,0.357-1.014,0.523-1.926,0.523c-0.498,0-0.881-0.033-1.121-0.066V66.714L211.143,66.714z
		 M211.865,69.005h0.654c0.756,0,1.205-0.406,1.205-0.945c0-0.647-0.49-0.913-1.222-0.913c-0.332,0-0.522,0.024-0.64,0.05v1.809
		H211.865z M211.865,71.678c0.148,0.024,0.348,0.032,0.605,0.032c0.746,0,1.436-0.273,1.436-1.087c0-0.755-0.655-1.079-1.443-1.079
		h-0.598V71.678z"/>
	<path fill="#FFFFFF" d="M215.635,66.631h0.73v4.989h2.391v0.606h-3.121V66.631z"/>
	<path fill="#FFFFFF" d="M220.285,66.631v5.596h-0.73v-5.596H220.285z"/>
	<path fill="#FFFFFF" d="M225.814,71.977c-0.322,0.125-0.972,0.307-1.727,0.307c-0.847,0-1.544-0.216-2.092-0.739
		c-0.48-0.465-0.78-1.212-0.78-2.083c0-1.668,1.154-2.889,3.029-2.889c0.647,0,1.162,0.141,1.403,0.257l-0.184,0.589
		c-0.299-0.141-0.672-0.24-1.236-0.24c-1.36,0-2.25,0.847-2.25,2.25c0,1.419,0.848,2.258,2.158,2.258
		c0.473,0,0.797-0.066,0.963-0.149v-1.668h-1.129v-0.581h1.844V71.977L225.814,71.977z"/>
	<path fill="#FFFFFF" d="M227.818,70.466l-0.58,1.761h-0.748l1.91-5.596h0.863l1.907,5.596H230.4l-0.599-1.761H227.818z
		 M229.662,69.901l-0.557-1.61c-0.125-0.365-0.207-0.697-0.291-1.021h-0.017c-0.084,0.323-0.166,0.672-0.282,1.013l-0.548,1.619
		L229.662,69.901L229.662,69.901z"/>
	<path fill="#FFFFFF" d="M232.42,67.245h-1.701v-0.614h4.143v0.614h-1.711v4.98h-0.729L232.42,67.245L232.42,67.245z"/>
	<path fill="#FFFFFF" d="M240.042,69.37c0,1.917-1.171,2.947-2.599,2.947c-1.485,0-2.516-1.154-2.516-2.847
		c0-1.776,1.096-2.938,2.59-2.938C239.055,66.531,240.042,67.702,240.042,69.37z M235.691,69.453c0,1.204,0.647,2.274,1.793,2.274
		c1.146,0,1.793-1.055,1.793-2.324c0-1.121-0.58-2.283-1.783-2.283C236.29,67.121,235.691,68.233,235.691,69.453z"/>
	<path fill="#FFFFFF" d="M241.705,66.631v5.596h-0.73v-5.596H241.705z"/>
	<path fill="#FFFFFF" d="M242.968,66.706c0.365-0.065,0.896-0.116,1.386-0.116c0.772,0,1.279,0.149,1.619,0.457
		c0.273,0.249,0.439,0.632,0.439,1.071c0,0.73-0.465,1.22-1.045,1.419v0.025c0.423,0.148,0.68,0.548,0.813,1.129
		c0.185,0.78,0.316,1.319,0.432,1.536h-0.745c-0.093-0.166-0.218-0.64-0.365-1.336c-0.166-0.772-0.474-1.063-1.129-1.087h-0.683
		v2.424h-0.722V66.706z M243.689,69.254h0.738c0.772,0,1.262-0.423,1.262-1.063c0-0.723-0.521-1.038-1.285-1.038
		c-0.35,0-0.59,0.024-0.715,0.058V69.254z"/>
	<path fill="#FFFFFF" d="M250.325,69.603h-2.167v2.017h2.424v0.606h-3.154v-5.596h3.03v0.606h-2.3v1.768h2.167V69.603
		L250.325,69.603z"/>
</g>
<g>
	<path d="M16.862,65.387h-0.038l-2.095,1.056l-0.17-1.245l2.792-1.397h1.321l-2.321,12.266h-1.51L16.862,65.387z"/>
	<path d="M20.691,76.067l0.188-1.038l1.831-1.528c3.283-2.774,5.208-4.681,5.208-6.699c0-0.887-0.491-1.869-1.906-1.869
		c-1.095,0-1.963,0.49-2.529,0.887l-0.396-1.133c0.85-0.642,2.113-1.095,3.265-1.095c2.302,0,3.189,1.529,3.189,3.001
		c0,2.604-2.377,4.869-5.303,7.285l-1.038,0.813v0.037h5.152l-0.245,1.339H20.691z"/>
	<path d="M30.805,74.256c0.472,0.284,1.245,0.681,2.358,0.681c2.095,0,3.057-1.434,3.057-2.699c0-1.528-1.188-2.171-2.622-2.171
		h-0.623l0.246-1.225h0.623c1.151,0,3.038-0.755,3.038-2.379c0-0.943-0.566-1.528-1.736-1.528c-0.924,0-1.774,0.301-2.321,0.679
		l-0.339-1.188c0.773-0.472,1.849-0.83,2.924-0.83c2.057,0,3.132,1.227,3.132,2.642c0,1.604-1.301,2.773-2.717,3.17v0.038
		c1.339,0.32,2.037,1.472,2.037,2.773c0,2.32-2.095,4.058-4.755,4.058c-1.321,0-2.416-0.396-2.83-0.774L30.805,74.256z"/>
	<path d="M44.108,76.067l0.643-3.377h-5.284l0.207-1.057l6.529-7.832h1.718l-1.453,7.643h1.66L47.9,72.69h-1.679l-0.641,3.377
		H44.108z M44.995,71.445l0.793-4.077c0.132-0.66,0.302-1.339,0.453-1.981h-0.057c-0.51,0.755-0.85,1.359-1.377,2.019l-3.416,4
		v0.038H44.995z"/>
	<path d="M55.41,76.067l0.189-1.038l1.83-1.528c3.284-2.774,5.208-4.681,5.208-6.699c0-0.887-0.491-1.869-1.906-1.869
		c-1.095,0-1.963,0.49-2.529,0.887l-0.396-1.133c0.85-0.642,2.114-1.095,3.266-1.095c2.302,0,3.189,1.529,3.189,3.001
		c0,2.604-2.377,4.869-5.303,7.285l-1.038,0.812v0.038h5.152l-0.246,1.339L55.41,76.067L55.41,76.067z"/>
	<path d="M65.523,74.256c0.472,0.284,1.246,0.681,2.358,0.681c2.095,0,3.057-1.434,3.057-2.699c0-1.528-1.189-2.171-2.623-2.171
		h-0.623l0.245-1.225h0.623c1.151,0,3.038-0.755,3.038-2.379c0-0.943-0.566-1.528-1.735-1.528c-0.925,0-1.774,0.301-2.321,0.679
		l-0.34-1.188c0.774-0.472,1.85-0.83,2.925-0.83c2.057,0,3.133,1.227,3.133,2.642c0,1.604-1.301,2.773-2.718,3.17v0.038
		c1.34,0.32,2.038,1.472,2.038,2.773c0,2.32-2.095,4.058-4.756,4.058c-1.32,0-2.416-0.396-2.831-0.774L65.523,74.256z"/>
	<path d="M78.827,76.067l0.642-3.377h-5.284l0.208-1.057l6.529-7.832h1.717l-1.453,7.643h1.66L82.62,72.69h-1.68l-0.642,3.377
		H78.827z M79.714,71.445l0.792-4.077c0.132-0.66,0.302-1.339,0.453-1.981h-0.057c-0.51,0.755-0.85,1.359-1.378,2.019l-3.416,4
		v0.038H79.714z"/>
</g>
<rect x="186.127" y="6.211" opacity="0.5" fill="#FFFFFF" enable-background="new    " width="99.964" height="5.563"/>
<ellipse opacity="0.35" fill="#ED1C24" stroke="#ED1C24" stroke-width="2" stroke-miterlimit="10" enable-background="new    " cx="70.26" cy="71.225" rx="23.768" ry="14.507"/>
<ellipse fill="none" stroke="#ED1C24" stroke-width="2" stroke-miterlimit="10" cx="70.26" cy="71.225" rx="23.768" ry="14.507"/>
</svg>
