<?xml version="1.0" encoding="utf-8"?>
<!-- Generator: Adobe Illustrator 15.0.0, SVG Export Plug-In . SVG Version: 6.00 Build 0)  -->
<!DOCTYPE svg PUBLIC "-//W3C//DTD SVG 1.1//EN" "http://www.w3.org/Graphics/SVG/1.1/DTD/svg11.dtd">
<svg version="1.1" id="Calque_1" xmlns="http://www.w3.org/2000/svg" xmlns:xlink="http://www.w3.org/1999/xlink" x="0px" y="0px"
	 width="300px" height="174.648px" viewBox="0 0 300 174.648" enable-background="new 0 0 300 174.648" xml:space="preserve">
<g id="Calque_1_1_">
	
		<linearGradient id="SVGID_1_" gradientUnits="userSpaceOnUse" x1="635.3799" y1="-370.0134" x2="866.5101" y2="-601.1437" gradientTransform="matrix(1 0 0 -1 -601.2803 -398.2271)">
		<stop  offset="0" style="stop-color:#A0D6C2"/>
		<stop  offset="1" style="stop-color:#3FAB83"/>
	</linearGradient>
	<path fill="url(#SVGID_1_)" d="M299.328,164.677c0,5.521-4.477,10-10,10H10c-5.523,0-10-4.479-10-10V10.028c0-5.522,4.477-10,10-10
		h279.328c5.523,0,10,4.478,10,10V164.677z"/>
</g>
<g id="Calque_3">
	<circle fill="#D1D3D4" cx="10.019" cy="10.423" r="6.923"/>
	<circle fill="#D1D3D4" cx="290.309" cy="10.423" r="6.922"/>
	<circle fill="#D1D3D4" cx="9.95" cy="164.831" r="6.923"/>
	<circle fill="#D1D3D4" cx="289.24" cy="164.831" r="6.922"/>
	<g>
		<g>
			<g>
				<path fill="#FFFFFF" d="M58.323,46.691h-5.489l-0.372-1.365h-3.551l-0.372,1.365H42.98l3.38-10.583h8.629L58.323,46.691z
					 M51.818,42.443l-1.085-3.351l-1.14,3.351H51.818z"/>
				<path fill="#FFFFFF" d="M75.682,46.691h-5.218v-5.45l-1.861,5.45h-2.969l-1.853-5.266v5.266h-5.14V36.109h6.815l1.659,5.132
					l1.659-5.132h6.908V46.691L75.682,46.691z"/>
				<path fill="#FFFFFF" d="M89.094,46.691H76.953V36.109h12.141v3.403h-6.699v0.969h6.699v2.535h-6.699v0.897h6.699V46.691z"/>
				<path fill="#FFFFFF" d="M104.631,46.691h-6.334L95.7,43.35v3.341h-5.442V36.109h10.195c0.646,0,1.177,0.053,1.593,0.159
					c0.416,0.104,0.787,0.281,1.113,0.529c0.356,0.274,0.634,0.62,0.833,1.039c0.199,0.419,0.298,0.866,0.298,1.343
					c0,0.967-0.385,1.745-1.155,2.341c-0.465,0.36-0.979,0.592-1.542,0.688c-0.176,0.031-0.383,0.061-0.621,0.085L104.631,46.691z
					 M95.7,41.117h1.659c0.481,0,0.827-0.065,1.039-0.194c0.331-0.2,0.496-0.533,0.496-1c0-0.388-0.126-0.665-0.38-0.83
					c-0.17-0.107-0.447-0.161-0.83-0.161H95.7V41.117z"/>
				<path fill="#FFFFFF" d="M110.601,46.691h-5.442V36.109h5.442V46.691z"/>
				<path fill="#FFFFFF" d="M123.982,42.885v3.659c-1.535,0.248-3.083,0.372-4.644,0.372c-1.923,0-3.344-0.155-4.264-0.465
					c-1.349-0.46-2.324-1.29-2.923-2.489c-0.398-0.801-0.597-1.683-0.597-2.644c0-1.127,0.274-2.127,0.822-3
					c1.018-1.623,3.042-2.437,6.071-2.437c1.633,0,3.54,0.166,5.721,0.496v4.142c-1.586-0.271-2.936-0.403-4.047-0.403
					c-0.936,0-1.633,0.106-2.093,0.318c-0.512,0.231-0.768,0.677-0.768,1.333c0,0.631,0.261,1.049,0.783,1.256
					c0.465,0.189,1.191,0.287,2.179,0.287C121.473,43.311,122.727,43.169,123.982,42.885z"/>
				<path fill="#FFFFFF" d="M139.675,46.691h-5.489l-0.372-1.365h-3.551l-0.372,1.365h-5.559l3.38-10.583h8.629L139.675,46.691z
					 M133.17,42.443l-1.085-3.351l-1.14,3.351H133.17z"/>
				<path fill="#FFFFFF" d="M153.613,46.691h-4.783l-3.698-4.745v4.745h-5.14V36.109h5.458l3.024,4.427v-4.427h5.14L153.613,46.691
					L153.613,46.691z"/>
				<path fill="#FFFFFF" d="M171.787,46.691h-12.143V36.109h12.143v3.403h-6.698v0.969h6.698v2.535h-6.698v0.897h6.698V46.691z"/>
				<path fill="#FFFFFF" d="M187.092,46.691h-5.962l-1.442-2.475l-1.574,2.475h-5.952l3.696-5.132l-3.858-5.45h6.354l1.334,2.837
					l1.442-2.837h6.194l-3.893,5.45L187.092,46.691z"/>
				<path fill="#FFFFFF" d="M193.084,46.691h-5.441V36.109h9.955c1.396,0,2.465,0.38,3.209,1.14
					c0.594,0.602,0.893,1.455,0.893,2.566c0,0.719-0.146,1.38-0.438,1.983c-0.293,0.605-0.701,1.093-1.229,1.458
					c-0.685,0.478-1.476,0.775-2.373,0.899c-0.609,0.083-1.265,0.124-1.961,0.124h-2.613L193.084,46.691L193.084,46.691z
					 M193.084,41.373h1.768c1.008,0,1.512-0.396,1.512-1.187c0-0.356-0.116-0.625-0.354-0.808c-0.186-0.145-0.438-0.217-0.76-0.217
					h-2.163L193.084,41.373L193.084,41.373z"/>
				<path fill="#FFFFFF" d="M216.917,46.691h-6.334l-2.599-3.341v3.341h-5.441V36.109h10.195c0.646,0,1.177,0.053,1.593,0.159
					c0.416,0.104,0.787,0.281,1.112,0.529c0.355,0.274,0.635,0.62,0.834,1.039s0.299,0.866,0.299,1.343
					c0,0.967-0.387,1.745-1.155,2.341c-0.466,0.36-0.979,0.592-1.543,0.688c-0.176,0.031-0.383,0.061-0.62,0.085L216.917,46.691z
					 M207.984,41.117h1.66c0.479,0,0.826-0.065,1.039-0.194c0.33-0.2,0.496-0.533,0.496-1c0-0.388-0.129-0.665-0.382-0.83
					c-0.171-0.107-0.446-0.161-0.827-0.161h-1.986V41.117L207.984,41.117z"/>
				<path fill="#FFFFFF" d="M229.585,46.691h-12.142V36.109h12.142v3.403h-6.698v0.969h6.698v2.535h-6.698v0.897h6.698V46.691z"/>
				<path fill="#FFFFFF" d="M230.701,46.381v-2.897c2.191,0.341,4.164,0.511,5.916,0.511c0.49,0,0.736-0.157,0.736-0.473
					c0-0.166-0.08-0.279-0.24-0.341c-0.067-0.026-0.24-0.039-0.521-0.039H235.7c-0.538,0-1.202-0.042-1.992-0.124
					c-0.667-0.072-1.214-0.206-1.642-0.399c-0.426-0.194-0.775-0.466-1.051-0.818c-0.408-0.521-0.611-1.197-0.611-2.029
					c0-0.688,0.142-1.293,0.423-1.818c0.28-0.525,0.682-0.927,1.196-1.206c1.08-0.574,2.729-0.861,4.947-0.861
					c1.865,0,3.713,0.178,5.543,0.527v3.103c-0.549-0.09-1.281-0.172-2.201-0.248c-0.92-0.078-1.606-0.116-2.063-0.116h-1.202
					c-0.418,0-0.688,0.044-0.813,0.132c-0.131,0.093-0.193,0.212-0.193,0.355c0,0.13,0.057,0.233,0.163,0.313s0.251,0.12,0.427,0.12
					h1.898c1.115,0,2.027,0.132,2.736,0.396c0.543,0.207,0.971,0.591,1.287,1.147c0.252,0.45,0.379,0.948,0.379,1.496
					c0,0.584-0.145,1.131-0.434,1.64c-0.29,0.509-0.693,0.924-1.21,1.244c-0.667,0.414-1.386,0.672-2.155,0.775
					c-0.744,0.098-1.584,0.146-2.52,0.146c-1.521,0-2.924-0.088-4.211-0.263C231.947,46.591,231.379,46.5,230.701,46.381z"/>
				<path fill="#FFFFFF" d="M243.818,46.381v-2.897c2.19,0.341,4.164,0.511,5.916,0.511c0.492,0,0.736-0.157,0.736-0.473
					c0-0.166-0.08-0.279-0.24-0.341c-0.066-0.026-0.239-0.039-0.521-0.039h-0.894c-0.537,0-1.2-0.042-1.99-0.124
					c-0.667-0.072-1.215-0.206-1.641-0.399c-0.428-0.194-0.776-0.466-1.052-0.818c-0.407-0.521-0.612-1.197-0.612-2.029
					c0-0.688,0.143-1.293,0.422-1.818c0.283-0.525,0.684-0.927,1.199-1.206c1.08-0.574,2.729-0.861,4.945-0.861
					c1.866,0,3.715,0.178,5.543,0.527v3.103c-0.548-0.09-1.281-0.172-2.201-0.248c-0.92-0.078-1.605-0.116-2.063-0.116h-1.202
					c-0.418,0-0.688,0.044-0.813,0.132c-0.129,0.093-0.192,0.212-0.192,0.355c0,0.13,0.055,0.233,0.161,0.313
					c0.109,0.08,0.252,0.12,0.429,0.12h1.897c1.117,0,2.028,0.132,2.736,0.396c0.543,0.207,0.973,0.591,1.287,1.147
					c0.253,0.45,0.38,0.948,0.38,1.496c0,0.584-0.146,1.131-0.435,1.64s-0.692,0.924-1.209,1.244
					c-0.668,0.414-1.385,0.672-2.155,0.775c-0.744,0.098-1.584,0.146-2.521,0.146c-1.521,0-2.922-0.088-4.209-0.263
					C245.064,46.591,244.497,46.5,243.818,46.381z"/>
			</g>
		</g>
	</g>
</g>
<g id="Calque_4">
	<path fill="#BDC7C3" d="M255.971,6.852c0.332,0,0.665,0,1,0C256.973,7.407,256.159,7.987,255.971,6.852z"/>
	<g>
		<path fill="#BDC7C3" d="M143.665,70.341c0.221-0.777,0.837-1.161,2-1C145.637,70.313,144.44,70.117,143.665,70.341z"/>
		<path fill="#E3E7E4" d="M145.664,69.341c2.667,0,5.333,0,7.998,0c0.029,0.974,1.225,0.776,2,1c0.666,0,1.334,0,2,0
			c0.027,0.974,1.225,0.776,2,1c0.334,0,0.666,0,1,0c-0.184,0.853,0.391,0.943,1,1c0.332,0,0.666,0,1,0
			c-0.184,0.853,0.389,0.943,1,1c1.002-0.003,1.189,0.812,2,1c-0.186,0.852,0.389,0.943,0.998,1c-0.184,0.853,0.391,0.943,1,1
			c-0.184,0.853,0.391,0.943,1,1c0.334,0,0.668,0,1,0c-0.184,0.852,0.391,0.943,1,1c0,0.333,0,0.667,0,1
			c-0.184,0.853,0.391,0.943,1,1c-0.184,0.854,0.391,0.943,1,1c-0.184,0.853,0.391,0.943,1,1c0,0.334,0,0.667,0,1
			c-0.184,0.853,0.391,0.943,1,1c0,0.334,0,0.666,0,1c-0.184,0.852,0.391,0.943,1,1c0,0.333,0,0.666,0,1
			c-0.184,0.852,0.391,0.943,1,1c0,0.333,0,0.666,0,1c-0.184,0.852,0.389,0.943,1,0.999c0,0.667,0,1.333,0,2
			c-0.184,0.853,0.389,0.943,1,1c0,0.666,0,1.333,0,2c-0.086,1.419-0.166,2.831,1,2.999c0,4.666,0,9.332,0,13.998
			c-1.172,0.162-0.844,1.823-1,3c0,0.333,0,0.667,0,1s0,0.666,0,1c-0.852-0.184-0.943,0.392-1,1c0,0.333,0,0.666,0,0.999
			c0,0.334,0,0.667,0,1c-0.852-0.184-0.943,0.393-1,1c0,0.334,0,0.667,0,1c-0.852-0.184-0.943,0.392-1,1c0,0.333,0,0.667,0,1
			c-0.852-0.184-0.943,0.392-1,1c0,0.333,0,0.666,0,1c-0.85-0.185-0.943,0.392-1,0.999c-0.85-0.184-0.943,0.393-1,1
			c0,0.334,0,0.667,0,1c-0.85-0.184-0.943,0.392-1,1c-0.85-0.184-0.943,0.392-1,1c-0.85-0.184-0.943,0.392-1,1
			c-0.85-0.184-0.943,0.392-1,1c-0.85-0.185-0.943,0.392-1,1c-0.85-0.185-0.943,0.392-1,0.999c-0.332,0-0.666,0-0.998,0
			c-0.852-0.184-0.943,0.393-1,1c-0.852-0.184-0.943,0.393-1,1c-0.334,0-0.668,0-1,0c-0.852-0.184-0.943,0.392-1,1
			c-0.334,0-0.666,0-1,0c-0.852-0.184-0.943,0.392-1,1c-0.666,0-1.334,0-2,0c-0.85-0.184-0.943,0.392-1,1c-0.666,0-1.334,0-2,0
			c-3.332,0-6.665,0-9.998,0c-0.667,0-1.333,0-2,0c0.184-0.851-0.39-0.941-1-1c-0.667,0-1.333,0-2,0c0.184-0.851-0.39-0.941-1-1
			c-0.333,0-0.667,0-1,0c0.184-0.851-0.39-0.941-1-1c-0.333,0-0.667,0-1,0c0.184-0.851-0.39-0.941-1-1c0.184-0.851-0.39-0.941-1-1
			c-0.333,0-0.667,0-1,0c-0.56-1.438-1.56-2.438-3-2.999c-0.24-1.427-1.647-1.687-2-3c0.184-0.851-0.39-0.941-1-1
			c0.184-0.85-0.39-0.941-1-1c0-0.333,0-0.666,0-0.999c0.184-0.851-0.39-0.941-1-1c-0.429-1.902-2.154-2.513-2-5
			c0.184-0.85-0.39-0.941-1-1c0-0.666,0-1.333,0-1.999c0.184-0.851-0.39-0.941-1-1c0-1,0-2,0-3c0.163-1.162-0.221-1.776-1-1.999
			c0-4.333,0-8.666,0-12.999c0.973-0.025,0.776-1.224,1-2c0-0.999,0-1.999,0-2.999c0.85,0.186,0.943-0.39,1-1
			c-0.224-1.891,1.126-2.206,1-3.999c0.851,0.186,0.943-0.391,1-1c0-0.334,0-0.667,0-1c0.851,0.186,0.943-0.391,1-1
			c-0.003-1.004,0.81-1.188,1-2c0.85,0.186,0.943-0.39,1-1c-0.003-1.003,0.81-1.188,1-2c0.851,0.187,0.943-0.389,1-1
			c0.85,0.186,0.943-0.39,1-1c0.85,0.186,0.943-0.39,1-1c0.851,0.186,0.943-0.39,1-1c0.851,0.186,0.943-0.39,1-1
			c0.85,0.186,0.943-0.39,1-1c1.003,0.003,1.19-0.81,2-1c0.851,0.186,0.943-0.39,1-1c0.333,0,0.667,0,1,0
			c0.851,0.186,0.943-0.39,1-1c0.667,0,1.333,0,2,0c0.85,0.186,0.943-0.39,1-1c0.667,0,1.333,0,2,0
			C144.44,70.117,145.637,70.313,145.664,69.341z M143.665,74.34c-0.333,0-0.667,0-1,0s-0.667,0-1,0c-0.85-0.184-0.943,0.392-1,1
			c-0.333,0-0.667,0-1,0c-0.851-0.184-0.943,0.392-1,1c-0.333,0-0.667,0-1,0c-0.85-0.184-0.943,0.392-1,1
			c-0.851-0.184-0.943,0.392-1,1c-0.333,0-0.667,0-1,0c-0.85-0.184-0.943,0.392-1,1c-0.85-0.184-0.943,0.392-1,1
			c-0.851-0.184-0.943,0.393-1,1c-0.851-0.184-0.943,0.393-1,1c0,0.334,0,0.667,0,1c-0.85-0.184-0.943,0.393-1,1
			c-0.851-0.184-0.943,0.393-1,1c-0.851-0.184-0.943,0.392-1,1c0,0.333,0,0.666,0,1c-0.333,0-0.667,0-1,0
			c-1.135,0.189-0.555,1.003,0,1c0,0.333,0,0.666,0,1c-0.972,0.027-0.776,1.225-1,1.999c-0.851-0.184-0.943,0.392-1,1
			c0,0.333,0,0.667,0,1c-0.973,0.027-0.776,1.226-1,2c0,0.333,0,0.666,0,0.999c0,0.334,0,0.667,0,1c-1.172,0.162-0.843,1.823-1,3
			c0,1,0,2,0,3c0,0.333,0,0.666,0,0.999c0,0.334,0,0.667,0,1c0,0.667,0,1.333,0,2c0,1.333,0,2.666,0,4
			c-0.163,1.162,0.221,1.778,1,1.999c0,0.334,0,0.667,0,1s0,0.667,0,1s0,0.667,0,1c-1.135,0.19-0.555,1.003,0,1c0.333,0,0.667,0,1,0
			c0,0.666,0,1.333,0,1.999c-1.135,0.19-0.555,1.004,0,1c0.333,0,0.667,0,1,0c0,0.334,0,0.667,0,1c-0.184,0.853,0.39,0.943,1,1
			c0,0.333,0,0.667,0,1c-0.184,0.853,0.39,0.943,1,1c-0.184,0.853,0.39,0.943,1,1c0.19,0.812,1.003,0.996,1,1.999
			c-0.184,0.853,0.39,0.943,1,1c-0.184,0.853,0.39,0.943,1,1c-0.184,0.853,0.39,0.943,1,1c-0.184,0.853,0.39,0.943,1,1
			c-0.184,0.853,0.39,0.943,1,1c-0.184,0.853,0.39,0.943,1,1c-0.184,0.852,0.39,0.943,1,1c0.333,0,0.667,0,1,0
			c-0.184,0.852,0.39,0.942,1,0.999c0.333,0,0.667,0,1,0c-0.184,0.853,0.39,0.943,1,1c0.333,0,0.667,0,1,0
			c-0.184,0.853,0.39,0.943,1,1c0.19,1.135,1.003,0.558,1,0c0.333,0,0.667,0,1,0c-0.184,0.853,0.39,0.943,1,1c0.333,0,0.667,0,1,0
			c0.136,1.646,6.862,1.646,6.998,0c1.162,0.163,1.778-0.221,2-1c0.334,0,0.666,0,1,0s0.666,0,1,0c0.851,0.186,0.942-0.39,1-1
			c0.334,0,0.666,0,1,0c0.851,0.187,0.942-0.39,1-1c0.334,0,0.666,0,1,0c0.851,0.187,0.942-0.39,1-0.999
			c0.851,0.186,0.942-0.391,1-1c0.332,0,0.666,0,1,0c0.851,0.186,0.942-0.391,1-1c0.851,0.186,0.94-0.39,0.998-1
			c0.853,0.186,0.942-0.39,1-1c0.853,0.186,0.942-0.39,1-1c0.853,0.186,0.942-0.39,1-1c0.853,0.187,0.942-0.39,1-1
			c0-0.333,0-0.666,0-0.999c0.853,0.186,0.942-0.391,1-1c0.853,0.186,0.942-0.391,1-1c0-0.333,0-0.667,0-1
			c0.853,0.186,0.942-0.39,1-1c0-0.333,0-0.666,0-1c0.851,0.186,0.942-0.39,1-1c0-0.333,0-0.666,0-1c0.851,0.187,0.942-0.39,1-0.999
			c0-0.667,0-1.334,0-2c0.973-0.025,0.774-1.224,1-2c0-1.333,0-2.666,0-3.999c1.651-0.76,1.651-8.238,0-8.999c0-1.333,0-2.666,0-4
			c0.185-0.85-0.392-0.941-1-1c0-0.999,0-1.999,0-2.999c0.185-0.851-0.392-0.941-1-1c0-0.333,0-0.667,0-1
			c0.185-0.851-0.392-0.941-1-1c0-0.333,0-0.667,0-0.999c0.185-0.852-0.392-0.941-1-1c0-0.334,0-0.667,0-1
			c0.185-0.851-0.392-0.941-1-1c-0.354-1.313-1.761-1.57-2-3c0.185-0.85-0.39-0.941-1-1c0.185-0.85-0.39-0.941-1-1
			c0.187-0.85-0.39-0.941-1-1c0.187-0.85-0.39-0.941-0.998-1c0.185-0.85-0.392-0.941-1-1c0.185-0.851-0.392-0.941-1-1
			c-0.334,0-0.668,0-1,0c0-0.333,0-0.667,0-1c-6.817-3.958-12.823-2.361-18.998,1c0-0.333,0-0.667,0-1s0-0.667,0-1
			c0.333,0,0.667,0,1,0c0.85,0.186,0.943-0.39,1-1c1.135-0.188,0.555-1.003,0-1c-0.333,0-0.667,0-1,0
			C143.814,73.156,143.721,73.73,143.665,74.34z"/>
		<path fill="#BDC7C3" d="M153.662,69.341c0.775,0.226,1.973,0.027,2,1C154.887,70.117,153.691,70.313,153.662,69.341z"/>
		<path fill="#BDC7C3" d="M140.665,71.34c0.057-0.608,0.149-1.184,1-1C141.608,70.951,141.515,71.524,140.665,71.34z"/>
		<path fill="#BDC7C3" d="M157.662,70.341c0.334,0,0.666,0,1,0s0.666,0,1,0c0,0.333,0,0.667,0,1
			C158.887,71.117,157.689,71.313,157.662,70.341z"/>
		<path fill="#BDC7C3" d="M137.665,72.34c0.057-0.608,0.15-1.184,1-1C138.608,71.951,138.516,72.524,137.665,72.34z"/>
		<path fill="#BDC7C3" d="M160.662,71.34c0.334,0,0.666,0,1,0c0,0.333,0,0.667,0,1C161.053,72.284,160.479,72.191,160.662,71.34z"/>
		<path fill="#57B692" d="M162.662,72.34c-0.004-0.555,0.809-1.135,1,0C163.328,72.34,162.994,72.34,162.662,72.34z"/>
		<path fill="#BDC7C3" d="M135.666,73.34c0.057-0.608,0.149-1.184,1-1C136.609,72.95,136.516,73.524,135.666,73.34z"/>
		<path fill="#BDC7C3" d="M162.662,72.34c0.332,0,0.666,0,1,0c0,0.333,0,0.667,0,1C163.051,73.284,162.479,73.191,162.662,72.34z"/>
		<path fill="#BDC7C3" d="M143.665,74.34c0.057-0.608,0.149-1.184,1-1c0,0.333,0,0.667,0,1
			C144.331,74.34,143.998,74.34,143.665,74.34z"/>
		<path fill="#939D98" d="M144.665,74.34c0-0.333,0-0.667,0-1c0.333,0,0.667,0,1,0c0,0.333,0,0.667,0,1
			C145.331,74.34,144.998,74.34,144.665,74.34z"/>
		<path fill="#BDC7C3" d="M145.664,74.34c0-0.333,0-0.667,0-1C146.219,73.337,146.799,74.15,145.664,74.34z"/>
		<path fill="#57B692" d="M165.662,74.34c0.057-0.608,0.148-1.184,0.998-1c0,0.333,0,0.667,0,1
			C166.328,74.34,165.994,74.34,165.662,74.34z"/>
		<path fill="#BDC7C3" d="M132.666,75.34c0.057-0.608,0.149-1.184,1-1C133.609,74.95,133.516,75.524,132.666,75.34z"/>
		<path fill="#BDC7C3" d="M140.665,75.34c0.057-0.608,0.149-1.184,1-1c0,0.333,0,0.667,0,1
			C141.332,75.34,140.998,75.34,140.665,75.34z"/>
		<path fill="#939D98" d="M141.665,75.34c0-0.333,0-0.667,0-1c0.333,0,0.667,0,1,0c0,0.333,0,0.667,0,1s0,0.667,0,1
			c-0.333,0-0.667,0-1,0C141.665,76.007,141.665,75.673,141.665,75.34z"/>
		<path fill="#687E75" d="M142.665,75.34c0-0.333,0-0.667,0-1c0.333,0,0.667,0,1,0c0,0.333,0,0.667,0,1
			C143.331,75.34,142.998,75.34,142.665,75.34z"/>
		<path fill="#939D98" d="M143.665,75.34c0-0.333,0-0.667,0-1c0.333,0,0.667,0,1,0c0,0.333,0,0.667,0,1
			C144.331,75.34,143.998,75.34,143.665,75.34z"/>
		<path fill="#BDC7C3" d="M144.665,75.34c0-0.333,0-0.667,0-1c0.333,0,0.667,0,1,0C145.607,74.95,145.515,75.524,144.665,75.34z"/>
		<path fill="#BDC7C3" d="M165.662,74.34c0.332,0,0.666,0,0.998,0c0,0.333,0,0.667,0,1C166.051,75.283,165.477,75.19,165.662,74.34z
			"/>
		<path fill="#BDC7C3" d="M131.666,76.34c0.057-0.608,0.149-1.184,1-1C132.609,75.95,132.517,76.524,131.666,76.34z"/>
		<path fill="#939D98" d="M138.665,76.34c0.057-0.608,0.149-1.184,1-1C139.849,76.19,139.275,76.283,138.665,76.34z"/>
		<path fill="#687E75" d="M139.665,75.34c0.333,0,0.667,0,1,0s0.667,0,1,0c0,0.333,0,0.667,0,1c-0.85-0.184-0.943,0.392-1,1
			c-0.333,0-0.667,0-1,0s-0.667,0-1,0c0-0.333,0-0.667,0-1C139.275,76.283,139.849,76.19,139.665,75.34z"/>
		<path fill="#BDC7C3" d="M142.665,76.34c0-0.333,0-0.667,0-1c0.333,0,0.667,0,1,0c0,0.333,0,0.667,0,1
			C143.331,76.34,142.998,76.34,142.665,76.34z"/>
		<path fill="#BDC7C3" d="M166.66,75.34c0.334,0,0.668,0,1,0c0,0.333,0,0.667,0,1C167.051,76.283,166.477,76.19,166.66,75.34z"/>
		<path fill="#86CCB2" d="M167.66,76.34c0-0.333,0-0.667,0-1c0.611,0.059,1.184,0.15,1,1C168.328,76.34,167.994,76.34,167.66,76.34z
			"/>
		<path fill="#86CCB2" d="M169.66,76.34C169.559,75.132,171.113,75.725,169.66,76.34L169.66,76.34z"/>
		<path fill="#BDC7C3" d="M130.666,77.34c0.057-0.608,0.149-1.184,1-1C131.609,76.95,131.517,77.523,130.666,77.34z"/>
		<path fill="#BDC7C3" d="M136.666,77.34c0.057-0.608,0.149-1.184,1-1c0,0.333,0,0.667,0,1
			C137.332,77.34,136.999,77.34,136.666,77.34z"/>
		<path fill="#939D98" d="M137.665,77.34c0-0.333,0-0.667,0-1c0.333,0,0.667,0,1,0c0,0.333,0,0.667,0,1
			C138.332,77.34,137.999,77.34,137.665,77.34z"/>
		<path fill="#BDC7C3" d="M140.665,77.34c0.057-0.608,0.149-1.184,1-1C141.849,77.19,141.275,77.283,140.665,77.34z"/>
		<path fill="#E3E7E4" d="M141.665,76.34c0.333,0,0.667,0,1,0c-0.184,0.853,0.39,0.943,1,1c-0.097,2.569-3.903,1.432-4,3.999
			c-0.851-0.184-0.943,0.393-1,1c-0.85-0.184-0.943,0.393-1,1c-0.333,0-0.667,0-1,0c0.184-0.85-0.39-0.941-1-1c0-0.333,0-0.666,0-1
			c0.851,0.186,0.943-0.39,1-1c0.85,0.187,0.943-0.389,1-1c0.851,0.186,0.943-0.39,1-1c0.333,0,0.667,0,1,0
			c0.851,0.186,0.943-0.39,1-1C141.275,77.283,141.849,77.19,141.665,76.34z"/>
		<path fill="#FFFFFF" d="M142.665,76.34c0.333,0,0.667,0,1,0c0,0.333,0,0.667,0,1C143.055,77.283,142.481,77.19,142.665,76.34z"/>
		<path fill="#BDC7C3" d="M167.66,76.34c0.334,0,0.668,0,1,0c0,0.333,0,0.667,0,1C168.051,77.283,167.477,77.19,167.66,76.34z"/>
		<path fill="#86CCB2" d="M168.66,77.34c0-0.333,0-0.667,0-1c0.334,0,0.668,0,1,0c0,0.333,0,0.667,0,1
			C169.328,77.34,168.994,77.34,168.66,77.34z"/>
		<path fill="#BDC7C3" d="M129.667,78.34c0.056-0.608,0.149-1.184,1-1C130.609,77.95,130.517,78.523,129.667,78.34z"/>
		<path fill="#939D98" d="M135.666,78.34c0.057-0.608,0.149-1.184,1-1C136.849,78.19,136.275,78.283,135.666,78.34z"/>
		<path fill="#687E75" d="M136.666,77.34c0.333,0,0.667,0,1,0s0.667,0,1,0c0,0.333,0,0.667,0,1c-0.85-0.184-0.943,0.392-1,1
			c-0.85-0.184-0.943,0.392-1,1c-0.851-0.184-0.943,0.393-1,1c0,0.334,0,0.667,0,1c-0.851-0.184-0.943,0.393-1,1
			c-0.85-0.184-0.943,0.393-1,1c0,0.334,0,0.666,0,1c-0.85-0.184-0.943,0.392-1,1c-0.851-0.184-0.943,0.392-1,1c0,0.666,0,1.333,0,2
			c-1.172,0.16-0.843,1.822-1,2.999c0,2.333,0,4.666,0,6.999c-0.086,1.419-0.165,2.832,1,3c-1.523,6.145-3.006,12.325-5,17.997
			c-0.333,0-0.667,0-1,0c0-0.333,0-0.666,0-1c0.163-1.162-0.221-1.776-1-1.999c0-0.667,0-1.333,0-2c0.184-0.851-0.39-0.941-1-1
			c0-0.333,0-0.666,0-1c0-0.666,0-1.333,0-1.999c-0.083-1.584,0.481-3.813-1-4c0-0.667,0-1.333,0-2c1.135-0.188,0.555-1.003,0-1
			c0-0.333,0-0.666,0-0.999c1.172-0.162,0.844-1.821,1-3c0-1,0-2,0-3c0-0.333,0-0.666,0-1c0.851,0.187,0.943-0.39,1-0.999
			c0-0.667,0-1.334,0-2c0.85,0.186,0.943-0.39,1-1c0-0.333,0-0.667,0-1c0.972-0.025,0.776-1.224,1-1.999c0-0.334,0-0.667,0-1
			c0.851,0.186,0.943-0.391,1-1c0-0.334,0-0.667,0-1c0.851,0.186,0.943-0.391,1-1c0.85,0.186,0.943-0.391,1-1
			c0.85,0.186,0.943-0.39,1-1c0-0.333,0-0.666,0-1c0.851,0.186,0.943-0.39,1-1c0.851,0.186,0.943-0.39,1-1
			c0.85,0.187,0.943-0.389,1-1c0.851,0.186,0.943-0.39,1-1c0.333,0,0.667,0,1,0C136.275,78.283,136.849,78.19,136.666,77.34z"/>
		<path fill="#939D98" d="M138.665,78.34c0-0.333,0-0.667,0-1c0.333,0,0.667,0,1,0c0,0.333,0,0.667,0,1
			C139.332,78.34,138.999,78.34,138.665,78.34z"/>
		<path fill="#BDC7C3" d="M139.665,78.34c0-0.333,0-0.667,0-1c0.333,0,0.667,0,1,0C140.608,77.95,140.516,78.523,139.665,78.34z"/>
		<path fill="#BDC7C3" d="M163.662,78.34c0-0.333,0-0.667,0-1c0.609,0.059,1.184,0.149,1,1
			C164.328,78.34,163.994,78.34,163.662,78.34z"/>
		<path fill="#86CCB2" d="M169.66,77.34c0.611,0.059,1.184,0.149,1,1C170.051,78.283,169.477,78.19,169.66,77.34z"/>
		<path fill="#BDC7C3" d="M128.667,79.339c0.057-0.608,0.149-1.184,1-1C129.61,78.95,129.517,79.523,128.667,79.339z"/>
		<path fill="#BDC7C3" d="M133.666,79.339c0.057-0.608,0.15-1.184,1-1C134.609,78.95,134.516,79.523,133.666,79.339z"/>
		<path fill="#939D98" d="M137.665,79.339c0.057-0.608,0.15-1.184,1-1C138.608,78.95,138.516,79.523,137.665,79.339z"/>
		<path fill="#939D98" d="M149.664,79.339c0.016-1.31,2.773-1.271,3,0C151.664,79.339,150.664,79.339,149.664,79.339z"/>
		<path fill="#86CCB2" d="M156.662,78.34C156.764,79.548,155.209,78.955,156.662,78.34L156.662,78.34z"/>
		<path fill="#BDC7C3" d="M163.662,78.34c0.002,0.557-0.811,1.137-1,0C162.994,78.34,163.328,78.34,163.662,78.34z"/>
		<path fill="#BDC7C3" d="M164.662,78.34c0.609,0.059,1.184,0.149,1,1C165.051,79.283,164.479,79.19,164.662,78.34z"/>
		<path fill="#86CCB2" d="M170.66,79.339c0-0.333,0-0.667,0-1c0.611,0.059,1.184,0.149,1,1
			C171.328,79.339,170.994,79.339,170.66,79.339z"/>
		<path fill="#BDC7C3" d="M127.667,80.339c0.057-0.607,0.149-1.183,1-1C128.61,79.95,128.517,80.523,127.667,80.339z"/>
		<path fill="#BDC7C3" d="M132.666,80.339c0.057-0.607,0.149-1.183,1-1C133.609,79.95,133.516,80.523,132.666,80.339z"/>
		<path fill="#939D98" d="M136.666,80.339c0.057-0.607,0.149-1.183,1-1C137.608,79.95,137.516,80.523,136.666,80.339z"/>
		<path fill="#939D98" d="M144.665,80.339c0.057-0.607,0.149-1.183,1-1C145.848,80.19,145.274,80.282,144.665,80.339z"/>
		<path fill="#687E75" d="M145.664,79.339c1.333,0,2.667,0,4,0c1,0,2,0,3,0c-0.186,0.853,0.389,0.943,0.998,1c0.334,0,0.668,0,1,0
			c-0.184,0.854,0.391,0.943,1,1c0.666,0,1.334,0,2,0c0.221,0.779,0.838,1.163,2,1c0.057,0.61,0.148,1.186,1,1
			c-0.184,0.853,0.391,0.943,1,1c0.609,0.059,1.184,0.149,1,1c-1.758,0.575-5.875-1.209-6,1c-0.666,0-1.334,0-2,0
			c-0.332,0-0.666,0-1,0c0.186-0.851-0.389-0.941-0.998-1c0-0.334,0-0.666,0-1c0.184-0.851-0.391-0.941-1-1
			c0.184-0.85-0.391-0.941-1-1c-1.667,0-3.333,0-5,0c-1.135,0.19-0.555,1.004,0,1c0,0.334,0,0.666,0,1c-0.184,0.853,0.39,0.943,1,1
			c-0.184,0.852,0.39,0.943,1,1c-0.184,0.852,0.39,0.943,1,1c0,0.333,0,0.666,0,1c-0.851-0.184-0.943,0.392-1,1
			c-0.333,0-0.667,0-1,0c-0.85,0.186-0.943-0.391-1-1c0.184-0.852-0.39-0.941-1-1c0.184-0.851-0.39-0.941-1-1
			c-0.81-0.188-0.997-1.004-2-1c0.184-0.851-0.39-0.941-1-1c0.184-0.851-0.39-0.941-1-1c-0.333,0-0.667,0-1,0c0-0.333,0-0.666,0-1
			c0.333,0,0.667,0,1,0c0.851,0.186,0.943-0.39,1-1c0.333,0,0.667,0,1,0c1.163,0.163,1.779-0.221,2-1c0.333,0,0.667,0,1,0
			C145.274,80.282,145.848,80.19,145.664,79.339z"/>
		<path fill="#86CCB2" d="M152.664,79.339c0.609,0.059,1.184,0.149,0.998,1C153.053,80.282,152.479,80.19,152.664,79.339z"/>
		<path fill="#86CCB2" d="M157.662,80.339c0.057-0.607,0.148-1.183,1-1c0,0.333,0,0.667,0,1
			C158.328,80.339,157.996,80.339,157.662,80.339z"/>
		<path fill="#BDC7C3" d="M158.662,80.339c0-0.333,0-0.666,0-1C159.217,79.336,159.797,80.149,158.662,80.339z"/>
		<path fill="#BDC7C3" d="M165.662,79.339c0.609,0.059,1.184,0.149,0.998,1C166.051,80.282,165.477,80.19,165.662,79.339z"/>
		<path fill="#BDC7C3" d="M170.66,79.339c0.334,0,0.668,0,1,0c0,0.333,0,0.667,0,1C171.051,80.282,170.477,80.19,170.66,79.339z"/>
		<path fill="#86CCB2" d="M172.66,80.339C172.559,79.131,174.113,79.725,172.66,80.339L172.66,80.339z"/>
		<path fill="#BDC7C3" d="M131.666,81.339c0.057-0.607,0.149-1.184,1-1C132.609,80.949,132.517,81.522,131.666,81.339z"/>
		<path fill="#939D98" d="M135.666,81.339c0.057-0.607,0.149-1.184,1-1C136.609,80.949,136.516,81.522,135.666,81.339z"/>
		<path fill="#939D98" d="M141.665,81.339c0.221-0.777,0.837-1.162,2-1C143.444,81.118,142.827,81.502,141.665,81.339z"/>
		<path fill="#939D98" d="M154.662,80.339c0.334,0,0.666,0,1,0c0,0.334,0,0.667,0,1C155.053,81.282,154.479,81.19,154.662,80.339z"
			/>
		<path fill="#86CCB2" d="M155.662,81.339c0-0.333,0-0.666,0-1c0.666,0,1.334,0,2,0c0,0.334,0,0.667,0,1
			C156.996,81.339,156.328,81.339,155.662,81.339z"/>
		<path fill="#BDC7C3" d="M166.66,80.339c0.611,0.059,1.186,0.15,1,1C167.051,81.282,166.477,81.19,166.66,80.339z"/>
		<path fill="#86CCB2" d="M171.66,80.339c0.334,0,0.666,0,1,0c0,0.334,0,0.667,0,1C172.051,81.282,171.477,81.19,171.66,80.339z"/>
		<path fill="#BDC7C3" d="M130.666,82.339c0.057-0.607,0.149-1.184,1-1C131.609,81.949,131.517,82.522,130.666,82.339z"/>
		<path fill="#BDC7C3" d="M138.665,82.339c0.057-0.607,0.149-1.184,1-1c0,0.334,0,0.667,0,1
			C139.332,82.339,138.999,82.339,138.665,82.339z"/>
		<path fill="#939D98" d="M139.665,82.339c0-0.333,0-0.666,0-1c0.333,0,0.667,0,1,0C140.608,81.949,140.516,82.522,139.665,82.339z"
			/>
		<path fill="#BDC7C3" d="M159.662,82.339C159.561,81.131,161.115,81.724,159.662,82.339L159.662,82.339z"/>
		<path fill="#BDC7C3" d="M167.66,81.339c0.611,0.059,1.184,0.15,1,1C168.051,82.282,167.477,82.189,167.66,81.339z"/>
		<path fill="#86CCB2" d="M172.66,81.339c0.609,0.059,1.184,0.15,1,1C173.051,82.282,172.477,82.189,172.66,81.339z"/>
		<path fill="#BDC7C3" d="M125.667,83.339c0.057-0.607,0.149-1.184,1-1C126.61,82.949,126.517,83.522,125.667,83.339z"/>
		<path fill="#BDC7C3" d="M134.666,83.339c0.057-0.607,0.149-1.184,1-1c0,0.334,0,0.667,0,1
			C135.332,83.339,134.999,83.339,134.666,83.339z"/>
		<path fill="#FFFFFF" d="M135.666,83.339c0-0.333,0-0.666,0-1c0.61,0.059,1.184,0.15,1,1
			C136.332,83.339,135.999,83.339,135.666,83.339z"/>
		<path fill="#939D98" d="M137.665,83.339c0.057-0.607,0.15-1.184,1-1c0,0.334,0,0.667,0,1
			C138.332,83.339,137.999,83.339,137.665,83.339z"/>
		<path fill="#939D98" d="M145.664,82.339c0,0.334,0,0.667,0,1C145.109,83.343,144.529,82.529,145.664,82.339z"/>
		<path fill="#BDC7C3" d="M145.664,83.339c0-0.333,0-0.666,0-1c1.667,0,3.333,0,5,0c0,0.334,0,0.667,0,1c-0.333,0-0.667,0-1,0
			c-0.667,0-1.333,0-2,0c-0.333,0-0.667,0-1,0S145.998,83.339,145.664,83.339z"/>
		<path fill="#939D98" d="M150.664,83.339c0-0.333,0-0.666,0-1c0.609,0.059,1.184,0.15,1,1
			C151.33,83.339,150.997,83.339,150.664,83.339z"/>
		<path fill="#BDC7C3" d="M168.66,82.339c0.611,0.059,1.184,0.15,1,1C169.051,83.282,168.477,83.189,168.66,82.339z"/>
		<path fill="#939D98" d="M129.667,84.339c0.056-0.607,0.149-1.184,1-1C130.609,83.949,130.517,84.522,129.667,84.339z"/>
		<path fill="#939D98" d="M133.666,84.339c0.057-0.607,0.15-1.184,1-1C134.85,84.189,134.276,84.282,133.666,84.339z"/>
		<path fill="#E3E7E4" d="M134.666,83.339c0.333,0,0.667,0,1,0s0.667,0,1,0c0,0.334,0,0.666,0,1c-0.851-0.184-0.943,0.393-1,1
			c0,0.333,0,0.666,0,1c-0.333,0-0.667,0-1,0c0.184-0.851-0.39-0.941-1-1c0-0.334,0-0.666,0-1
			C134.276,84.282,134.85,84.189,134.666,83.339z"/>
		<path fill="#939D98" d="M136.666,84.339c0-0.334,0-0.666,0-1c0.333,0,0.667,0,1,0c0,0.334,0,0.666,0,1
			C137.332,84.339,136.999,84.339,136.666,84.339z"/>
		<path fill="#687E75" d="M137.665,84.339c0-0.334,0-0.666,0-1c0.333,0,0.667,0,1,0c0,0.334,0,0.666,0,1
			C138.332,84.339,137.999,84.339,137.665,84.339z"/>
		<path fill="#BDC7C3" d="M138.665,84.339c0-0.334,0-0.666,0-1c0.333,0,0.667,0,1,0c0,0.334,0,0.666,0,1
			C139.332,84.339,138.999,84.339,138.665,84.339z"/>
		<path fill="#939D98" d="M139.665,84.339c0-0.334,0-0.666,0-1c0.61,0.059,1.184,0.149,1,1
			C140.332,84.339,139.999,84.339,139.665,84.339z"/>
		<path fill="#E3E7E4" d="M145.664,84.339c0-0.334,0-0.666,0-1c0.333,0,0.667,0,1,0c0,0.334,0,0.666,0,1
			C146.331,84.339,145.998,84.339,145.664,84.339z"/>
		<path fill="#FFFFFF" d="M146.664,84.339c0-0.334,0-0.666,0-1c0.333,0,0.667,0,1,0C147.848,84.189,147.274,84.282,146.664,84.339z"
			/>
		<path fill="#E3E7E4" d="M147.664,83.339c0.667,0,1.333,0,2,0c0.19,1.137,1.003,0.557,1,0c0.333,0,0.667,0,1,0c0,0.334,0,0.666,0,1
			c-0.186,0.853,0.389,0.943,1,1c-0.186,0.852,0.389,0.943,0.998,1c0.191,1.137,1.004,0.557,1,0c0.666,0,1.334,0,2,0
			c2.334,0,4.666,0,7,0c1.121,0.211,1.557,1.109,2,2c-0.186,0.852,0.389,0.943,0.998,1c0,0.332,0,0.666,0,0.999s0,0.667,0,1
			c-0.332,0-0.666,0-0.998,0c-0.334,0-0.668,0-1,0c-0.334,0-0.668,0-1,0c0.715-1.621-4.715-1.621-4,0c-0.334,0-0.666,0-1,0
			c-0.852-0.184-0.943,0.392-1,1c-0.334,0-0.666,0-1,0s-0.666,0-1,0s-0.666,0-1,0c-0.85-0.184-0.943,0.392-1,1
			c-0.332,0-0.666,0-0.998,0c-0.334,0-0.668,0-1,0c-0.852-0.185-0.943,0.392-1,1c-0.333,0-0.667,0-1,0c-0.667,0-1.333,0-2,0
			c0.409-2.407-1.826-2.174-1-4.999c0.333,0,0.667,0,1,0s0.667,0,1,0s0.667,0,1,0c0.163-1.163-0.221-1.777-1-2
			c0.184-0.851-0.39-0.941-1-1c0.184-0.851-0.39-0.941-1-1c0-0.334,0-0.666,0-1C147.274,84.282,147.848,84.189,147.664,83.339z"/>
		<path fill="#FFFFFF" d="M149.664,83.339c0.333,0,0.667,0,1,0C150.667,83.894,149.854,84.474,149.664,83.339z"/>
		<path fill="#939D98" d="M151.664,84.339c0-0.334,0-0.666,0-1c0.609,0.059,1.184,0.149,1,1
			C152.33,84.339,151.996,84.339,151.664,84.339z"/>
		<path fill="#939D98" d="M160.662,83.339c0.609,0.059,1.184,0.149,1,1C161.053,84.282,160.479,84.189,160.662,83.339z"/>
		<path fill="#86CCB2" d="M173.66,83.339c0.609,0.059,1.184,0.149,1,1C174.051,84.282,173.477,84.189,173.66,83.339z"/>
		<path fill="#939D98" d="M128.667,85.339c0.057-0.607,0.149-1.184,1-1C129.61,84.948,129.517,85.522,128.667,85.339z"/>
		<path fill="#BDC7C3" d="M135.666,85.339c0.057-0.607,0.149-1.184,1-1c0,0.334,0,0.666,0,1
			C136.332,85.339,135.999,85.339,135.666,85.339z"/>
		<path fill="#345A4A" d="M136.666,85.339c0-0.334,0-0.666,0-1c0.333,0,0.667,0,1,0s0.667,0,1,0c0,0.334,0,0.666,0,1
			c-0.184,0.852,0.39,0.943,1,1c0,0.333,0,0.666,0,1c0,0.333,0,0.666,0,1c-0.184,0.852,0.39,0.943,1,1c0,0.332,0,0.666,0,0.999
			s0,0.667,0,1c-0.184,0.853,0.39,0.943,1,1c0,0.333,0,0.667,0,1c-0.85-0.185-0.943,0.392-1,1c0,0.333,0,0.666,0,1
			c-0.851-0.185-0.943,0.392-1,0.999c-0.851-0.184-0.943,0.393-1,1c0,0.334,0,0.667,0,1c-0.85-0.184-0.943,0.392-1,1
			c0,0.333,0,0.667,0,1c-0.85-0.184-0.943,0.392-1,1c0,0.333,0,0.666,0,1c-0.851-0.185-0.943,0.392-1,1c0,0.333,0,0.666,0,0.999
			c0,0.334,0,0.667,0,1c-0.333,0-0.667,0-1,0c-0.85-0.184-0.943,0.393-1,1c0,0.667,0,1.333,0,2c-1.135,0.19-0.555,1.003,0,1
			c0,0.333,0,0.666,0,1c-1.171,0.161-0.843,1.822-1,2.999c0,0.667,0,1.333,0,2s0,1.333,0,2c-0.973,0.027-0.776,1.226-1,1.999
			c0,0.667,0,1.334,0,2c-0.851-0.184-0.943,0.392-1,1c0,0.333,0,0.667,0,1c-0.85-0.184-0.943,0.392-1,1c-0.333,0-0.667,0-1,0
			s-0.667,0-1,0c0-0.333,0-0.667,0-1c0.184-0.851-0.39-0.941-1-1c0-0.333,0-0.666,0-1c0-0.333,0-0.666,0-1
			c1.993-5.672,3.477-11.854,5-17.997c2.168,0.168,0.453-3.547,1-5c0-0.666,0-1.333,0-1.999c0-0.334,0-0.667,0-1
			c0-0.334,0-0.667,0-1c0.85,0.186,0.943-0.39,1-1c0-0.333,0-0.667,0-1s0-0.667,0-1c0.851,0.187,0.943-0.39,1-0.999
			c0-0.334,0-0.667,0-1c0-0.334,0-0.667,0-1c0.851,0.186,0.943-0.391,1-1C136.516,86.522,136.609,85.948,136.666,85.339z"/>
		<path fill="#939D98" d="M138.665,85.339c0-0.334,0-0.666,0-1c0.333,0,0.667,0,1,0c0,0.334,0,0.666,0,1
			C139.332,85.339,138.999,85.339,138.665,85.339z"/>
		<path fill="#BDC7C3" d="M139.665,85.339c0-0.334,0-0.666,0-1c0.333,0,0.667,0,1,0c-0.184,0.853,0.39,0.943,1,1
			c1.003-0.004,1.19,0.812,2,1c-0.184,0.852,0.39,0.943,1,1c-0.184,0.852,0.39,0.943,1,1c0.057,0.609,0.15,1.186,1,1
			c-0.826,2.825,1.409,2.592,1,4.999c0.667,0,1.333,0,2,0c0,0.333,0,0.666,0,1c-1.135,0.189-0.555,1.003,0,0.999
			c0,0.667,0,1.334,0,2c-0.333,0-0.667,0-1,0c-0.667,0-1.333,0-2,0c-0.85-0.184-0.943,0.392-1,1c-0.333,0-0.667,0-1,0s-0.667,0-1,0
			s-0.667,0-1,0c-0.85-0.184-0.943,0.392-1,1c-0.85-0.184-0.943,0.392-1,1c-0.851-0.184-0.943,0.392-1,1
			c-0.851-0.185-0.943,0.392-1,1c-0.85-0.185-0.943,0.392-1,0.999c-0.333,0-0.667,0-1,0c0-0.333,0-0.666,0-0.999
			c0-0.334,0-0.667,0-1c0.85,0.186,0.943-0.391,1-1c0-0.333,0-0.667,0-1s0-0.667,0-1c0.851,0.186,0.943-0.39,1-1
			c0-0.333,0-0.666,0-1c0.851,0.187,0.943-0.39,1-1c0.851,0.187,0.943-0.39,1-0.999c0-0.334,0-0.667,0-1c0.85,0.186,0.943-0.391,1-1
			c0-0.333,0-0.667,0-1s0-0.667,0-1c0.184-0.851-0.39-0.941-1-1c0-0.333,0-0.667,0-0.999c0-0.334,0-0.667,0-1
			c0.184-0.852-0.39-0.941-1-1c0-0.334,0-0.667,0-1C139.665,86.005,139.665,85.672,139.665,85.339z"/>
		<path fill="#939D98" d="M140.665,84.339c0.61,0.059,1.184,0.149,1,1C141.055,85.282,140.481,85.189,140.665,84.339z"/>
		<path fill="#939D98" d="M145.664,84.339c0.333,0,0.667,0,1,0c0,0.334,0,0.666,0,1C146.054,85.282,145.48,85.189,145.664,84.339z"
			/>
		<path fill="#BDC7C3" d="M151.664,84.339c0.332,0,0.666,0,1,0c0,0.334,0,0.666,0,1C152.053,85.282,151.479,85.189,151.664,84.339z"
			/>
		<path fill="#86CCB2" d="M174.66,85.339c0-0.334,0-0.666,0-1c0.609,0.059,1.184,0.149,1,1
			C175.326,85.339,174.994,85.339,174.66,85.339z"/>
		<path fill="#86CCB2" d="M177.66,85.339C177.24,84.919,178.314,85.993,177.66,85.339L177.66,85.339z"/>
		<path fill="#BDC7C3" d="M123.667,86.339c0.057-0.608,0.149-1.184,1-1C124.61,85.948,124.518,86.522,123.667,86.339z"/>
		<path fill="#BDC7C3" d="M127.667,86.339c0.057-0.608,0.149-1.184,1-1C128.61,85.948,128.517,86.522,127.667,86.339z"/>
		<path fill="#BDC7C3" d="M132.666,86.339c0.057-0.608,0.149-1.184,1-1c0,0.333,0,0.666,0,1
			C133.333,86.339,132.999,86.339,132.666,86.339z"/>
		<path fill="#FFFFFF" d="M133.666,86.339c0-0.334,0-0.667,0-1c0.61,0.059,1.184,0.149,1,1
			C134.333,86.339,133.999,86.339,133.666,86.339z"/>
		<path fill="#687E75" d="M135.666,86.339c0-0.334,0-0.667,0-1c0.333,0,0.667,0,1,0C136.609,85.948,136.516,86.522,135.666,86.339z"
			/>
		<path fill="#687E75" d="M138.665,85.339c0.333,0,0.667,0,1,0c0,0.333,0,0.666,0,1C139.055,86.282,138.481,86.188,138.665,85.339z"
			/>
		<path fill="#939D98" d="M146.664,85.339c0.61,0.059,1.184,0.149,1,1C147.054,86.282,146.48,86.188,146.664,85.339z"/>
		<path fill="#BDC7C3" d="M152.664,85.339c0.609,0.059,1.184,0.149,0.998,1C153.053,86.282,152.479,86.188,152.664,85.339z"/>
		<path fill="#939D98" d="M156.662,86.339c0.125-2.209,4.242-0.425,6-1c0.609,0.059,1.184,0.149,1,1
			C161.328,86.339,158.996,86.339,156.662,86.339z"/>
		<path fill="#BDC7C3" d="M174.66,85.339c0.334,0,0.666,0,1,0c0,0.333,0,0.666,0,1C175.051,86.282,174.477,86.188,174.66,85.339z"/>
		<path fill="#939D98" d="M131.666,87.339c0.057-0.608,0.149-1.184,1-1c0,0.333,0,0.666,0,1
			C132.333,87.339,132,87.339,131.666,87.339z"/>
		<path fill="#E3E7E4" d="M132.666,87.339c0-0.334,0-0.667,0-1c0.333,0,0.667,0,1,0s0.667,0,1,0c0,0.333,0,0.666,0,1
			c0,0.333,0,0.666,0,1c-0.333,0-0.667,0-1,0s-0.667,0-1,0C132.666,88.005,132.666,87.672,132.666,87.339z"/>
		<path fill="#939D98" d="M134.666,87.339c0-0.334,0-0.667,0-1c0.333,0,0.667,0,1,0C135.609,86.948,135.516,87.522,134.666,87.339z"
			/>
		<path fill="#939D98" d="M143.665,86.339c0.61,0.059,1.184,0.149,1,1C144.054,87.282,143.48,87.188,143.665,86.339z"/>
		<path fill="#939D98" d="M147.664,86.339c0.61,0.059,1.184,0.149,1,1C148.054,87.282,147.48,87.188,147.664,86.339z"/>
		<path fill="#BDC7C3" d="M153.662,86.339c0.334,0,0.668,0,1,0C154.666,86.894,153.854,87.474,153.662,86.339z"/>
		<path fill="#BDC7C3" d="M171.66,86.339c0.609,0.059,1.184,0.149,1,1C172.051,87.282,171.477,87.188,171.66,86.339z"/>
		<path fill="#86CCB2" d="M175.66,87.339c0-0.334,0-0.667,0-1c0.609,0.059,1.184,0.149,1,1
			C176.326,87.339,175.994,87.339,175.66,87.339z"/>
		<path fill="#BDC7C3" d="M122.667,88.339c0.057-0.608,0.149-1.184,1-1C123.61,87.948,123.518,88.522,122.667,88.339z"/>
		<path fill="#FFFFFF" d="M126.667,87.339c0,0.333,0,0.666,0,1C126.111,88.342,125.532,87.528,126.667,87.339z"/>
		<path fill="#BDC7C3" d="M126.667,88.339c0-0.334,0-0.667,0-1c0.333,0,0.667,0,1,0C127.61,87.948,127.517,88.522,126.667,88.339z"
			/>
		<path fill="#BDC7C3" d="M131.666,87.339c0.333,0,0.667,0,1,0c0,0.333,0,0.666,0,1c0,0.333,0,0.666,0,1c-0.333,0-0.667,0-1,0
			C131.666,88.672,131.666,88.005,131.666,87.339z"/>
		<path fill="#939D98" d="M139.665,88.339c0-0.334,0-0.667,0-1c0.61,0.059,1.184,0.148,1,1
			C140.332,88.339,139.999,88.339,139.665,88.339z"/>
		<path fill="#939D98" d="M144.665,87.339c0.61,0.059,1.184,0.148,1,1C145.054,88.282,144.48,88.188,144.665,87.339z"/>
		<path fill="#BDC7C3" d="M148.664,88.339c0-0.334,0-0.667,0-1c0.779,0.223,1.162,0.837,1,2c-0.333,0-0.667,0-1,0
			C148.664,89.005,148.664,88.672,148.664,88.339z"/>
		<path fill="#BDC7C3" d="M175.66,87.339c0.334,0,0.666,0,1,0c0,0.333,0,0.666,0,1C176.051,88.282,175.477,88.188,175.66,87.339z"/>
		<path fill="#FFFFFF" d="M132.666,89.339c0-0.334,0-0.667,0-1c0.333,0,0.667,0,1,0c0,0.333,0,0.666,0,1c0,0.332,0,0.666,0,0.999
			C132.815,90.522,132.723,89.948,132.666,89.339z"/>
		<path fill="#939D98" d="M133.666,89.339c0-0.334,0-0.667,0-1c0.333,0,0.667,0,1,0c0,0.333,0,0.666,0,1
			C134.333,89.339,133.999,89.339,133.666,89.339z"/>
		<path fill="#687E75" d="M139.665,88.339c0.333,0,0.667,0,1,0c0,0.333,0,0.666,0,1C140.055,89.282,139.481,89.188,139.665,88.339z"
			/>
		<path fill="#939D98" d="M147.664,89.339c0.057-0.608,0.149-1.184,1-1c0,0.333,0,0.666,0,1
			C148.331,89.339,147.997,89.339,147.664,89.339z"/>
		<path fill="#BDC7C3" d="M165.662,88.339c0.609,0.059,1.184,0.148,0.998,1C166.051,89.282,165.477,89.188,165.662,88.339z"/>
		<path fill="#BDC7C3" d="M172.66,88.339c0.609,0.059,1.184,0.148,1,1C173.051,89.282,172.477,89.188,172.66,88.339z"/>
		<path fill="#86CCB2" d="M176.66,89.339c0-0.334,0-0.667,0-1c0.609,0.059,1.184,0.148,1,1
			C177.326,89.339,176.992,89.339,176.66,89.339z"/>
		<path fill="#939D98" d="M126.667,89.339c-0.224,0.775-0.027,1.974-1,1.999C125.891,90.562,125.694,89.366,126.667,89.339z"/>
		<path fill="#939D98" d="M131.666,89.339c0,0.666,0,1.332,0,1.999c0,0.333,0,0.667,0,1c-0.333,0-0.667,0-1,0
			C130.823,91.161,130.494,89.499,131.666,89.339z"/>
		<path fill="#E3E7E4" d="M131.666,89.339c0.333,0,0.667,0,1,0c0.057,0.609,0.149,1.186,1,0.999c0,0.333,0,0.667,0,1
			c-0.333,0-0.667,0-1,0s-0.667,0-1,0C131.666,90.671,131.666,90.005,131.666,89.339z"/>
		<path fill="#687E75" d="M133.666,90.338c0-0.333,0-0.667,0-0.999c0.333,0,0.667,0,1,0
			C134.609,89.948,134.516,90.522,133.666,90.338z"/>
		<path fill="#BDC7C3" d="M176.66,89.339c0.332,0,0.666,0,1,0c0,0.332,0,0.666,0,0.999C177.049,90.282,176.477,90.188,176.66,89.339
			z"/>
		<path fill="#939D98" d="M140.665,91.338c0-0.333,0-0.667,0-1c0.61,0.059,1.184,0.149,1,1
			C141.332,91.338,140.998,91.338,140.665,91.338z"/>
		<path fill="#FFFFFF" d="M159.662,91.338c-0.715-1.621,4.715-1.621,4,0C162.328,91.338,160.996,91.338,159.662,91.338z"/>
		<path fill="#BDC7C3" d="M166.66,91.338c0-0.333,0-0.667,0-1c0.611,0.059,1.186,0.149,1,1
			C167.328,91.338,166.994,91.338,166.66,91.338z"/>
		<path fill="#BDC7C3" d="M173.66,90.338c0.609,0.059,1.184,0.149,1,1C174.051,91.281,173.477,91.188,173.66,90.338z"/>
		<path fill="#86CCB2" d="M177.66,90.338c0.779,0.224,1.162,0.837,1,2c-0.334,0-0.668,0-1,0
			C177.66,91.671,177.66,91.005,177.66,90.338z"/>
		<path fill="#BDC7C3" d="M124.667,92.338c0.057-0.608,0.149-1.184,1-1c0,0.333,0,0.667,0,1
			C125.333,92.338,125,92.338,124.667,92.338z"/>
		<path fill="#FFFFFF" d="M131.666,92.338c0-0.333,0-0.667,0-1c0.333,0,0.667,0,1,0c0,0.333,0,0.667,0,1s0,0.667,0,1
			c-0.333,0-0.667,0-1,0C131.666,93.005,131.666,92.671,131.666,92.338z"/>
		<path fill="#939D98" d="M132.666,92.338c0-0.333,0-0.667,0-1c0.333,0,0.667,0,1,0c0,0.333,0,0.667,0,1
			C133.333,92.338,132.999,92.338,132.666,92.338z"/>
		<path fill="#687E75" d="M140.665,91.338c0.333,0,0.667,0,1,0c0,0.333,0,0.667,0,1C141.055,92.281,140.481,92.188,140.665,91.338z"
			/>
		<path fill="#BDC7C3" d="M157.662,92.338c0.057-0.608,0.148-1.184,1-1c0,0.333,0,0.667,0,1
			C158.328,92.338,157.996,92.338,157.662,92.338z"/>
		<path fill="#939D98" d="M158.662,92.338c0-0.333,0-0.667,0-1c0.334,0,0.666,0,1,0c0,0.333,0,0.667,0,1
			C159.328,92.338,158.996,92.338,158.662,92.338z"/>
		<path fill="#687E75" d="M159.662,92.338c0-0.333,0-0.667,0-1c1.334,0,2.666,0,4,0C163.352,92.694,161.158,92.167,159.662,92.338z"
			/>
		<path fill="#345A4A" d="M163.662,91.338c0.332,0,0.666,0,1,0c0,0.667,0,1.333,0,2c-0.221,0.779-0.838,1.162-2,1
			c-0.334,0-0.668,0-1,0c-0.852-0.185-0.943,0.392-1,1c0,0.333,0,0.666,0,0.999c-0.666,0-1.334,0-2,0c-0.334,0-0.666,0-1,0
			s-0.666,0-1,0c1.666-1.984-0.09-1.271,0-3.999c0.334,0,0.666,0,1,0s0.666,0,1,0s0.666,0,1,0
			C161.158,92.167,163.352,92.694,163.662,91.338z"/>
		<path fill="#939D98" d="M164.662,91.338c0.332,0,0.666,0,1,0c-0.225,0.776-0.029,1.974-1,2
			C164.662,92.671,164.662,92.005,164.662,91.338z"/>
		<path fill="#BDC7C3" d="M120.667,93.338c0.057-0.608,0.149-1.184,1-1C121.611,92.948,121.518,93.521,120.667,93.338z"/>
		<path fill="#939D98" d="M124.667,93.338c0-0.333,0-0.667,0-1c0.333,0,0.667,0,1,0C125.61,92.948,125.517,93.521,124.667,93.338z"
			/>
		<path fill="#BDC7C3" d="M130.666,92.338c0.333,0,0.667,0,1,0c0,0.333,0,0.667,0,1c-0.184,0.853,0.39,0.943,1,1
			c0,0.333,0,0.666,0,1c-0.973,0.027-0.776,1.226-1,1.999c0,0.667,0,1.334,0,2c-0.333,0-0.667,0-1,0
			C130.666,97.004,130.666,94.671,130.666,92.338z"/>
		<path fill="#687E75" d="M132.666,93.338c0-0.333,0-0.667,0-1c0.333,0,0.667,0,1,0C133.609,92.948,133.516,93.521,132.666,93.338z"
			/>
		<path fill="#BDC7C3" d="M153.662,93.338c0.057-0.608,0.15-1.184,1-1c0,0.333,0,0.667,0,1
			C154.33,93.338,153.996,93.338,153.662,93.338z"/>
		<path fill="#939D98" d="M154.662,93.338c0-0.333,0-0.667,0-1c0.334,0,0.666,0,1,0C155.846,93.188,155.271,93.281,154.662,93.338z"
			/>
		<path fill="#687E75" d="M155.662,92.338c0.334,0,0.666,0,1,0c-0.09,2.729,1.666,2.015,0,3.999c-0.334,0-0.666,0-1,0
			c-0.162-1.171-1.822-0.843-2.998-0.999c0-0.334,0-0.667,0-1c0-0.334,0-0.667,0-1c0.332,0,0.666,0,0.998,0c0.334,0,0.668,0,1,0
			C155.271,93.281,155.846,93.188,155.662,92.338z"/>
		<path fill="#BDC7C3" d="M174.66,92.338c0.609,0.059,1.184,0.149,1,1C175.051,93.281,174.477,93.188,174.66,92.338z"/>
		<path fill="#BDC7C3" d="M177.66,92.338c0.332,0,0.666,0,1,0c0,0.333,0,0.667,0,1C178.049,93.281,177.477,93.188,177.66,92.338z"/>
		<path fill="#BDC7C3" d="M124.667,93.338c0,0.666,0,1.333,0,2c-0.333,0-0.667,0-1,0C123.891,94.562,123.694,93.365,124.667,93.338z
			"/>
		<path fill="#E3E7E4" d="M131.666,93.338c0.333,0,0.667,0,1,0c0,0.333,0,0.666,0,1C132.056,94.281,131.482,94.188,131.666,93.338z"
			/>
		<path fill="#687E75" d="M140.665,94.338c0.057-0.608,0.149-1.185,1-1C141.608,93.947,141.515,94.521,140.665,94.338z"/>
		<path fill="#BDC7C3" d="M150.664,94.338c0.057-0.608,0.148-1.185,1-1c0,0.333,0,0.666,0,1
			C151.33,94.338,150.997,94.338,150.664,94.338z"/>
		<path fill="#939D98" d="M151.664,94.338c0-0.334,0-0.667,0-1c0.332,0,0.666,0,1,0c0,0.333,0,0.666,0,1
			C152.33,94.338,151.996,94.338,151.664,94.338z"/>
		<path fill="#86CCB2" d="M178.66,93.338c0.779,0.223,1.162,0.837,1,2c-0.334,0-0.668,0-1,0
			C178.66,94.671,178.66,94.004,178.66,93.338z"/>
		<path fill="#939D98" d="M149.664,95.338c0-0.334,0-0.667,0-1c0.333,0,0.667,0,1,0c0,0.333,0,0.666,0,1
			C150.33,95.338,149.997,95.338,149.664,95.338z"/>
		<path fill="#687E75" d="M150.664,95.338c0-0.334,0-0.667,0-1c0.333,0,0.667,0,1,0c0,0.333,0,0.666,0,1
			C151.33,95.338,150.997,95.338,150.664,95.338z"/>
		<path fill="#345A4A" d="M151.664,95.338c0-0.334,0-0.667,0-1c0.332,0,0.666,0,1,0c0,0.333,0,0.666,0,1
			C152.33,95.338,151.996,95.338,151.664,95.338z"/>
		<path fill="#939D98" d="M160.662,95.338c0.057-0.608,0.148-1.185,1-1c0,0.333,0,0.666,0,1
			C161.328,95.338,160.996,95.338,160.662,95.338z"/>
		<path fill="#BDC7C3" d="M161.662,95.338c0-0.334,0-0.667,0-1c0.332,0,0.666,0,1,0c0,0.333,0,0.666,0,1
			C162.328,95.338,161.994,95.338,161.662,95.338z"/>
		<path fill="#939D98" d="M123.667,96.337c0-0.333,0-0.666,0-0.999c0.333,0,0.667,0,1,0
			C124.61,95.947,124.518,96.521,123.667,96.337z"/>
		<path fill="#939D98" d="M132.666,95.338c0,0.666,0,1.333,0,1.999c-0.333,0-0.667,0-1,0
			C131.89,96.562,131.693,95.365,132.666,95.338z"/>
		<path fill="#939D98" d="M139.665,96.337c0.057-0.607,0.149-1.184,1-0.999C140.608,95.947,140.516,96.521,139.665,96.337z"/>
		<path fill="#939D98" d="M149.664,95.338c0,0.333,0,0.666,0,0.999C149.108,96.341,148.529,95.527,149.664,95.338z"/>
		<path fill="#687E75" d="M149.664,96.337c0-0.333,0-0.666,0-0.999c0.333,0,0.667,0,1,0c0,0.333,0,0.666,0,0.999
			C150.33,96.337,149.997,96.337,149.664,96.337z"/>
		<path fill="#939D98" d="M150.664,96.337c0-0.333,0-0.666,0-0.999c0.333,0,0.667,0,1,0c0.332,0,0.666,0,1,0
			c0,0.333,0,0.666,0,0.999C151.996,96.337,151.33,96.337,150.664,96.337z"/>
		<path fill="#BDC7C3" d="M152.664,96.337c0-0.333,0-0.666,0-0.999c1.176,0.156,2.836-0.172,2.998,0.999c-0.666,0-1.334,0-2,0
			C153.33,96.337,152.996,96.337,152.664,96.337z"/>
		<path fill="#BDC7C3" d="M160.662,96.337c0-0.333,0-0.666,0-0.999c0.334,0,0.666,0,1,0c0,0.333,0,0.666,0,0.999
			c0.184,0.853-0.391,0.943-1,1C160.662,97.004,160.662,96.671,160.662,96.337z"/>
		<path fill="#FFFFFF" d="M161.662,96.337c0-0.333,0-0.666,0-0.999c0.332,0,0.666,0,1,0
			C162.846,96.188,162.271,96.28,161.662,96.337z"/>
		<path fill="#E3E7E4" d="M162.662,95.338c0.332,0,0.666,0,1,0c0,0.333,0,0.666,0,0.999c0,0.334,0,0.667,0,1
			c-0.184,0.853,0.389,0.943,1,1c0,0.334,0,0.667,0,1c-0.184,0.853,0.389,0.943,1,1c0,0.667,0,1.333,0,2c-0.334,0-0.668,0-1,0
			c-0.334,0-0.668,0-1,0c-0.334,0-0.668,0-1,0c-0.334,0-0.668,0-1,0c-0.334,0-0.666,0-1,0c-0.184,0.852,0.391,0.943,1,1
			c-0.184,0.852,0.389,0.942,1,0.999c0.332,0,0.666,0,1,0c0,0.334,0,0.667,0,1c0,1.333,0,2.667,0,4c0,0.333,0,0.666,0,1
			c-0.334,0-0.668,0-1,0c-0.668,0-1.334,0-2,0c-0.027-0.973-1.225-0.774-2-1c-0.334,0-0.666,0-1,0c0.184-0.851-0.391-0.941-1-1
			c0.162-1.162-0.221-1.777-1-2c0-0.333,0-0.666,0-1c0.184-0.851-0.391-0.941-1-1c0.184-0.85-0.389-0.94-1-0.999
			c0.186-0.851-0.389-0.941-0.998-1c-0.891-0.441-1.789-0.878-2-2c1.135-0.188,0.555-1.003,0-1c0.184-0.851-0.39-0.941-1-1
			c0-0.666,0-1.333,0-2c0.333,0,0.667,0,1,0c0.667,0,1.333,0,2,0c0.189,1.138,1.002,0.558,0.998,0c0.666,0,1.334,0,2,0
			c0.334,0,0.666,0,1,0c0,0.334,0,0.667,0,1c0,0.334,0,0.667,0,1c0.85,0.186,0.943-0.39,1-1c0.334,0,0.666,0,1,0
			c0.666,0,1.334,0,2,0c0.609-0.057,1.184-0.147,1-1C162.271,96.28,162.846,96.188,162.662,95.338z"/>
		<path fill="#BDC7C3" d="M163.662,96.337c0-0.333,0-0.666,0-0.999C164.217,95.334,164.797,96.147,163.662,96.337z"/>
		<path fill="#BDC7C3" d="M178.66,95.338c0.332,0,0.666,0,1,0c0,0.666,0,1.333,0,1.999c0,0.334,0,0.667,0,1
			C178.494,98.169,178.574,96.757,178.66,95.338z"/>
		<path fill="#BDC7C3" d="M120.667,96.337c-0.224,0.776-0.027,1.975-1,2C119.892,97.562,119.695,96.365,120.667,96.337z"/>
		<path fill="#687E75" d="M138.665,97.337c0.057-0.607,0.149-1.184,1-1C139.608,96.947,139.516,97.521,138.665,97.337z"/>
		<path fill="#FFFFFF" d="M152.664,96.337c0.332,0,0.666,0,0.998,0C153.666,96.893,152.854,97.473,152.664,96.337z"/>
		<path fill="#BDC7C3" d="M156.662,97.337c0-0.333,0-0.666,0-1c0.334,0,0.666,0,1,0c0,0.334,0,0.667,0,1
			C157.328,97.337,156.996,97.337,156.662,97.337z"/>
		<path fill="#939D98" d="M157.662,97.337c0-0.333,0-0.666,0-1c0.334,0,0.666,0,1,0c0,0.334,0,0.667,0,1
			C158.328,97.337,157.996,97.337,157.662,97.337z"/>
		<path fill="#687E75" d="M158.662,97.337c0-0.333,0-0.666,0-1c0.666,0,1.334,0,2,0c0,0.334,0,0.667,0,1
			C159.996,97.337,159.328,97.337,158.662,97.337z"/>
		<path fill="#BDC7C3" d="M175.66,96.337c0.609,0.059,1.184,0.15,1,1C176.051,97.28,175.477,97.188,175.66,96.337z"/>
		<path fill="#BDC7C3" d="M123.667,97.337c0,1,0,2,0,3c-0.333,0-0.667,0-1,0C122.824,99.16,122.495,97.499,123.667,97.337z"/>
		<path fill="#687E75" d="M131.666,97.337c0.333,0,0.667,0,1,0c-0.547,1.453,1.168,5.168-1,5c0-1,0-2,0-3
			C131.666,98.671,131.666,98.004,131.666,97.337z"/>
		<path fill="#FFFFFF" d="M156.662,97.337c0.334,0,0.666,0,1,0c-0.057,0.61-0.15,1.186-1,1
			C156.662,98.004,156.662,97.671,156.662,97.337z"/>
		<path fill="#BDC7C3" d="M163.662,97.337c0.609,0.059,1.184,0.149,1,1C164.051,98.28,163.479,98.188,163.662,97.337z"/>
		<path fill="#687E75" d="M137.665,99.337c0.057-0.608,0.15-1.184,1-1C138.608,98.947,138.516,99.521,137.665,99.337z"/>
		<path fill="#939D98" d="M145.664,99.337c0.057-0.608,0.15-1.184,1-1c0,0.334,0,0.667,0,1
			C146.331,99.337,145.998,99.337,145.664,99.337z"/>
		<path fill="#687E75" d="M146.664,99.337c0-0.333,0-0.666,0-1c0.667,0,1.333,0,2,0C148.636,99.31,147.44,99.113,146.664,99.337z"/>
		<path fill="#345A4A" d="M148.664,98.337c0.333,0,0.667,0,1,0c0,0.334,0,0.667,0,1s0,0.667,0,1s0,0.667,0,1
			c-0.85-0.184-0.943,0.392-1,1c0,0.333,0,0.666,0,1c-0.333,0-0.667,0-1,0c-2.502,0.169-3.13-1.536-4-3c0.333,0,0.667,0,1,0
			c0.85,0.186,0.943-0.39,1-1c0.333,0,0.667,0,1,0C147.44,99.113,148.636,99.31,148.664,98.337z"/>
		<path fill="#939D98" d="M149.664,99.337c0-0.333,0-0.666,0-1c0.61,0.059,1.184,0.149,1,1
			C150.33,99.337,149.997,99.337,149.664,99.337z"/>
		<path fill="#939D98" d="M130.666,99.337c0.333,0,0.667,0,1,0c0,1,0,2,0,3C130.501,102.169,130.58,100.756,130.666,99.337z"/>
		<path fill="#939D98" d="M141.665,100.337c0.057-0.608,0.15-1.184,1-1C142.849,100.188,142.275,100.28,141.665,100.337z"/>
		<path fill="#687E75" d="M142.665,99.337c0.333,0,0.667,0,1,0c0,0.333,0,0.667,0,1c0.87,1.464,1.497,3.169,4,3
			c-0.19,0.812-1.003,0.996-1,1.999c-0.333,0-0.667,0-1,0s-0.667,0-1,0c-0.19-1.135-1.003-0.555-1,0c-0.333,0-0.667,0-1,0
			c-0.086,1.419-0.165,2.832,1,3c0,1.333,0,2.666,0,3.999c-0.184,0.853,0.39,0.943,1,1c0,0.334,0,0.667,0,1s0,0.667,0,1
			c-0.184,0.853,0.39,0.943,1,1c0,0.333,0,0.666,0,1c0,0.333,0,0.666,0,1c-0.184,0.852,0.39,0.943,1,0.999c0,0.334,0,0.667,0,1
			c-0.184,0.853,0.39,0.943,1,1c0,0.334,0,0.667,0,1c-0.184,0.853,0.39,0.943,1,1c0,0.333,0,0.667,0,1s0,0.666,0,1
			c-5.294,1.372-10.067,3.267-13.999,5.999c-0.333,0-0.667,0-1,0c0.184-0.851-0.39-0.941-1-1c0-0.333,0-0.667,0-1
			c0.85,0.186,0.943-0.39,1-1c0.81-0.188,0.997-1.003,2-1c0.851,0.187,0.943-0.39,1-0.999c0.333,0,0.667,0,1,0
			c0.851,0.186,0.943-0.391,1-1c0.851,0.186,0.943-0.391,1-1c1.258-0.247,1.008-1.986,0-2c0-0.333,0-0.666,0-1
			c3.943-2.288,1.967-15.046,1-18.997c1.135-0.188,0.555-1.003,0-1c0.057-0.608,0.149-1.184,1-1
			C142.275,100.28,142.849,100.188,142.665,99.337z"/>
		<path fill="#939D98" d="M143.665,100.337c0-0.333,0-0.667,0-1c0.333,0,0.667,0,1,0c0,0.333,0,0.667,0,1
			C144.331,100.337,143.998,100.337,143.665,100.337z"/>
		<path fill="#687E75" d="M144.665,100.337c0-0.333,0-0.667,0-1c0.333,0,0.667,0,1,0
			C145.607,99.947,145.515,100.521,144.665,100.337z"/>
		<path fill="#BDC7C3" d="M149.664,100.337c0-0.333,0-0.667,0-1c0.333,0,0.667,0,1,0c0,0.333,0,0.667,0,1
			C150.33,100.337,149.997,100.337,149.664,100.337z"/>
		<path fill="#FFFFFF" d="M150.664,100.337c0-0.333,0-0.667,0-1C151.219,99.334,151.799,100.146,150.664,100.337z"/>
		<path fill="#BDC7C3" d="M164.662,99.337c0.609,0.059,1.184,0.149,1,1C165.051,100.28,164.479,100.188,164.662,99.337z"/>
		<path fill="#939D98" d="M122.667,100.337c0.333,0,0.667,0,1,0c-0.156,1.179,0.172,2.838-1,3
			C122.667,102.337,122.667,101.337,122.667,100.337z"/>
		<path fill="#687E75" d="M136.666,101.337c0.057-0.608,0.149-1.184,1-1c0,0.333,0,0.667,0,1
			C137.332,101.337,136.999,101.337,136.666,101.337z"/>
		<path fill="#939D98" d="M149.664,101.337c0-0.333,0-0.667,0-1c0.333,0,0.667,0,1,0c0.211,1.122,1.109,1.559,2,2
			c-0.186,0.852,0.389,0.943,0.998,1c-0.184,0.852,0.391,0.942,1,0.999c-0.184,0.853,0.391,0.943,1,1c0,0.334,0,0.667,0,1
			c-0.162,1.163,0.221,1.779,1,2c-0.184,0.853,0.391,0.943,1,1c0.334,0,0.666,0,1,0c0.027,0.974,1.225,0.775,2,1
			c0.666,0,1.332,0,2,0c-0.184,0.852,0.389,0.943,1,1c0,0.333,0,0.666,0,0.999c-1.164-0.162-1.779,0.223-2,1c-1.334,0-2.666,0-4,0
			c-0.162-1.172-1.822-0.843-3-1c-0.332,0-0.666,0-1,0c0.186-0.85-0.389-0.941-0.998-0.999c0.184-0.851-0.391-0.941-1-1
			c-0.891-0.441-1.789-0.878-2-2c-0.443-0.89-0.878-1.788-2-2c0.184-0.851-0.39-0.941-1-1c-0.003-1.003,0.81-1.188,1-1.999
			c0.333,0,0.667,0,1,0c0-0.334,0-0.667,0-1C149.514,102.521,149.607,101.946,149.664,101.337z"/>
		<path fill="#BDC7C3" d="M165.662,100.337c0.777,0.223,1.162,0.837,0.998,2c-0.332,0-0.666,0-0.998,0
			C165.662,101.67,165.662,101.004,165.662,100.337z"/>
		<path fill="#939D98" d="M136.666,102.337c0-0.334,0-0.667,0-1c0.333,0,0.667,0,1,0
			C137.608,101.946,137.516,102.521,136.666,102.337z"/>
		<path fill="#687E75" d="M139.665,102.337c0.057-0.608,0.149-1.184,1-1c0,0.333,0,0.666,0,1
			C140.332,102.337,139.999,102.337,139.665,102.337z"/>
		<path fill="#345A4A" d="M140.665,102.337c0-0.334,0-0.667,0-1C141.22,101.334,141.8,102.146,140.665,102.337z"/>
		<path fill="#687E75" d="M148.664,102.337c0.057-0.608,0.149-1.184,1-1C149.607,101.946,149.514,102.521,148.664,102.337z"/>
		<path fill="#BDC7C3" d="M176.66,101.337c1.652,0.761,1.652,8.239,0,8.999C176.66,107.336,176.66,104.336,176.66,101.337z"/>
		<path fill="#687E75" d="M135.666,103.337c0.057-0.608,0.149-1.185,1-1c0,0.333,0,0.666,0,1
			C136.332,103.337,135.999,103.337,135.666,103.337z"/>
		<path fill="#687E75" d="M138.665,103.337c0.057-0.608,0.149-1.185,1-1C139.849,103.187,139.275,103.28,138.665,103.337z"/>
		<path fill="#345A4A" d="M139.665,102.337c0.333,0,0.667,0,1,0c0.967,3.951,2.943,16.709-1,18.997c-0.333,0-0.667,0-1,0
			c0.184-0.851-0.39-0.941-1-1c0.184-0.85-0.39-0.941-1-1c0-0.333,0-0.666,0-0.999c0-0.667,0-1.334,0-2c0.086-1.419,0.165-2.832-1-3
			c0-0.666,0-1.333,0-1.999c0-0.667,0-1.334,0-2c0-1,0-2,0-3c0.851,0.186,0.943-0.39,1-1c0.85,0.187,0.943-0.39,1-1
			c0.851,0.187,0.943-0.39,1-0.999C139.275,103.28,139.849,103.187,139.665,102.337z"/>
		<path fill="#BDC7C3" d="M152.664,102.337c0.609,0.059,1.184,0.149,0.998,1C153.053,103.28,152.479,103.187,152.664,102.337z"/>
		<path fill="#BDC7C3" d="M161.662,102.337c0,0.333,0,0.666,0,1c-0.609-0.057-1.184-0.148-1-1
			C160.996,102.337,161.328,102.337,161.662,102.337z"/>
		<path fill="#687E75" d="M161.662,103.337c0-0.334,0-0.667,0-1c0.332,0,0.666,0,1,0c0,0.333,0,0.666,0,1
			C162.328,103.337,161.994,103.337,161.662,103.337z"/>
		<path fill="#345A4A" d="M162.662,103.337c0-0.334,0-0.667,0-1c0.332,0,0.666,0,1,0c0,0.333,0,0.666,0,1
			C163.328,103.337,162.994,103.337,162.662,103.337z"/>
		<path fill="#687E75" d="M163.662,103.337c0-0.334,0-0.667,0-1c0.332,0,0.666,0,1,0c0,0.333,0,0.666,0,1
			C164.328,103.337,163.994,103.337,163.662,103.337z"/>
		<path fill="#345A4A" d="M164.662,103.337c0-0.334,0-0.667,0-1c0.332,0,0.666,0,1,0c0,0.333,0,0.666,0,1
			C165.328,103.337,164.994,103.337,164.662,103.337z"/>
		<path fill="#687E75" d="M165.662,103.337c0-0.334,0-0.667,0-1c0.332,0,0.666,0,0.998,0
			C166.604,102.946,166.512,103.521,165.662,103.337z"/>
		<path fill="#939D98" d="M135.666,104.336c0-0.333,0-0.666,0-0.999c0.333,0,0.667,0,1,0c0,0.333,0,0.666,0,0.999
			C136.332,104.336,135.999,104.336,135.666,104.336z"/>
		<path fill="#687E75" d="M137.665,104.336c0.057-0.607,0.15-1.184,1-0.999C138.608,103.946,138.516,104.521,137.665,104.336z"/>
		<path fill="#BDC7C3" d="M153.662,103.337c0.611,0.059,1.184,0.149,1,0.999C154.053,104.279,153.479,104.187,153.662,103.337z"/>
		<path fill="#BDC7C3" d="M161.662,103.337c0.332,0,0.666,0,1,0c0,0.333,0,0.666,0,0.999
			C162.051,104.279,161.479,104.187,161.662,103.337z"/>
		<path fill="#939D98" d="M162.662,104.336c0-0.333,0-0.666,0-0.999c0.332,0,0.666,0,1,0c0,0.333,0,0.666,0,0.999
			C163.328,104.336,162.994,104.336,162.662,104.336z"/>
		<path fill="#345A4A" d="M163.662,104.336c0-0.333,0-0.666,0-0.999c0.332,0,0.666,0,1,0c0,0.333,0,0.666,0,0.999
			C164.328,104.336,163.994,104.336,163.662,104.336z"/>
		<path fill="#687E75" d="M164.662,104.336c0-0.333,0-0.666,0-0.999c0.332,0,0.666,0,1,0
			C165.605,103.946,165.512,104.521,164.662,104.336z"/>
		<path fill="#939D98" d="M122.667,105.336c0-0.333,0-0.666,0-1C123.222,104.333,123.802,105.146,122.667,105.336z"/>
		<path fill="#BDC7C3" d="M135.666,105.336c0-0.333,0-0.666,0-1c0.333,0,0.667,0,1,0c0,0.334,0,0.667,0,1
			C136.332,105.336,135.999,105.336,135.666,105.336z"/>
		<path fill="#687E75" d="M136.666,105.336c0-0.333,0-0.666,0-1c0.333,0,0.667,0,1,0
			C137.608,104.946,137.516,105.521,136.666,105.336z"/>
		<path fill="#939D98" d="M143.665,105.336c-0.003-0.555,0.81-1.135,1,0C144.331,105.336,143.998,105.336,143.665,105.336z"/>
		<path fill="#BDC7C3" d="M154.662,104.336c0.609,0.059,1.184,0.149,1,1C155.053,105.279,154.479,105.187,154.662,104.336z"/>
		<path fill="#939D98" d="M133.666,106.336c0.057-0.607,0.15-1.184,1-1c0,0.334,0,0.667,0,1
			C134.333,106.336,133.999,106.336,133.666,106.336z"/>
		<path fill="#687E75" d="M134.666,106.336c0-0.333,0-0.666,0-1c0.333,0,0.667,0,1,0c0,0.334,0,0.667,0,1c0,1,0,2,0,3
			c-0.333,0-0.667,0-1,0C134.666,108.336,134.666,107.336,134.666,106.336z"/>
		<path fill="#939D98" d="M135.666,106.336c0-0.333,0-0.666,0-1c0.333,0,0.667,0,1,0
			C136.609,105.946,136.516,106.52,135.666,106.336z"/>
		<path fill="#939D98" d="M143.665,105.336c0,1,0,2,0,3c-1.165-0.168-1.086-1.581-1-3
			C142.998,105.336,143.331,105.336,143.665,105.336z"/>
		<path fill="#E3E7E4" d="M143.665,105.336c0.333,0,0.667,0,1,0c0.19,1.138,1.003,0.558,1,0c0.333,0,0.667,0,1,0
			c-0.184,0.853,0.39,0.943,1,1c0,0.667,0,1.333,0,2c-1.135,0.19-0.555,1.003,0,1c0.333,0,0.667,0,1,0c0,0.333,0,0.666,0,1
			c0,0.333,0,0.666,0,1c-1.135,0.189-0.555,1.003,0,0.999c0.333,0,0.667,0,1,0c-0.184,0.853,0.39,0.943,1,1
			c-0.184,0.853,0.39,0.943,1,1c-0.185,0.853,0.39,0.943,1,1c-0.187,0.853,0.39,0.943,0.998,1c-0.185,0.853,0.392,0.943,1,1
			c-0.086,1.419-0.164,2.831,1,2.999c0,0.667,0,1.334,0,2c0,0.333,0,0.667,0,1c-1.136,0.19-0.556,1.003,0,1c0,0.333,0,0.666,0,1
			c-1,0-2,0-2.998,0c-0.162-1.172-1.824-0.844-3-1c-0.333,0-0.667,0-1,0c0-0.333,0-0.667,0-1c0.184-0.851-0.39-0.941-1-1
			c0-0.333,0-0.666,0-1c0.184-0.851-0.39-0.941-1-1c0-0.333,0-0.666,0-1c0-0.333,0-0.666,0-0.999c0.184-0.851-0.39-0.941-1-1
			c0-0.334,0-0.667,0-1s0-0.667,0-1c0.184-0.851-0.39-0.941-1-1c0-0.333,0-0.666,0-1c0-0.333,0-0.666,0-1c0-0.333,0-0.666,0-0.999
			c1.257-0.248,1.008-1.986,0-2c0.184-0.851-0.39-0.941-1-1C143.665,107.336,143.665,106.336,143.665,105.336z"/>
		<path fill="#FFFFFF" d="M144.665,105.336c0.333,0,0.667,0,1,0C145.667,105.892,144.854,106.472,144.665,105.336z"/>
		<path fill="#BDC7C3" d="M146.664,105.336c0.61,0.059,1.184,0.149,1,1C147.054,106.279,146.48,106.187,146.664,105.336z"/>
		<path fill="#BDC7C3" d="M163.662,105.336c1.621-0.715,1.621,4.715,0,4C163.662,108.003,163.662,106.669,163.662,105.336z"/>
		<path fill="#687E75" d="M147.664,106.336c1.122,0.212,1.557,1.11,2,2c-0.333,0-0.667,0-1,0s-0.667,0-1,0
			C147.664,107.669,147.664,107.003,147.664,106.336z"/>
		<path fill="#BDC7C3" d="M155.662,106.336c0.779,0.223,1.162,0.838,1,2C155.883,108.115,155.5,107.499,155.662,106.336z"/>
		<path fill="#939D98" d="M122.667,107.336c1.481,0.188,0.917,2.416,1,4c-0.333,0-0.667,0-1,0
			C122.667,110.002,122.667,108.669,122.667,107.336z"/>
		<path fill="#687E75" d="M133.666,108.336c0,0.333,0,0.666,0,1C133.111,109.339,132.531,108.526,133.666,108.336z"/>
		<path fill="#BDC7C3" d="M143.665,108.336c0.61,0.059,1.184,0.149,1,1c0,0.666,0,1.333,0,2c0,0.333,0,0.666,0,0.999
			c-0.333,0-0.667,0-1,0C143.665,111.002,143.665,109.669,143.665,108.336z"/>
		<path fill="#FFFFFF" d="M147.664,108.336c0,0.333,0,0.666,0,1C147.109,109.339,146.529,108.526,147.664,108.336z"/>
		<path fill="#BDC7C3" d="M147.664,109.336c0-0.334,0-0.667,0-1c0.333,0,0.667,0,1,0c0,0.333,0,0.666,0,1
			C148.331,109.336,147.997,109.336,147.664,109.336z"/>
		<path fill="#345A4A" d="M148.664,109.336c0-0.334,0-0.667,0-1c0.333,0,0.667,0,1,0c0.211,1.122,1.109,1.559,2,2
			c-0.186,0.852,0.389,0.943,1,1c-0.186,0.852,0.389,0.942,0.998,0.999c0.334,0,0.668,0,1,0c0.162,1.172,1.824,0.846,3,1
			c1.334,0,2.666,0,4,0c0.666,0,1.332,0,2,0c0,0.334,0,0.667,0,1c-0.852-0.184-0.943,0.392-1,1c-0.334,0-0.668,0-1,0
			c-0.852-0.184-0.943,0.392-1,1c0,0.333,0,0.666,0,1c-0.184,0.853,0.391,0.943,1,1c-0.184,0.852,0.389,0.943,1,0.999
			c-0.184,0.853,0.389,0.943,1,1c0,0.334,0,0.667,0,1c0,0.334,0,0.667,0,1c-1.453,0.615,0.102,1.208,0,0
			c3.234,0.824,8.646-1.244,8.998,0c0,0.333,0,0.667,0,1c-0.85-0.184-0.943,0.392-1,1c0,0.333,0,0.666,0,1
			c-0.85-0.185-0.943,0.392-1,1c-0.85-0.185-0.943,0.392-1,0.999c0,0.334,0,0.667,0,1c-0.85-0.184-0.943,0.393-1,1
			c-0.85-0.184-0.943,0.392-1,1c-0.85-0.184-0.943,0.392-1,1c-0.85-0.184-0.941,0.392-0.998,1c-0.334,0-0.668,0-1,0
			c-0.852-0.184-0.943,0.392-1,1c-0.852-0.185-0.943,0.392-1,1c-0.334,0-0.668,0-1,0c-0.852-0.185-0.943,0.392-1,0.999
			c-0.334,0-0.666,0-1,0c-0.852-0.184-0.943,0.393-1,1c-0.334,0-0.666,0-1,0s-0.666,0-1,0c-0.85-0.184-0.943,0.393-1,1
			c-0.666,0-1.334,0-2,0c-2.665,0-5.332,0-7.998,0c-0.333,0-0.667,0-1,0c0.184-0.851-0.39-0.941-1-1c-0.667,0-1.333,0-2,0
			c0.184-0.851-0.39-0.941-1-1c-0.333,0-0.667,0-1,0s-0.667,0-1,0c0.184-0.85-0.39-0.94-1-0.999c0.184-0.851-0.39-0.941-1-1
			c-0.333,0-0.667,0-1,0c0.184-0.851-0.39-0.941-1-1c0-0.334,0-0.667,0-1c3.932-2.732,8.705-4.627,13.999-5.999
			c-0.184,0.853,0.39,0.943,1,1c1,0,2,0,3,0c1.418,0.086,2.83,0.165,2.998-1c0.334,0,0.666,0,1,0c0-0.667,0-1.333,0-2
			c0-0.333,0-0.667,0-1c0.086-1.419,0.166-2.831-1-3c0-0.666,0-1.333,0-1.999c0-0.334,0-0.667,0-1c0.185-0.851-0.392-0.941-1-1
			c-0.666,0-1.332,0-1.998,0c0.185-0.851-0.392-0.941-1-1c0.185-0.851-0.392-0.941-1-1c0.185-0.851-0.39-0.941-1-1
			c0-0.333,0-0.666,0-0.999c0.184-0.851-0.39-0.941-1-1C148.664,110.002,148.664,109.669,148.664,109.336z"/>
		<path fill="#BDC7C3" d="M156.662,108.336c0.609,0.059,1.184,0.149,1,1C157.053,109.279,156.479,109.187,156.662,108.336z"/>
		<path fill="#939D98" d="M134.666,109.336c0.333,0,0.667,0,1,0c0,0.666,0,1.333,0,2
			C134.886,111.114,134.503,110.498,134.666,109.336z"/>
		<path fill="#FFFFFF" d="M144.665,109.336c1.008,0.014,1.257,1.752,0,2C144.665,110.669,144.665,110.002,144.665,109.336z"/>
		<path fill="#BDC7C3" d="M158.662,109.336c0.775,0.226,1.973,0.027,2,1C159.887,110.111,158.689,110.308,158.662,109.336z"/>
		<path fill="#687E75" d="M133.666,110.336c0,1,0,1.999,0,2.999c-0.333,0-0.667,0-1,0
			C132.822,112.158,132.494,110.497,133.666,110.336z"/>
		<path fill="#939D98" d="M148.664,111.336c0-0.334,0-0.667,0-1c0.61,0.059,1.184,0.149,1,1
			C149.331,111.336,148.997,111.336,148.664,111.336z"/>
		<path fill="#687E75" d="M151.664,110.336c0.609,0.059,1.184,0.149,1,1C152.053,111.279,151.479,111.186,151.664,110.336z"/>
		<path fill="#BDC7C3" d="M162.662,110.336c0.332,0,0.666,0,1,0c0,0.333,0,0.666,0,1
			C163.051,111.279,162.479,111.186,162.662,110.336z"/>
		<path fill="#BDC7C3" d="M119.667,111.336c0.779,0.223,1.163,0.837,1,1.999C119.888,113.114,119.505,112.498,119.667,111.336z"/>
		<path fill="#BDC7C3" d="M122.667,111.336c0.333,0,0.667,0,1,0c0,0.666,0,1.333,0,1.999
			C122.888,113.114,122.504,112.498,122.667,111.336z"/>
		<path fill="#FFFFFF" d="M148.664,111.336c0,0.333,0,0.666,0,0.999C148.109,112.339,147.529,111.525,148.664,111.336z"/>
		<path fill="#BDC7C3" d="M148.664,112.335c0-0.333,0-0.666,0-0.999c0.333,0,0.667,0,1,0c0,0.333,0,0.666,0,0.999
			C149.331,112.335,148.997,112.335,148.664,112.335z"/>
		<path fill="#687E75" d="M152.664,111.336c0.609,0.058,1.184,0.149,0.998,0.999C153.053,112.278,152.479,112.186,152.664,111.336z"
			/>
		<path fill="#939D98" d="M143.665,112.335c0.333,0,0.667,0,1,0c0,0.334,0,0.667,0,1
			C144.054,113.278,143.48,113.186,143.665,112.335z"/>
		<path fill="#687E75" d="M149.664,112.335c0.61,0.059,1.184,0.149,1,1C150.054,113.278,149.48,113.186,149.664,112.335z"/>
		<path fill="#687E75" d="M154.662,112.335c1.178,0.157,2.838-0.172,3,1C156.486,113.179,154.824,113.507,154.662,112.335z"/>
		<path fill="#687E75" d="M161.662,113.335c0.221-0.777,0.836-1.162,2-1c0,0.334,0,0.667,0,1
			C162.994,113.335,162.328,113.335,161.662,113.335z"/>
		<path fill="#57B692" d="M167.66,113.335C167.242,112.916,168.316,113.99,167.66,113.335L167.66,113.335z"/>
		<path fill="#BDC7C3" d="M179.66,112.335c0,1,0,2,0,3c-0.334,0-0.668,0-1,0C178.816,114.158,178.488,112.497,179.66,112.335z"/>
		<path fill="#939D98" d="M132.666,113.335c0.333,0,0.667,0,1,0c-0.224,0.776-0.027,1.975-1,2
			C132.666,114.668,132.666,114.002,132.666,113.335z"/>
		<path fill="#687E75" d="M135.666,113.335c1.165,0.168,1.086,1.581,1,3c-0.333,0-0.667,0-1,0
			C135.666,115.335,135.666,114.335,135.666,113.335z"/>
		<path fill="#687E75" d="M150.664,113.335c0.609,0.059,1.184,0.149,1,1C151.055,114.278,150.48,114.186,150.664,113.335z"/>
		<path fill="#939D98" d="M123.667,115.335c0-0.333,0-0.667,0-1c0.61,0.059,1.184,0.149,1,1
			C124.333,115.335,124,115.335,123.667,115.335z"/>
		<path fill="#BDC7C3" d="M144.665,115.335c0-0.333,0-0.667,0-1c0.61,0.059,1.184,0.149,1,1
			C145.331,115.335,144.998,115.335,144.665,115.335z"/>
		<path fill="#687E75" d="M151.664,114.335c0.609,0.059,1.184,0.149,1,1C152.053,115.278,151.479,115.186,151.664,114.335z"/>
		<path fill="#687E75" d="M162.662,115.335c0.057-0.608,0.148-1.184,1-1c0,0.333,0,0.667,0,1
			C163.328,115.335,162.994,115.335,162.662,115.335z"/>
		<path fill="#BDC7C3" d="M175.66,114.335c0.334,0,0.666,0,1,0c-0.225,0.776-0.027,1.975-1,2
			C175.66,115.668,175.66,115.002,175.66,114.335z"/>
		<path fill="#BDC7C3" d="M123.667,116.335c0-0.333,0-0.667,0-1c0.333,0,0.667,0,1,0c0,0.667,0,1.333,0,2c-0.333,0-0.667,0-1,0
			C123.667,117.001,123.667,116.668,123.667,116.335z"/>
		<path fill="#939D98" d="M144.665,115.335c0.333,0,0.667,0,1,0c0,0.333,0,0.667,0,1
			C145.054,116.278,144.48,116.186,144.665,115.335z"/>
		<path fill="#BDC7C3" d="M152.664,115.335c0.666,0,1.332,0,1.998,0c0,0.333,0,0.667,0,1c-0.332,0-0.666,0-1,0
			C153.053,116.278,152.479,116.186,152.664,115.335z"/>
		<path fill="#687E75" d="M154.662,116.335c0-0.333,0-0.667,0-1c0.609,0.059,1.184,0.149,1,1
			C155.328,116.335,154.996,116.335,154.662,116.335z"/>
		<path fill="#687E75" d="M160.662,116.335c0.057-0.608,0.148-1.184,1-1c0,0.333,0,0.667,0,1
			C161.328,116.335,160.996,116.335,160.662,116.335z"/>
		<path fill="#57B692" d="M161.662,116.335c0-0.333,0-0.667,0-1c0.332,0,0.666,0,1,0
			C162.605,115.945,162.512,116.519,161.662,116.335z"/>
		<path fill="#86CCB2" d="M178.66,116.335c0-0.333,0-0.667,0-1c0.332,0,0.666,0,1,0C179.604,115.945,179.51,116.519,178.66,116.335z
			"/>
		<path fill="#BDC7C3" d="M120.667,116.335c0.61,0.059,1.184,0.149,1,1C121.057,117.278,120.483,117.186,120.667,116.335z"/>
		<path fill="#FFFFFF" d="M123.667,116.335c0,0.333,0,0.666,0,1C123.112,117.338,122.532,116.525,123.667,116.335z"/>
		<path fill="#939D98" d="M135.666,116.335c0.333,0,0.667,0,1,0c0,0.666,0,1.333,0,2
			C135.886,118.114,135.503,117.497,135.666,116.335z"/>
		<path fill="#FFFFFF" d="M153.662,116.335c0.334,0,0.668,0,1,0c0,0.333,0,0.666,0,1
			C154.053,117.278,153.479,117.186,153.662,116.335z"/>
		<path fill="#939D98" d="M154.662,117.335c0-0.334,0-0.667,0-1c0.334,0,0.666,0,1,0c0,0.333,0,0.666,0,1
			C155.328,117.335,154.996,117.335,154.662,117.335z"/>
		<path fill="#939D98" d="M160.662,117.335c0-0.334,0-0.667,0-1c0.334,0,0.666,0,1,0c0,0.333,0,0.666,0,1
			C161.328,117.335,160.996,117.335,160.662,117.335z"/>
		<path fill="#86CCB2" d="M175.66,116.335c0,0.666,0,1.333,0,2c-0.334,0-0.666,0-1,0
			C174.885,117.559,174.688,116.362,175.66,116.335z"/>
		<path fill="#939D98" d="M124.667,117.335c0.779,0.223,1.163,0.837,1,1.999c-0.333,0-0.667,0-1,0
			C124.667,118.668,124.667,118.001,124.667,117.335z"/>
		<path fill="#687E75" d="M132.666,117.335c0,0.666,0,1.333,0,1.999c-0.333,0-0.667,0-1,0
			C131.89,118.559,131.693,117.362,132.666,117.335z"/>
		<path fill="#BDC7C3" d="M145.664,118.335c0-0.334,0-0.667,0-1c0.61,0.059,1.184,0.149,1,1
			C146.331,118.335,145.998,118.335,145.664,118.335z"/>
		<path fill="#BDC7C3" d="M154.662,117.335c0.334,0,0.666,0,1,0c0,0.666,0,1.333,0,1.999c0,0.334,0,0.667,0,1
			C154.498,120.166,154.576,118.754,154.662,117.335z"/>
		<path fill="#687E75" d="M160.662,117.335c0.334,0,0.666,0,1,0c0,0.333,0,0.666,0,1
			C161.053,118.278,160.479,118.186,160.662,117.335z"/>
		<path fill="#BDC7C3" d="M177.66,118.335c0.057-0.608,0.148-1.184,1-1c0,0.333,0,0.666,0,1
			C178.326,118.335,177.992,118.335,177.66,118.335z"/>
		<path fill="#939D98" d="M145.664,118.335c0.333,0,0.667,0,1,0c0,0.333,0,0.666,0,0.999
			C146.054,119.278,145.48,119.185,145.664,118.335z"/>
		<path fill="#687E75" d="M161.662,118.335c0.609,0.059,1.184,0.149,1,0.999C162.051,119.278,161.479,119.185,161.662,118.335z"/>
		<path fill="#BDC7C3" d="M174.66,119.334c0-0.333,0-0.666,0-0.999c0.334,0,0.666,0,1,0
			C175.604,118.944,175.51,119.519,174.66,119.334z"/>
		<path fill="#86CCB2" d="M177.66,119.334c0-0.333,0-0.666,0-0.999c0.332,0,0.666,0,1,0
			C178.604,118.944,178.51,119.519,177.66,119.334z"/>
		<path fill="#BDC7C3" d="M121.667,119.334c0.61,0.059,1.184,0.15,1,1C122.057,120.277,121.483,120.185,121.667,119.334z"/>
		<path fill="#FFFFFF" d="M124.667,119.334c0,0.334,0,0.667,0,1C124.112,120.338,123.532,119.524,124.667,119.334z"/>
		<path fill="#BDC7C3" d="M124.667,120.334c0-0.333,0-0.666,0-1c0.333,0,0.667,0,1,0c0,0.334,0,0.667,0,1
			C125.333,120.334,125,120.334,124.667,120.334z"/>
		<path fill="#57B692" d="M131.666,119.334c0.333,0,0.667,0,1,0c-0.224,0.776-0.028,1.975-1,2
			C131.666,120.668,131.666,120.001,131.666,119.334z"/>
		<path fill="#687E75" d="M136.666,119.334c0.61,0.059,1.184,0.15,1,1C137.055,120.277,136.481,120.185,136.666,119.334z"/>
		<path fill="#687E75" d="M155.662,120.334c0-0.333,0-0.666,0-1c1.166,0.169,1.086,1.581,1,3c-0.334,0-0.666,0-1,0
			C155.662,121.668,155.662,121.001,155.662,120.334z"/>
		<path fill="#57B692" d="M162.662,119.334c0.332,0,0.666,0,1,0c0,0.334,0,0.667,0,1
			C163.051,120.277,162.479,120.185,162.662,119.334z"/>
		<path fill="#57B692" d="M165.662,120.334c0.221-0.776,0.836-1.162,1.998-1C167.633,120.307,166.438,120.11,165.662,120.334z"/>
		<path fill="#687E75" d="M167.66,119.334c0.334,0,0.668,0,1,0c1.334,0,2.668,0,4,0c-0.184,0.853,0.391,0.943,1,1
			c0,0.334,0,0.667,0,1c0,0.334,0,0.667,0,1c-0.334,0-0.666,0-1,0c-0.352-1.244-5.764,0.824-8.998,0c0-0.333,0-0.666,0-1
			c0.85,0.186,0.943-0.39,1-1c0.332,0,0.666,0,1,0C166.438,120.11,167.633,120.307,167.66,119.334z"/>
		<path fill="#345A4A" d="M172.66,119.334c0.334,0,0.666,0,1,0c0,0.334,0,0.667,0,1C173.051,120.277,172.477,120.185,172.66,119.334
			z"/>
		<path fill="#939D98" d="M173.66,120.334c0-0.333,0-0.666,0-1c0.334,0,0.666,0,1,0c0,0.334,0,0.667,0,1
			C174.326,120.334,173.994,120.334,173.66,120.334z"/>
		<path fill="#939D98" d="M125.667,121.334c0-0.333,0-0.666,0-1c0.333,0,0.667,0,1,0c0,0.334,0,0.667,0,1
			C126.333,121.334,126,121.334,125.667,121.334z"/>
		<path fill="#687E75" d="M137.665,120.334c0.61,0.059,1.184,0.149,1,1C138.055,121.277,137.481,121.185,137.665,120.334z"/>
		<path fill="#939D98" d="M146.664,120.334c0.61,0.059,1.184,0.149,1,1C147.054,121.277,146.48,121.185,146.664,120.334z"/>
		<path fill="#57B692" d="M163.662,121.334c0-0.333,0-0.666,0-1c0.332,0,0.666,0,1,0
			C164.605,120.944,164.512,121.518,163.662,121.334z"/>
		<path fill="#BDC7C3" d="M173.66,121.334c0-0.333,0-0.666,0-1c0.334,0,0.666,0,1,0C174.604,120.944,174.51,121.518,173.66,121.334z
			"/>
		<path fill="#BDC7C3" d="M176.66,121.334c0.057-0.607,0.148-1.184,1-1c0,0.334,0,0.667,0,1
			C177.326,121.334,176.992,121.334,176.66,121.334z"/>
		<path fill="#BDC7C3" d="M125.667,121.334c0.333,0,0.667,0,1,0c0,0.334,0,0.667,0,1
			C126.057,122.277,125.483,122.185,125.667,121.334z"/>
		<path fill="#687E75" d="M130.666,122.334c0.057-0.608,0.149-1.184,1-1c0,0.334,0,0.667,0,1
			C131.333,122.334,131,122.334,130.666,122.334z"/>
		<path fill="#57B692" d="M138.665,121.334c0.333,0,0.667,0,1,0c0,0.334,0,0.667,0,1
			C139.055,122.277,138.481,122.185,138.665,121.334z"/>
		<path fill="#86CCB2" d="M176.66,122.334c0-0.333,0-0.666,0-1c0.332,0,0.666,0,1,0C177.604,121.944,177.51,122.518,176.66,122.334z
			"/>
		<path fill="#687E75" d="M126.667,123.334c0-0.333,0-0.667,0-1c0.61,0.059,1.184,0.149,1,1
			C127.333,123.334,127,123.334,126.667,123.334z"/>
		<path fill="#57B692" d="M130.666,123.334c0-0.333,0-0.667,0-1c0.333,0,0.667,0,1,0
			C131.609,122.944,131.517,123.518,130.666,123.334z"/>
		<path fill="#939D98" d="M139.665,122.334c1.008,0.014,1.258,1.753,0,2C139.665,123.667,139.665,123.001,139.665,122.334z"/>
		<path fill="#939D98" d="M147.664,122.334c0.61,0.059,1.184,0.149,1,1C148.054,123.277,147.48,123.185,147.664,122.334z"/>
		<path fill="#939D98" d="M155.662,123.334c0-0.333,0-0.667,0-1c0.334,0,0.666,0,1,0c0,0.333,0,0.667,0,1
			C156.328,123.334,155.996,123.334,155.662,123.334z"/>
		<path fill="#687E75" d="M163.662,122.334C163.764,123.542,162.209,122.949,163.662,122.334L163.662,122.334z"/>
		<path fill="#939D98" d="M172.66,123.334c0-0.333,0-0.667,0-1c0.334,0,0.666,0,1,0C173.604,122.944,173.512,123.518,172.66,123.334
			z"/>
		<path fill="#BDC7C3" d="M175.66,123.334c0.057-0.608,0.148-1.184,1-1c0,0.333,0,0.667,0,1
			C176.326,123.334,175.994,123.334,175.66,123.334z"/>
		<path fill="#BDC7C3" d="M126.667,123.334c0.333,0,0.667,0,1,0c0,0.333,0,0.667,0,1
			C127.057,124.277,126.483,124.185,126.667,123.334z"/>
		<path fill="#687E75" d="M129.667,124.334c0.056-0.608,0.149-1.184,1-1C130.609,123.944,130.517,124.518,129.667,124.334z"/>
		<path fill="#FFFFFF" d="M155.662,123.334c0,0.333,0,0.667,0,1C155.107,124.337,154.527,123.524,155.662,123.334z"/>
		<path fill="#BDC7C3" d="M155.662,124.334c0-0.333,0-0.667,0-1c0.334,0,0.666,0,1,0c0,0.667,0,1.333,0,2c-0.334,0-0.666,0-1,0
			C155.662,125,155.662,124.667,155.662,124.334z"/>
		<path fill="#687E75" d="M171.66,124.334c0.057-0.608,0.15-1.184,1-1c0,0.333,0,0.667,0,1
			C172.326,124.334,171.994,124.334,171.66,124.334z"/>
		<path fill="#86CCB2" d="M175.66,124.334c0-0.333,0-0.667,0-1c0.334,0,0.666,0,1,0C176.604,123.944,176.51,124.518,175.66,124.334z
			"/>
		<path fill="#939D98" d="M127.667,124.334c0.333,0,0.667,0,1,0c0,0.333,0,0.666,0,1
			C128.057,125.277,127.483,125.185,127.667,124.334z"/>
		<path fill="#687E75" d="M128.667,125.334c0-0.334,0-0.667,0-1c0.333,0,0.667,0,1,0
			C129.61,124.943,129.517,125.518,128.667,125.334z"/>
		<path fill="#939D98" d="M138.665,125.334c0.057-0.608,0.149-1.184,1-1C139.608,124.943,139.516,125.518,138.665,125.334z"/>
		<path fill="#939D98" d="M148.664,125.334c0-0.334,0-0.667,0-1c0.333,0,0.667,0,1,0c0,0.333,0,0.666,0,1
			C149.331,125.334,148.997,125.334,148.664,125.334z"/>
		<path fill="#FFFFFF" d="M149.664,125.334c0-0.334,0-0.667,0-1c1.177,0.156,2.838-0.172,3,1
			C151.664,125.334,150.664,125.334,149.664,125.334z"/>
		<path fill="#BDC7C3" d="M171.66,125.334c0-0.334,0-0.667,0-1c0.334,0,0.666,0,1,0C172.604,124.943,172.512,125.518,171.66,125.334
			z"/>
		<path fill="#BDC7C3" d="M174.66,125.334c0.057-0.608,0.148-1.184,1-1c0,0.333,0,0.666,0,1
			C175.326,125.334,174.994,125.334,174.66,125.334z"/>
		<path fill="#BDC7C3" d="M124.667,125.334c0.61,0.059,1.184,0.149,1,1C125.057,126.277,124.483,126.185,124.667,125.334z"/>
		<path fill="#939D98" d="M137.665,126.334c0.057-0.608,0.15-1.185,1-1C138.608,125.943,138.516,126.518,137.665,126.334z"/>
		<path fill="#687E75" d="M148.664,125.334c0.333,0,0.667,0,1,0c0,0.333,0,0.666,0,1
			C149.054,126.277,148.48,126.185,148.664,125.334z"/>
		<path fill="#939D98" d="M149.664,126.334c0-0.334,0-0.667,0-1c1,0,2,0,3,0c0,0.333,0,0.666,0,1
			C151.664,126.334,150.664,126.334,149.664,126.334z"/>
		<path fill="#687E75" d="M152.664,126.334c0-0.334,0-0.667,0-1c0.998,0,1.998,0,2.998,0
			C155.494,126.499,154.082,126.42,152.664,126.334z"/>
		<path fill="#687E75" d="M170.66,126.334c0.057-0.608,0.15-1.185,1-1C171.604,125.943,171.512,126.518,170.66,126.334z"/>
		<path fill="#86CCB2" d="M174.66,126.334c0-0.334,0-0.667,0-1c0.334,0,0.666,0,1,0C175.604,125.943,175.51,126.518,174.66,126.334z
			"/>
		<path fill="#57B692" d="M135.666,127.333c0.057-0.607,0.149-1.184,1-0.999C136.609,126.943,136.516,127.518,135.666,127.333z"/>
		<path fill="#687E75" d="M169.66,127.333c0.057-0.607,0.15-1.184,1-0.999c0,0.333,0,0.666,0,0.999
			C170.328,127.333,169.994,127.333,169.66,127.333z"/>
		<path fill="#86CCB2" d="M173.66,127.333c0.057-0.607,0.15-1.184,1-0.999C174.604,126.943,174.51,127.518,173.66,127.333z"/>
		<path fill="#BDC7C3" d="M125.667,127.333c0.61,0.059,1.184,0.15,1,1C126.057,128.276,125.483,128.184,125.667,127.333z"/>
		<path fill="#BDC7C3" d="M129.667,127.333c0.61,0.059,1.184,0.15,1,1C130.056,128.276,129.482,128.184,129.667,127.333z"/>
		<path fill="#BDC7C3" d="M169.66,128.333c0-0.333,0-0.666,0-1c0.334,0,0.668,0,1,0C170.604,127.943,170.512,128.518,169.66,128.333
			z"/>
		<path fill="#BDC7C3" d="M172.66,128.333c0.057-0.607,0.15-1.184,1-1c0,0.334,0,0.667,0,1
			C173.326,128.333,172.994,128.333,172.66,128.333z"/>
		<path fill="#BDC7C3" d="M126.667,128.333c0.61,0.059,1.184,0.149,1,1C127.057,129.276,126.483,129.184,126.667,128.333z"/>
		<path fill="#BDC7C3" d="M130.666,128.333c0.333,0,0.667,0,1,0c0,0.334,0,0.667,0,1
			C131.056,129.276,130.482,129.184,130.666,128.333z"/>
		<path fill="#939D98" d="M131.666,129.333c0-0.333,0-0.666,0-1c0.667,0,1.333,0,2,0c-0.056,0.61-0.149,1.186-1,1
			C132.333,129.333,132,129.333,131.666,129.333z"/>
		<path fill="#BDC7C3" d="M168.66,129.333c0.057-0.607,0.15-1.184,1-1C169.604,128.943,169.512,129.517,168.66,129.333z"/>
		<path fill="#86CCB2" d="M172.66,129.333c0-0.333,0-0.666,0-1c0.334,0,0.666,0,1,0C173.604,128.943,173.512,129.517,172.66,129.333
			z"/>
		<path fill="#86CCB2" d="M131.666,129.333c0.333,0,0.667,0,1,0c0,0.333,0,0.667,0,1
			C132.056,130.276,131.482,130.184,131.666,129.333z"/>
		<path fill="#BDC7C3" d="M167.66,130.333c0.057-0.608,0.15-1.184,1-1C168.604,129.943,168.512,130.517,167.66,130.333z"/>
		<path fill="#86CCB2" d="M171.66,130.333c0.057-0.608,0.15-1.184,1-1C172.604,129.943,172.512,130.517,171.66,130.333z"/>
		<path fill="#939D98" d="M132.666,130.333c0.61,0.059,1.184,0.149,1,1C133.056,131.276,132.482,131.184,132.666,130.333z"/>
		<path fill="#BDC7C3" d="M166.66,131.333c0.057-0.608,0.15-1.184,1-1C167.604,130.943,167.512,131.517,166.66,131.333z"/>
		<path fill="#86CCB2" d="M170.66,131.333c0.057-0.608,0.15-1.184,1-1C171.604,130.943,171.512,131.517,170.66,131.333z"/>
		<path fill="#939D98" d="M133.666,131.333c0.333,0,0.667,0,1,0c0,0.333,0,0.666,0,1
			C134.056,132.276,133.482,132.184,133.666,131.333z"/>
		<path fill="#BDC7C3" d="M165.662,132.333c0.057-0.608,0.148-1.184,0.998-1C166.604,131.943,166.512,132.517,165.662,132.333z"/>
		<path fill="#86CCB2" d="M169.66,132.333c0.057-0.608,0.15-1.184,1-1C170.604,131.943,170.512,132.517,169.66,132.333z"/>
		<path fill="#57B692" d="M129.667,132.333C129.768,133.541,128.213,132.947,129.667,132.333L129.667,132.333z"/>
		<path fill="#BDC7C3" d="M134.666,132.333c0.61,0.059,1.184,0.149,1,1C135.056,133.276,134.482,133.184,134.666,132.333z"/>
		<path fill="#687E75" d="M163.662,133.333c0.057-0.608,0.148-1.184,1-1c0,0.333,0,0.666,0,1
			C164.328,133.333,163.994,133.333,163.662,133.333z"/>
		<path fill="#BDC7C3" d="M164.662,133.333c0-0.334,0-0.667,0-1c0.332,0,0.666,0,1,0
			C165.605,132.942,165.512,133.517,164.662,133.333z"/>
		<path fill="#86CCB2" d="M168.66,133.333c0.057-0.608,0.15-1.184,1-1C169.604,132.942,169.512,133.517,168.66,133.333z"/>
		<path fill="#BDC7C3" d="M135.666,133.333c0.333,0,0.667,0,1,0c0,0.333,0,0.666,0,1
			C136.056,134.276,135.482,134.183,135.666,133.333z"/>
		<path fill="#687E75" d="M136.666,134.333c0-0.334,0-0.667,0-1c0.61,0.059,1.184,0.149,1,1
			C137.332,134.333,136.999,134.333,136.666,134.333z"/>
		<path fill="#939D98" d="M162.662,134.333c0.057-0.608,0.148-1.185,1-1C163.605,133.942,163.512,134.517,162.662,134.333z"/>
		<path fill="#86CCB2" d="M167.66,134.333c0.057-0.608,0.15-1.185,1-1C168.604,133.942,168.512,134.517,167.66,134.333z"/>
		<path fill="#86CCB2" d="M137.665,134.333c0.61,0.059,1.184,0.149,1,0.999C138.055,135.275,137.481,135.183,137.665,134.333z"/>
		<path fill="#687E75" d="M160.662,135.332c0.057-0.607,0.148-1.184,1-0.999c0,0.333,0,0.666,0,0.999
			C161.328,135.332,160.996,135.332,160.662,135.332z"/>
		<path fill="#BDC7C3" d="M161.662,135.332c0-0.333,0-0.666,0-0.999c0.332,0,0.666,0,1,0
			C162.605,134.942,162.512,135.517,161.662,135.332z"/>
		<path fill="#86CCB2" d="M166.66,135.332c0.057-0.607,0.15-1.184,1-0.999C167.604,134.942,167.512,135.517,166.66,135.332z"/>
		<path fill="#BDC7C3" d="M133.666,136.332c0-0.333,0-0.666,0-1c0.61,0.059,1.184,0.149,1,1
			C134.333,136.332,133.999,136.332,133.666,136.332z"/>
		<path fill="#939D98" d="M139.665,135.332c0.333,0,0.667,0,1,0c0,0.334,0,0.667,0,1
			C140.055,136.275,139.481,136.183,139.665,135.332z"/>
		<path fill="#687E75" d="M140.665,136.332c0-0.333,0-0.666,0-1c0.61,0.059,1.184,0.149,1,1
			C141.332,136.332,140.998,136.332,140.665,136.332z"/>
		<path fill="#687E75" d="M158.662,136.332c0.057-0.607,0.148-1.184,1-1c0,0.334,0,0.667,0,1
			C159.328,136.332,158.996,136.332,158.662,136.332z"/>
		<path fill="#BDC7C3" d="M159.662,136.332c0-0.333,0-0.666,0-1c0.334,0,0.666,0,1,0
			C160.605,135.942,160.512,136.517,159.662,136.332z"/>
		<path fill="#BDC7C3" d="M164.662,136.332c0.057-0.607,0.148-1.184,1-1c0,0.334,0,0.667,0,1
			C165.328,136.332,164.994,136.332,164.662,136.332z"/>
		<path fill="#86CCB2" d="M165.662,136.332c0-0.333,0-0.666,0-1c0.332,0,0.666,0,0.998,0
			C166.604,135.942,166.512,136.517,165.662,136.332z"/>
		<path fill="#57B692" d="M127.667,137.332C127.247,136.913,128.321,137.987,127.667,137.332L127.667,137.332z"/>
		<path fill="#939D98" d="M141.665,136.332c0.667,0,1.333,0,2,0c0,0.334,0,0.667,0,1c-0.333,0-0.667,0-1,0
			C142.055,137.275,141.481,137.183,141.665,136.332z"/>
		<path fill="#687E75" d="M143.665,137.332c0-0.333,0-0.666,0-1c0.61,0.059,1.184,0.149,1,1
			C144.331,137.332,143.998,137.332,143.665,137.332z"/>
		<path fill="#687E75" d="M155.662,137.332c0.057-0.607,0.15-1.184,1-1c0,0.334,0,0.667,0,1
			C156.328,137.332,155.996,137.332,155.662,137.332z"/>
		<path fill="#939D98" d="M156.662,137.332c0-0.333,0-0.666,0-1c0.334,0,0.666,0,1,0c0,0.334,0,0.667,0,1
			C157.328,137.332,156.996,137.332,156.662,137.332z"/>
		<path fill="#BDC7C3" d="M157.662,137.332c0-0.333,0-0.666,0-1c0.334,0,0.666,0,1,0
			C158.605,136.942,158.512,137.516,157.662,137.332z"/>
		<path fill="#BDC7C3" d="M163.662,137.332c0.057-0.607,0.148-1.184,1-1C164.605,136.942,164.512,137.516,163.662,137.332z"/>
		<path fill="#86CCB2" d="M135.666,138.332c0-0.333,0-0.667,0-1c0.333,0,0.667,0,1,0c0,0.333,0,0.667,0,1
			C136.332,138.332,135.999,138.332,135.666,138.332z"/>
		<path fill="#BDC7C3" d="M136.666,138.332c0-0.333,0-0.667,0-1c0.61,0.059,1.184,0.149,1,1
			C137.332,138.332,136.999,138.332,136.666,138.332z"/>
		<path fill="#FFFFFF" d="M142.665,137.332c0.333,0,0.667,0,1,0C143.667,137.888,142.854,138.467,142.665,137.332z"/>
		<path fill="#BDC7C3" d="M144.665,137.332c0.333,0,0.667,0,1,0c0,0.333,0,0.667,0,1
			C145.054,138.275,144.48,138.183,144.665,137.332z"/>
		<path fill="#939D98" d="M145.664,138.332c0-0.333,0-0.667,0-1c2.667,0,5.333,0,7.998,0c0,0.333,0,0.667,0,1
			c-2.332,0-4.665,0-6.998,0C146.331,138.332,145.998,138.332,145.664,138.332z"/>
		<path fill="#BDC7C3" d="M153.662,138.332c0-0.333,0-0.667,0-1c0.666,0,1.334,0,2,0
			C155.441,138.111,154.824,138.495,153.662,138.332z"/>
		<path fill="#BDC7C3" d="M161.662,138.332c0.057-0.608,0.148-1.184,1-1c0,0.333,0,0.667,0,1
			C162.328,138.332,161.994,138.332,161.662,138.332z"/>
		<path fill="#86CCB2" d="M162.662,138.332c0-0.333,0-0.667,0-1c0.332,0,0.666,0,1,0
			C163.605,137.942,163.512,138.516,162.662,138.332z"/>
		<path fill="#86CCB2" d="M137.665,139.332c0-0.333,0-0.667,0-1c0.333,0,0.667,0,1,0c0,0.333,0,0.667,0,1
			C138.332,139.332,137.999,139.332,137.665,139.332z"/>
		<path fill="#BDC7C3" d="M138.665,139.332c0-0.333,0-0.667,0-1c0.61,0.059,1.184,0.149,1,1
			C139.332,139.332,138.999,139.332,138.665,139.332z"/>
		<path fill="#FFFFFF" d="M146.664,138.332c2.333,0,4.666,0,6.998,0C153.527,139.979,146.8,139.979,146.664,138.332z"/>
		<path fill="#BDC7C3" d="M159.662,139.332c0.057-0.608,0.148-1.184,1-1c0,0.333,0,0.667,0,1
			C160.328,139.332,159.996,139.332,159.662,139.332z"/>
		<path fill="#86CCB2" d="M160.662,139.332c0-0.333,0-0.667,0-1c0.334,0,0.666,0,1,0c0.332,0,0.666,0,1,0
			C162.441,139.111,161.824,139.494,160.662,139.332z"/>
		<path fill="#86CCB2" d="M139.665,139.332c0.667,0,1.333,0,2,0c0,0.333,0,0.666,0,1
			C140.889,140.107,139.692,140.305,139.665,139.332z"/>
		<path fill="#BDC7C3" d="M141.665,140.332c0-0.334,0-0.667,0-1c0.61,0.059,1.184,0.149,1,1
			C142.332,140.332,141.998,140.332,141.665,140.332z"/>
		<path fill="#BDC7C3" d="M156.662,140.332c0.057-0.608,0.15-1.184,1-1c0,0.333,0,0.666,0,1
			C157.328,140.332,156.996,140.332,156.662,140.332z"/>
		<path fill="#86CCB2" d="M157.662,140.332c0-0.334,0-0.667,0-1c0.666,0,1.334,0,2,0
			C159.441,140.111,158.824,140.494,157.662,140.332z"/>
		<path fill="#86CCB2" d="M141.665,140.332c0.333,0,0.667,0,1,0c0.667,0,1.333,0,2,0c0,0.333,0,0.666,0,1
			C143.488,141.175,141.826,141.504,141.665,140.332z"/>
		<path fill="#BDC7C3" d="M144.665,141.332c0-0.334,0-0.667,0-1c3.333,0,6.666,0,9.998,0c0,0.333,0,0.666,0,1
			C151.33,141.332,147.997,141.332,144.665,141.332z"/>
		<path fill="#86CCB2" d="M154.662,141.332c0-0.334,0-0.667,0-1c0.666,0,1.334,0,2,0
			C156.441,141.111,155.824,141.494,154.662,141.332z"/>
	</g>
</g>
<g id="Calque_2">
	<path fill="#D1D3D4" d="M289.827,0h-280c-5.522,0-10,4.479-10,10v154.648c0,5.521,4.478,10,10,10h280c5.522,0,10-4.479,10-10V10
		C299.827,4.477,295.35,0,289.827,0z M292.285,159.26c0,4.419-3.582,8-8,8H15.37c-4.419,0-8-3.581-8-8V15.388c0-4.419,3.581-8,8-8
		h268.915c4.418,0,8,3.581,8,8V159.26z"/>
</g>
<g id="Calque_5">
	<g>
		<path d="M50.992,100.634c1.333,0,2.355,0.396,3.066,1.189c0.52,0.582,0.902,1.32,1.148,2.215c0.246,0.896,0.369,2.007,0.369,3.333
			c0,1.347-0.123,2.511-0.369,3.491c-0.246,0.979-0.625,1.83-1.138,2.549c-0.779,1.087-1.856,1.63-3.23,1.63
			c-1.306,0-2.352-0.472-3.138-1.415c-0.547-0.654-0.947-1.467-1.2-2.43c-0.253-0.965-0.379-2.15-0.379-3.559
			c0-0.909,0.062-1.77,0.185-2.574c0.123-0.808,0.291-1.445,0.502-1.917c0.472-1.046,1.162-1.763,2.071-2.146
			C49.454,100.757,50.158,100.634,50.992,100.634z M50.879,101.896c-2.331,0-3.497,1.887-3.497,5.66
			c0,2.104,0.311,3.709,0.933,4.809c0.28,0.492,0.687,0.883,1.22,1.17c0.396,0.211,0.824,0.317,1.282,0.317
			c0.506,0,0.979-0.133,1.42-0.396c0.44-0.263,0.801-0.634,1.082-1.111c0.663-1.103,0.995-2.675,0.995-4.718
			c0-1.688-0.178-2.957-0.533-3.805C53.248,102.538,52.281,101.896,50.879,101.896z"/>
		<path d="M63.717,100.932v13.902h-1.333V102.46c-0.048,0.047-0.092,0.092-0.133,0.133c-0.096,0.098-0.222,0.225-0.379,0.381
			l-4.235,4.266v-1.559l4.604-4.747L63.717,100.932L63.717,100.932z"/>
		<path d="M68.321,113.575h6.962v1.261h-8.265v-1.321c1.941-1.818,3.404-3.297,4.389-4.432c0.957-1.1,1.606-1.958,1.948-2.573
			c0.342-0.606,0.513-1.228,0.513-1.854c0-0.861-0.277-1.551-0.831-2.07c-0.485-0.465-1.097-0.695-1.835-0.695
			c-1.073,0-2.047,0.455-2.922,1.371c-0.396,0.41-0.817,0.984-1.261,1.725v-0.748v-1.005v-0.33c0.567-0.686,1.053-1.169,1.456-1.456
			c0.766-0.547,1.644-0.82,2.635-0.82c1.169,0,2.16,0.362,2.974,1.087c0.793,0.704,1.189,1.646,1.189,2.819
			c0,1.498-0.718,3.039-2.153,4.625C72.054,110.331,70.454,111.804,68.321,113.575z"/>
		<path d="M78.452,100.839h7.578v1.551l-4.871,4.202c0.506-0.082,0.937-0.123,1.292-0.123c1.189,0,2.146,0.337,2.871,1.007
			c0.766,0.704,1.148,1.678,1.148,2.922c0,0.766-0.159,1.487-0.477,2.169c-0.318,0.681-0.754,1.229-1.308,1.646
			c-0.745,0.555-1.658,0.83-2.738,0.83c-0.916,0-1.736-0.212-2.461-0.636c-0.273-0.15-0.619-0.403-1.036-0.759v-0.134v-0.268v-0.688
			v-0.42c0.513,0.465,0.954,0.81,1.323,1.033c0.759,0.451,1.514,0.679,2.266,0.679c0.957,0,1.743-0.369,2.358-1.107
			c0.513-0.622,0.769-1.384,0.769-2.286c0-0.982-0.335-1.747-1.005-2.287c-0.595-0.472-1.367-0.707-2.317-0.707
			c-0.677,0-1.473,0.142-2.389,0.42v-1.426l5.096-4.355H78.45v-1.263H78.452z"/>
	</g>
	<g>
		<path d="M195.742,100.634c1.333,0,2.355,0.396,3.066,1.189c0.52,0.582,0.9,1.32,1.146,2.215c0.246,0.896,0.369,2.007,0.369,3.333
			c0,1.347-0.123,2.511-0.369,3.491c-0.246,0.979-0.626,1.83-1.141,2.549c-0.777,1.087-1.854,1.63-3.229,1.63
			c-1.305,0-2.354-0.472-3.137-1.415c-0.549-0.654-0.947-1.467-1.2-2.43c-0.253-0.965-0.38-2.15-0.38-3.559
			c0-0.909,0.063-1.77,0.188-2.574c0.123-0.808,0.289-1.445,0.502-1.917c0.471-1.046,1.162-1.763,2.069-2.146
			C194.204,100.757,194.908,100.634,195.742,100.634z M195.629,101.896c-2.33,0-3.496,1.887-3.496,5.66
			c0,2.104,0.311,3.709,0.934,4.809c0.279,0.492,0.688,0.883,1.222,1.17c0.396,0.211,0.821,0.317,1.28,0.317
			c0.508,0,0.979-0.133,1.42-0.396c0.441-0.263,0.803-0.634,1.082-1.111c0.662-1.103,0.994-2.675,0.994-4.718
			c0-1.688-0.178-2.957-0.531-3.805C197.998,102.538,197.031,101.896,195.629,101.896z"/>
		<path d="M208.467,100.932v13.902h-1.332V102.46c-0.049,0.047-0.093,0.092-0.134,0.133c-0.097,0.098-0.222,0.225-0.38,0.381
			l-4.234,4.266v-1.559l4.604-4.747L208.467,100.932L208.467,100.932z"/>
		<path d="M213.07,113.575h6.963v1.261h-8.264v-1.321c1.939-1.818,3.402-3.297,4.389-4.432c0.957-1.1,1.605-1.958,1.947-2.573
			c0.342-0.606,0.514-1.228,0.514-1.854c0-0.861-0.277-1.551-0.831-2.07c-0.485-0.465-1.097-0.695-1.835-0.695
			c-1.074,0-2.048,0.455-2.923,1.371c-0.396,0.41-0.817,0.984-1.261,1.725v-0.748v-1.005v-0.33c0.564-0.686,1.053-1.169,1.455-1.456
			c0.766-0.547,1.645-0.82,2.635-0.82c1.17,0,2.16,0.362,2.975,1.087c0.793,0.704,1.189,1.646,1.189,2.819
			c0,1.498-0.719,3.039-2.153,4.625C216.805,110.331,215.204,111.804,213.07,113.575z"/>
		<path d="M223.202,100.839h7.577v1.551l-4.87,4.202c0.506-0.082,0.937-0.123,1.292-0.123c1.189,0,2.146,0.337,2.871,1.007
			c0.766,0.704,1.148,1.678,1.148,2.922c0,0.766-0.16,1.487-0.479,2.169c-0.318,0.681-0.756,1.229-1.309,1.646
			c-0.746,0.555-1.658,0.83-2.736,0.83c-0.916,0-1.736-0.212-2.463-0.636c-0.271-0.15-0.617-0.403-1.034-0.759v-0.134v-0.268v-0.688
			v-0.42c0.513,0.465,0.952,0.81,1.321,1.033c0.76,0.451,1.516,0.679,2.268,0.679c0.957,0,1.743-0.369,2.357-1.107
			c0.514-0.622,0.77-1.384,0.77-2.286c0-0.982-0.334-1.747-1.004-2.287c-0.598-0.472-1.367-0.707-2.316-0.707
			c-0.678,0-1.475,0.142-2.391,0.42v-1.426l5.097-4.355H223.2L223.202,100.839L223.202,100.839z"/>
		<path d="M241.085,100.839v9.742h1.784v1.189h-1.784v3.063h-1.333v-3.063h-6.604v-1.867l5.517-9.064H241.085z M239.752,110.581
			v-9.198l-5.65,9.198H239.752z"/>
	</g>
	<g>
		<path d="M263.473,80.035v9.271h-0.889v-8.25c-0.031,0.03-0.063,0.062-0.089,0.089c-0.063,0.063-0.147,0.146-0.253,0.253
			l-2.823,2.844V83.2l3.069-3.165H263.473L263.473,80.035z"/>
		<path d="M266.542,88.464h4.642v0.842h-5.51v-0.883c1.295-1.213,2.27-2.195,2.926-2.954c0.639-0.732,1.07-1.306,1.299-1.716
			c0.229-0.404,0.344-0.816,0.344-1.235c0-0.574-0.186-1.035-0.555-1.383c-0.322-0.31-0.73-0.465-1.225-0.465
			c-0.715,0-1.365,0.307-1.947,0.916c-0.266,0.273-0.545,0.656-0.842,1.148v-0.499v-0.67v-0.219
			c0.379-0.456,0.701-0.779,0.971-0.973c0.512-0.365,1.098-0.547,1.758-0.547c0.779,0,1.439,0.242,1.981,0.726
			c0.528,0.47,0.793,1.097,0.793,1.881c0,0.998-0.479,2.024-1.436,3.083C269.029,86.301,267.964,87.283,266.542,88.464z"/>
		<path d="M273.296,79.973h5.052v1.03l-3.246,2.805c0.336-0.057,0.623-0.082,0.86-0.082c0.793,0,1.431,0.223,1.914,0.67
			c0.511,0.469,0.767,1.119,0.767,1.946c0,0.512-0.105,0.992-0.316,1.446c-0.215,0.453-0.503,0.819-0.872,1.1
			c-0.497,0.367-1.104,0.553-1.825,0.553c-0.609,0-1.158-0.143-1.643-0.424c-0.182-0.102-0.41-0.271-0.688-0.508v-0.088v-0.178
			v-0.458v-0.28c0.343,0.312,0.638,0.54,0.882,0.69c0.508,0.301,1.012,0.451,1.512,0.451c0.639,0,1.162-0.246,1.571-0.738
			c0.343-0.414,0.515-0.922,0.515-1.524c0-0.654-0.225-1.163-0.67-1.522c-0.396-0.314-0.912-0.472-1.545-0.472
			c-0.451,0-0.982,0.093-1.595,0.278v-0.949l3.396-2.904h-4.065L273.296,79.973L273.296,79.973z"/>
		<path d="M285.218,79.973v6.492h1.189v0.793h-1.189v2.044h-0.889V87.26h-4.402v-1.242l3.679-6.043L285.218,79.973L285.218,79.973z
			 M284.329,86.467v-6.132l-3.767,6.132H284.329L284.329,86.467z"/>
	</g>
	<rect x="30.873" y="152.945" opacity="0.5" fill="#58595B" enable-background="new    " width="127.789" height="4.964"/>
	<rect x="190" y="122.301" opacity="0.5" fill="#58595B" enable-background="new    " width="19.5" height="8.233"/>
	<rect x="220.25" y="122.301" opacity="0.5" fill="#58595B" enable-background="new    " width="19.5" height="8.233"/>
	<rect x="246.221" y="152.945" opacity="0.5" fill="#58595B" enable-background="new    " width="19.5" height="4.964"/>
	<g>
		
			<ellipse opacity="0.35" fill="#EC2227" stroke="#EC2227" stroke-width="2" stroke-miterlimit="10" enable-background="new    " cx="273.463" cy="85.197" rx="23.768" ry="14.507"/>
		
			<ellipse fill="none" stroke="#EC2227" stroke-width="2" stroke-miterlimit="10" cx="273.463" cy="85.197" rx="23.768" ry="14.507"/>
	</g>
</g>
</svg>
