<?xml version="1.0" encoding="utf-8"?>
<!-- Generator: Adobe Illustrator 15.0.0, SVG Export Plug-In . SVG Version: 6.00 Build 0)  -->
<!DOCTYPE svg PUBLIC "-//W3C//DTD SVG 1.1//EN" "http://www.w3.org/Graphics/SVG/1.1/DTD/svg11.dtd">
<svg version="1.1" id="Calque_1" xmlns="http://www.w3.org/2000/svg" xmlns:xlink="http://www.w3.org/1999/xlink" x="0px" y="0px"
	 width="30px" height="30px" viewBox="0 0 30 30" enable-background="new 0 0 30 30" xml:space="preserve">
<g>
	<path fill="#FFFFFF" stroke="#0067AA" stroke-miterlimit="10" d="M10.449,9.182V5.459c1.87-0.658,3.634-0.987,5.292-0.987
		c1.976,0,3.528,0.458,4.661,1.375c1.132,0.916,1.697,2.22,1.697,3.912c0,1.063-0.23,1.925-0.69,2.587
		c-0.461,0.663-1.185,1.36-2.173,2.094l-1.551,1.185c-0.279,0.216-0.601,0.523-0.959,0.923c-0.358,0.4-0.588,0.783-0.684,1.149
		c-0.07,0.271-0.105,0.572-0.105,0.902c0,0.121,0.006,0.243,0.016,0.365h-2.426c-0.075-0.517-0.117-0.996-0.126-1.438
		c0-0.536,0.061-1.021,0.183-1.452c0.216-0.771,0.804-1.654,1.763-2.651l0.274-0.296c0.164-0.169,0.283-0.291,0.355-0.366
		l0.33-0.409c0.147-0.188,0.266-0.345,0.352-0.472c0.085-0.127,0.188-0.291,0.311-0.494c0.121-0.202,0.215-0.39,0.277-0.564
		c0.063-0.174,0.117-0.366,0.162-0.578s0.066-0.421,0.066-0.627c0-0.694-0.164-1.244-0.492-1.648
		c-0.328-0.405-0.789-0.607-1.383-0.607c-1.115,0-1.996,0.606-2.643,1.819H10.449z M13.34,24.423
		c-0.449-0.442-0.673-0.989-0.673-1.643c0-0.654,0.23-1.206,0.691-1.657s1.017-0.678,1.668-0.678c0.652,0,1.192,0.227,1.623,0.678
		c0.429,0.451,0.644,1.004,0.644,1.657s-0.222,1.2-0.662,1.643c-0.44,0.441-0.978,0.662-1.607,0.662
		C14.35,25.085,13.789,24.864,13.34,24.423z"/>
</g>
</svg>
