<?xml version="1.0" encoding="utf-8"?>
<!-- Generator: Adobe Illustrator 15.0.0, SVG Export Plug-In . SVG Version: 6.00 Build 0)  -->
<!DOCTYPE svg PUBLIC "-//W3C//DTD SVG 1.1//EN" "http://www.w3.org/Graphics/SVG/1.1/DTD/svg11.dtd">
<svg version="1.1" id="Calque_1" xmlns="http://www.w3.org/2000/svg" xmlns:xlink="http://www.w3.org/1999/xlink" x="0px" y="0px"
	 width="238.526px" height="28.293px" viewBox="0 0 238.526 28.293" enable-background="new 0 0 238.526 28.293"
	 xml:space="preserve">
<g>
	<g>
		<path fill="#0066A1" d="M191.408,0.404h-2.187v5.538c-0.878-0.772-1.924-1.234-3.765-1.234c-3.079,0-6.158,2.031-6.158,7.693
			c0,1.748,0.342,3.185,0.93,4.288c-0.439,0.123-0.901,0.215-1.38,0.215c-1.236,0-1.828-0.41-1.828-1.838v-3.685h-0.01V2.655
			c0-1.924-0.219-2.251-1.564-2.251h-2.161v10.978v3.72v0.442c0,3.238,1.556,4.033,3.643,4.033c1.606,0,3.253-0.544,4.537-1.3
			c0.981,0.867,2.23,1.3,3.609,1.3c1.896,0,3.296-0.795,4.231-1.837c0.166,1.344,0.523,1.649,1.155,1.649h2.516V2.655
			C192.976,0.762,192.756,0.404,191.408,0.404 M189.221,15.508c-1.016,0.851-1.813,1.268-2.994,1.268
			c-1.928,0-2.859-1.268-2.859-4.565c0-3.6,1.678-4.425,3.326-4.425c1.099,0,1.896,0.248,2.527,0.716V15.508z"/>
		<path fill="#0066A1" d="M167.137,6.688c-0.138-1.431-0.55-1.625-1.235-1.625h-2.506v14.325h3.798V8.968
			c0.77-0.414,2.171-0.852,4.15-0.852h0.687V4.955c-0.274-0.084-0.577-0.138-0.88-0.138C169.365,4.817,168.047,5.724,167.137,6.688"
			/>
		<path fill="#0066A1" d="M204.575,4.264c1.207,0,2.172-0.941,2.172-2.119c0-1.182-0.965-2.146-2.172-2.146
			c-1.211,0-2.2,0.963-2.2,2.146C202.375,3.323,203.364,4.264,204.575,4.264"/>
		<path fill="#0066A1" d="M154.9,19.744L154.9,19.744c4.092,0,7.509-3.345,7.509-7.507c0-3.107-1.894-5.78-4.589-6.919l0,0
			c-0.896-0.38-1.885-0.593-2.92-0.593c-0.265,0-0.526,0.02-0.785,0.046c-0.91,1.238-1.445,2.767-1.445,4.424
			c0,3.109,1.895,5.777,4.586,6.912c-0.677,0.478-1.483,0.752-2.355,0.752c-2.391,0-4.33-2.067-4.33-4.622
			c0-1.1,0.359-2.111,0.961-2.901c0-1.176,0.416-3.307,1.042-4.234c-3.027,0.978-5.18,3.852-5.18,7.136
			C147.393,16.399,150.809,19.744,154.9,19.744 M155.844,9.195c0-0.487,0.073-0.97,0.207-1.409c1.833,0.533,3.183,2.323,3.183,4.451
			c0,0.492-0.072,0.966-0.206,1.414C157.191,13.11,155.844,11.326,155.844,9.195"/>
		<path fill="#0066A1" d="M238.526,11.875c0-4.757-2.254-7.086-6.488-7.086c-4.013,0-7.037,2.855-7.037,7.495
			c0,1.746,0.38,3.225,1.116,4.395c-0.506,0.158-1.043,0.276-1.602,0.276c-1.078,0-1.666-0.313-1.798-1.333V8.708
			c0-3.243-1.785-4.04-3.876-4.04c-1.927,0-3.646,0.814-4.992,1.807c-0.163-1.243-0.551-1.401-1.237-1.401h-2.494v11.102
			c-0.562,0.188-1.159,0.34-1.793,0.34c-1.22,0-1.812-0.408-1.824-1.793V7.701c0-2.197-0.193-2.638-1.512-2.638h-2.224v5.928v4.162
			v0.058v1.389c-0.578,0.193-1.198,0.355-1.856,0.355c-1.234,0-1.825-0.409-1.825-1.836L199.08,2.655
			c-0.004-1.924-0.226-2.251-1.571-2.251h-2.161v11.023v3.674v0.498c0,3.232,1.557,4.03,3.645,4.03c1.667,0,3.374-0.58,4.675-1.382
			c0.655,0.707,1.622,0.938,2.737,0.938c1.283,0,2.589-0.343,3.714-0.861v1.064h3.785v-10.8c0.91-0.332,2.035-0.66,3.271-0.66
			c1.238,0,1.787,0.415,1.787,1.841v1.657h-0.009v4.172c0,3.232,1.558,4.03,3.64,4.03c1.736,0,3.517-0.627,4.838-1.484
			c1.202,0.961,2.844,1.484,4.886,1.484c2.884,0,4.505-0.743,5.659-1.404v-2.64h-1.237c-0.934,0.69-2.196,1.209-3.82,1.209
			c-2.225,0-3.602-0.797-3.794-3.684h9.347C238.47,12.977,238.526,12.371,238.526,11.875 M229.181,10.693
			c0.302-2.691,1.454-3.383,2.856-3.383c1.567,0,2.447,0.828,2.528,3.383H229.181z"/>
		<path fill="#0066A1" d="M128.182,8.124l3.231,11.324h3.176l2.728-9.238l2.701,9.238h3.173l3.284-11.294
			c0.125-0.407,0.385-0.618,0.751-0.618h0.832V5.079h-6.113v2.457h0.99c0.196,0,0.451,0.02,0.549,0.149
			c0.076,0.101,0.131,0.338-0.038,0.931l-1.612,5.867l-2.721-9.404h-2.938l-2.718,9.4l-1.894-6.943h1.464V5.079h-6.376v2.457h0.889
			C127.812,7.536,128.073,7.774,128.182,8.124"/>
	</g>
	<g>
		<g>
			<path fill="#0066A1" d="M178.959,25.546c0.041,0.72,0.359,1.052,0.94,1.052c0.45,0,0.609-0.159,0.796-0.395h0.574v0.664
				c-0.298,0.181-0.692,0.354-1.453,0.354c-1.26,0-1.89-0.706-1.89-1.848c0-1.17,0.727-1.89,1.82-1.89
				c1.087,0,1.654,0.554,1.654,1.786c0,0.124-0.015,0.241-0.015,0.276H178.959z M178.973,24.972h1.418
				c-0.034-0.637-0.229-0.886-0.644-0.886C179.326,24.086,179.049,24.349,178.973,24.972z"/>
			<path fill="#0066A1" d="M181.666,24.737h1.598v0.754h-1.598V24.737z"/>
			<path fill="#0066A1" d="M183.505,27.754h0.242c0.083,0,0.174-0.09,0.174-0.174v-3.245c0-0.076-0.091-0.187-0.174-0.187h-0.27
				V23.54h1.239c0.11,0,0.18,0.083,0.2,0.422c0.27-0.27,0.623-0.478,1.107-0.478c0.685,0,1.37,0.498,1.37,1.793
				c0,1.343-0.796,1.826-1.563,1.826c-0.416,0-0.692-0.097-0.9-0.249v0.9h0.464v0.539h-1.89V27.754z M184.931,24.342v2.027
				c0.152,0.098,0.332,0.159,0.588,0.159c0.415,0,0.852-0.193,0.852-1.162c0-0.92-0.395-1.155-0.837-1.155
				C185.353,24.211,185.132,24.266,184.931,24.342z"/>
			<path fill="#0066A1" d="M187.576,26.121c0-0.761,0.595-1.107,1.433-1.107c0.304,0,0.512,0.028,0.739,0.083v-0.38
				c0-0.367-0.2-0.54-0.629-0.54c-0.436,0-0.658,0.166-0.838,0.325h-0.464v-0.74c0.34-0.152,0.797-0.277,1.502-0.277
				c0.941,0,1.439,0.305,1.439,1.136v1.806c0,0.083,0.09,0.173,0.173,0.173h0.194v0.484c-0.139,0.083-0.346,0.139-0.609,0.139
				c-0.422,0-0.637-0.166-0.727-0.457c-0.27,0.332-0.608,0.45-1.052,0.45C188.059,27.214,187.576,26.84,187.576,26.121z
				 M189.748,26.363v-0.775c-0.159-0.027-0.339-0.041-0.532-0.041c-0.408,0-0.657,0.166-0.657,0.533c0,0.366,0.215,0.54,0.554,0.54
				C189.368,26.62,189.575,26.522,189.748,26.363z"/>
			<path fill="#0066A1" d="M191.783,28.293v-0.532c0.388-0.118,0.733-0.326,0.982-0.637l-1.196-2.782
				c-0.049-0.118-0.118-0.193-0.215-0.193h-0.132V23.54h1.758v0.609h-0.478l0.782,1.875l0.581-1.419
				c0.104-0.263,0.139-0.456-0.166-0.456h-0.11V23.54h1.599v0.609h-0.152c-0.097,0-0.193,0.083-0.249,0.214l-1.19,2.679
				c-0.284,0.623-0.644,1.031-0.99,1.252H191.783z"/>
			<path fill="#0066A1" d="M195.333,26.598h0.242c0.083,0,0.173-0.097,0.173-0.173v-2.09c0-0.076-0.09-0.187-0.173-0.187h-0.271
				V23.54h1.239c0.117,0,0.187,0.097,0.207,0.478c0.305-0.256,0.741-0.533,1.295-0.533c0.394,0,0.754,0.132,0.879,0.567
				c0.312-0.27,0.754-0.567,1.328-0.567c0.484,0,0.921,0.201,0.921,0.906v2.035c0,0.083,0.09,0.173,0.173,0.173h0.193v0.574h-1.765
				v-0.574h0.388v-1.889c0-0.354-0.118-0.437-0.437-0.437c-0.256,0-0.532,0.056-0.761,0.132v2.193h0.395v0.574h-1.792v-0.574h0.387
				v-1.889c0-0.354-0.117-0.437-0.436-0.437c-0.256,0-0.532,0.056-0.762,0.132v2.193h0.396v0.574h-1.82V26.598z"/>
			<path fill="#0066A1" d="M202.718,25.546c0.041,0.72,0.359,1.052,0.94,1.052c0.45,0,0.609-0.159,0.796-0.395h0.574v0.664
				c-0.297,0.181-0.691,0.354-1.453,0.354c-1.259,0-1.889-0.706-1.889-1.848c0-1.17,0.727-1.89,1.819-1.89
				c1.087,0,1.654,0.554,1.654,1.786c0,0.124-0.014,0.241-0.014,0.276H202.718z M202.732,24.972h1.419
				c-0.035-0.637-0.229-0.886-0.645-0.886C203.084,24.086,202.808,24.349,202.732,24.972z"/>
			<path fill="#0066A1" d="M205.306,26.598h0.242c0.083,0,0.173-0.097,0.173-0.173v-2.09c0-0.076-0.09-0.187-0.173-0.187h-0.27
				V23.54h1.238c0.118,0,0.188,0.097,0.207,0.471c0.34-0.318,0.804-0.526,1.35-0.526c0.506,0,0.941,0.201,0.941,0.906v2.035
				c0,0.083,0.09,0.173,0.173,0.173h0.194v0.574h-1.792v-0.574h0.415v-1.861c0-0.36-0.139-0.464-0.478-0.464
				c-0.291,0-0.561,0.063-0.796,0.138v2.188h0.422v0.574h-1.848V26.598z"/>
			<path fill="#0066A1" d="M209.479,23.54h0.43v-0.969h1.01v0.969h0.734v0.609h-0.734v1.993c0,0.387,0.139,0.456,0.513,0.456h0.249
				v0.54c-0.152,0.048-0.367,0.09-0.65,0.09c-0.699,0-1.121-0.222-1.121-0.976v-2.104h-0.43V23.54z"/>
			<path fill="#0066A1" d="M213.002,27.02v-0.816h0.581c0.083,0.256,0.408,0.416,0.727,0.416c0.388,0,0.622-0.166,0.622-0.43
				c0-0.27-0.158-0.381-0.739-0.464c-0.783-0.11-1.149-0.381-1.149-1.093c0-0.721,0.554-1.135,1.481-1.135
				c0.566,0,0.955,0.062,1.245,0.158v0.804h-0.561c-0.118-0.215-0.339-0.354-0.72-0.354c-0.373,0-0.581,0.152-0.581,0.38
				c0,0.223,0.131,0.354,0.747,0.443c0.879,0.132,1.239,0.374,1.239,1.107c0,0.713-0.478,1.177-1.578,1.177
				C213.659,27.214,213.299,27.118,213.002,27.02z"/>
			<path fill="#0066A1" d="M217.092,25.546c0.041,0.72,0.359,1.052,0.941,1.052c0.449,0,0.608-0.159,0.795-0.395h0.574v0.664
				c-0.297,0.181-0.691,0.354-1.453,0.354c-1.259,0-1.889-0.706-1.889-1.848c0-1.17,0.727-1.89,1.82-1.89
				c1.086,0,1.653,0.554,1.653,1.786c0,0.124-0.014,0.241-0.014,0.276H217.092z M217.106,24.972h1.418
				c-0.034-0.637-0.228-0.886-0.643-0.886C217.458,24.086,217.182,24.349,217.106,24.972z"/>
			<path fill="#0066A1" d="M219.68,26.598h0.242c0.083,0,0.174-0.097,0.174-0.173v-2.09c0-0.076-0.091-0.187-0.174-0.187h-0.27
				V23.54h1.238c0.118,0,0.194,0.104,0.208,0.525c0.242-0.297,0.526-0.56,1.003-0.56c0.076,0,0.152,0.014,0.222,0.034v0.747h-0.173
				c-0.525,0-0.844,0.111-1.045,0.222v2.09h0.506v0.574h-1.932V26.598z"/>
			<path fill="#0066A1" d="M222.795,24.342c-0.042-0.118-0.125-0.193-0.222-0.193h-0.132V23.54h1.765v0.609h-0.456l0.74,2.075h0.014
				l0.588-1.619c0.097-0.27,0.124-0.456-0.18-0.456h-0.111V23.54h1.537v0.609h-0.118c-0.11,0-0.208,0.083-0.263,0.214l-1.156,2.81
				h-0.872L222.795,24.342z"/>
			<path fill="#0066A1" d="M226.483,26.598h0.264c0.083,0,0.166-0.097,0.166-0.173v-2.09c0-0.076-0.083-0.187-0.166-0.187h-0.291
				V23.54h1.309c0.11,0,0.165,0.11,0.165,0.388v2.498c0,0.083,0.091,0.173,0.174,0.173h0.263v0.574h-1.883V26.598z M226.865,22.723
				c0-0.298,0.241-0.54,0.546-0.54s0.547,0.242,0.547,0.54s-0.242,0.533-0.547,0.533S226.865,23.021,226.865,22.723z"/>
			<path fill="#0066A1" d="M228.511,25.367c0-1.17,0.754-1.883,1.931-1.883c0.588,0,0.983,0.083,1.225,0.188v0.83h-0.608
				c-0.125-0.249-0.284-0.374-0.637-0.374c-0.547,0-0.879,0.388-0.879,1.246c0,0.865,0.284,1.218,0.872,1.218
				c0.449,0,0.63-0.2,0.775-0.388h0.491v0.713c-0.271,0.152-0.672,0.305-1.288,0.305C229.134,27.221,228.511,26.529,228.511,25.367z
				"/>
			<path fill="#0066A1" d="M233.016,25.546c0.042,0.72,0.36,1.052,0.941,1.052c0.45,0,0.609-0.159,0.796-0.395h0.574v0.664
				c-0.298,0.181-0.691,0.354-1.453,0.354c-1.259,0-1.89-0.706-1.89-1.848c0-1.17,0.728-1.89,1.82-1.89
				c1.087,0,1.654,0.554,1.654,1.786c0,0.124-0.014,0.241-0.014,0.276H233.016z M233.031,24.972h1.419
				c-0.035-0.637-0.229-0.886-0.645-0.886C233.383,24.086,233.107,24.349,233.031,24.972z"/>
			<path fill="#0066A1" d="M235.633,27.02v-0.816h0.58c0.084,0.256,0.409,0.416,0.728,0.416c0.388,0,0.622-0.166,0.622-0.43
				c0-0.27-0.158-0.381-0.74-0.464c-0.782-0.11-1.148-0.381-1.148-1.093c0-0.721,0.554-1.135,1.48-1.135
				c0.567,0,0.955,0.062,1.246,0.158v0.804h-0.561c-0.118-0.215-0.339-0.354-0.72-0.354c-0.373,0-0.581,0.152-0.581,0.38
				c0,0.223,0.132,0.354,0.747,0.443c0.879,0.132,1.239,0.374,1.239,1.107c0,0.713-0.479,1.177-1.578,1.177
				C236.291,27.214,235.93,27.118,235.633,27.02z"/>
		</g>
	</g>
</g>
<g>
	<rect x="-268.441" y="-129.236" fill="none" width="654.803" height="263.622"/>
</g>
<g>
	<path d="M13.328,15.036c0,1.415-0.6,2.564-1.798,3.448c-1.199,0.884-2.828,1.326-4.885,1.326c-1.189,0-2.226-0.104-3.11-0.313
		c-0.884-0.209-1.712-0.475-2.483-0.796v-3.442h0.405c0.765,0.61,1.622,1.08,2.57,1.407c0.948,0.328,1.859,0.492,2.734,0.492
		c0.225,0,0.521-0.02,0.887-0.058c0.367-0.039,0.666-0.104,0.897-0.193c0.283-0.115,0.516-0.26,0.699-0.434s0.275-0.431,0.275-0.771
		c0-0.315-0.134-0.587-0.4-0.815c-0.267-0.228-0.657-0.403-1.172-0.525c-0.54-0.129-1.11-0.249-1.711-0.361
		c-0.602-0.112-1.166-0.256-1.693-0.43c-1.208-0.392-2.078-0.924-2.608-1.596s-0.795-1.506-0.795-2.503
		c0-1.337,0.599-2.429,1.798-3.273c1.199-0.846,2.74-1.269,4.624-1.269c0.945,0,1.879,0.092,2.802,0.275
		c0.922,0.183,1.721,0.413,2.396,0.689v3.308h-0.396c-0.579-0.463-1.288-0.851-2.126-1.162s-1.696-0.468-2.57-0.468
		c-0.309,0-0.616,0.021-0.921,0.063C6.44,7.676,6.146,7.755,5.863,7.871c-0.25,0.097-0.466,0.243-0.646,0.438
		c-0.18,0.196-0.27,0.42-0.27,0.671c0,0.379,0.145,0.67,0.434,0.872c0.289,0.203,0.835,0.388,1.639,0.555
		c0.527,0.109,1.034,0.216,1.519,0.318c0.485,0.104,1.008,0.244,1.567,0.425c1.099,0.359,1.911,0.85,2.435,1.471
		C13.066,13.241,13.328,14.046,13.328,15.036z"/>
	<path d="M26.337,14.776h-7.947c0.051,0.849,0.375,1.498,0.969,1.948c0.595,0.449,1.471,0.675,2.628,0.675
		c0.733,0,1.443-0.132,2.131-0.396s1.231-0.547,1.63-0.849h0.386v2.787c-0.785,0.315-1.524,0.543-2.218,0.685
		s-1.462,0.212-2.305,0.212c-2.173,0-3.838-0.488-4.996-1.466c-1.157-0.977-1.736-2.369-1.736-4.176
		c0-1.787,0.548-3.203,1.645-4.248c1.096-1.045,2.599-1.567,4.508-1.567c1.761,0,3.086,0.445,3.973,1.336s1.331,2.172,1.331,3.843
		V14.776z M22.885,12.741c-0.02-0.727-0.199-1.272-0.54-1.64c-0.341-0.366-0.871-0.55-1.591-0.55c-0.668,0-1.218,0.174-1.649,0.521
		c-0.431,0.347-0.672,0.903-0.724,1.668H22.885z"/>
	<path d="M34.429,19.838c-0.945,0-1.809-0.112-2.589-0.337c-0.781-0.226-1.461-0.572-2.04-1.042
		c-0.572-0.469-1.016-1.061-1.331-1.774s-0.473-1.549-0.473-2.508c0-1.009,0.169-1.88,0.506-2.613
		c0.337-0.732,0.809-1.34,1.413-1.822c0.585-0.457,1.26-0.791,2.025-1.003S33.5,8.42,34.322,8.42c0.739,0,1.421,0.08,2.044,0.241
		c0.624,0.16,1.206,0.369,1.746,0.627v2.96h-0.491c-0.135-0.115-0.297-0.25-0.487-0.404c-0.189-0.154-0.422-0.306-0.698-0.453
		c-0.263-0.142-0.552-0.259-0.867-0.353c-0.314-0.093-0.681-0.14-1.098-0.14c-0.925,0-1.636,0.294-2.133,0.882
		c-0.498,0.589-0.746,1.388-0.746,2.396c0,1.042,0.255,1.833,0.766,2.373c0.51,0.54,1.234,0.81,2.171,0.81
		c0.437,0,0.83-0.05,1.18-0.149c0.35-0.1,0.64-0.217,0.872-0.352c0.218-0.129,0.411-0.264,0.578-0.405s0.321-0.279,0.462-0.415
		h0.491V19c-0.546,0.258-1.117,0.462-1.711,0.612C35.806,19.763,35.148,19.838,34.429,19.838z"/>
	<path d="M51.199,19.549h-3.481v-1.196c-0.642,0.489-1.229,0.86-1.762,1.114c-0.533,0.254-1.168,0.381-1.907,0.381
		c-1.194,0-2.114-0.344-2.759-1.032c-0.645-0.688-0.968-1.703-0.968-3.047v-7.05h3.481v5.372c0,0.546,0.018,1.001,0.053,1.364
		c0.036,0.363,0.117,0.664,0.246,0.901c0.122,0.238,0.307,0.412,0.555,0.521c0.247,0.109,0.593,0.163,1.037,0.163
		c0.295,0,0.624-0.054,0.983-0.163c0.36-0.109,0.708-0.271,1.042-0.482V8.719h3.481V19.549z"/>
	<path d="M62.328,12.027H62.02c-0.147-0.051-0.385-0.09-0.712-0.115s-0.6-0.039-0.818-0.039c-0.494,0-0.93,0.032-1.309,0.097
		c-0.378,0.064-0.786,0.174-1.222,0.328v7.252h-3.481V8.719h3.481v1.592c0.763-0.656,1.427-1.092,1.991-1.308
		c0.564-0.215,1.085-0.322,1.56-0.322c0.121,0,0.26,0.003,0.413,0.009c0.154,0.007,0.289,0.017,0.404,0.029V12.027z"/>
	<path d="M74.961,14.776h-7.946c0.051,0.849,0.374,1.498,0.969,1.948c0.595,0.449,1.471,0.675,2.628,0.675
		c0.733,0,1.443-0.132,2.132-0.396c0.688-0.264,1.23-0.547,1.629-0.849h0.386v2.787c-0.784,0.315-1.523,0.543-2.218,0.685
		s-1.463,0.212-2.305,0.212c-2.173,0-3.838-0.488-4.995-1.466c-1.157-0.977-1.736-2.369-1.736-4.176
		c0-1.787,0.548-3.203,1.645-4.248c1.096-1.045,2.599-1.567,4.508-1.567c1.762,0,3.087,0.445,3.974,1.336
		c0.888,0.891,1.331,2.172,1.331,3.843V14.776z M71.508,12.741c-0.019-0.727-0.199-1.272-0.54-1.64
		c-0.341-0.366-0.871-0.55-1.591-0.55c-0.669,0-1.219,0.174-1.649,0.521c-0.431,0.347-0.672,0.903-0.723,1.668H71.508z"/>
	<path d="M87.942,19.549H84.46v-1.128c-0.598,0.488-1.156,0.849-1.677,1.08c-0.52,0.231-1.12,0.347-1.801,0.347
		c-1.316,0-2.369-0.508-3.159-1.523s-1.185-2.386-1.185-4.108c0-0.919,0.133-1.734,0.399-2.444c0.267-0.711,0.631-1.32,1.094-1.828
		c0.437-0.482,0.966-0.856,1.589-1.123s1.245-0.4,1.868-0.4c0.648,0,1.181,0.069,1.595,0.207c0.414,0.139,0.839,0.313,1.276,0.525
		V4.543h3.481V19.549z M84.46,16.568v-5.321c-0.244-0.104-0.501-0.177-0.771-0.223c-0.269-0.045-0.516-0.067-0.74-0.067
		c-0.911,0-1.595,0.285-2.05,0.854c-0.455,0.57-0.684,1.36-0.684,2.372c0,1.063,0.184,1.833,0.549,2.313
		c0.365,0.48,0.952,0.72,1.761,0.72c0.314,0,0.647-0.06,1.001-0.179C83.879,16.917,84.191,16.761,84.46,16.568z"/>
	<path d="M107.595,14.082c0,0.9-0.127,1.71-0.381,2.43c-0.254,0.721-0.597,1.325-1.026,1.813c-0.457,0.508-0.959,0.889-1.505,1.143
		c-0.547,0.254-1.147,0.381-1.804,0.381c-0.61,0-1.145-0.072-1.601-0.217c-0.457-0.145-0.906-0.339-1.351-0.584l-0.115,0.502h-1.697
		V4.543h1.813v5.362c0.508-0.418,1.048-0.761,1.621-1.027c0.571-0.267,1.215-0.4,1.929-0.4c1.272,0,2.277,0.489,3.014,1.466
		C107.227,10.921,107.595,12.3,107.595,14.082z M105.724,14.129c0-1.286-0.212-2.262-0.636-2.927
		c-0.425-0.665-1.109-0.998-2.055-0.998c-0.527,0-1.061,0.114-1.601,0.342c-0.54,0.229-1.042,0.522-1.505,0.883v6.172
		c0.515,0.231,0.957,0.393,1.326,0.482c0.37,0.09,0.789,0.135,1.259,0.135c1.003,0,1.789-0.329,2.358-0.988
		C105.44,16.571,105.724,15.538,105.724,14.129z"/>
	<path d="M119.689,8.777l-6.287,14.746h-1.938l2.006-4.494l-4.292-10.252h1.968l3.308,7.985l3.337-7.985H119.689z"/>
</g>
</svg>
